<svg id="visual" viewBox="0 0 900 600" width="900" height="600" xmlns="http://www.w3.org/2000/svg" xmlns:xlink="http://www.w3.org/1999/xlink" version="1.1"><rect x="0" y="0" width="900" height="600" fill="#001220"></rect><path d="M0 362L21.5 370.3C43 378.7 86 395.3 128.8 396.2C171.7 397 214.3 382 257.2 372.2C300 362.3 343 357.7 385.8 362.5C428.7 367.3 471.3 381.7 514.2 395.7C557 409.7 600 423.3 642.8 419.5C685.7 415.7 728.3 394.3 771.2 380.3C814 366.3 857 359.7 878.5 356.3L900 353L900 601L878.5 601C857 601 814 601 771.2 601C728.3 601 685.7 601 642.8 601C600 601 557 601 514.2 601C471.3 601 428.7 601 385.8 601C343 601 300 601 257.2 601C214.3 601 171.7 601 128.8 601C86 601 43 601 21.5 601L0 601Z" fill="#c62368"></path><path d="M0 463L21.5 461C43 459 86 455 128.8 454.5C171.7 454 214.3 457 257.2 457.2C300 457.3 343 454.7 385.8 445C428.7 435.3 471.3 418.7 514.2 410.8C557 403 600 404 642.8 417C685.7 430 728.3 455 771.2 462.5C814 470 857 460 878.5 455L900 450L900 601L878.5 601C857 601 814 601 771.2 601C728.3 601 685.7 601 642.8 601C600 601 557 601 514.2 601C471.3 601 428.7 601 385.8 601C343 601 300 601 257.2 601C214.3 601 171.7 601 128.8 601C86 601 43 601 21.5 601L0 601Z" fill="#d53867"></path><path d="M0 508L21.5 498.8C43 489.7 86 471.3 128.8 463C171.7 454.7 214.3 456.3 257.2 460.2C300 464 343 470 385.8 478.8C428.7 487.7 471.3 499.3 514.2 499.8C557 500.3 600 489.7 642.8 489.7C685.7 489.7 728.3 500.3 771.2 502.7C814 505 857 499 878.5 496L900 493L900 601L878.5 601C857 601 814 601 771.2 601C728.3 601 685.7 601 642.8 601C600 601 557 601 514.2 601C471.3 601 428.7 601 385.8 601C343 601 300 601 257.2 601C214.3 601 171.7 601 128.8 601C86 601 43 601 21.5 601L0 601Z" fill="#e34c67"></path><path d="M0 484L21.5 485.3C43 486.7 86 489.3 128.8 489.8C171.7 490.3 214.3 488.7 257.2 489.3C300 490 343 493 385.8 497.8C428.7 502.7 471.3 509.3 514.2 512.7C557 516 600 516 642.8 515.5C685.7 515 728.3 514 771.2 510.2C814 506.3 857 499.7 878.5 496.3L900 493L900 601L878.5 601C857 601 814 601 771.2 601C728.3 601 685.7 601 642.8 601C600 601 557 601 514.2 601C471.3 601 428.7 601 385.8 601C343 601 300 601 257.2 601C214.3 601 171.7 601 128.8 601C86 601 43 601 21.5 601L0 601Z" fill="#ef5f67"></path><path d="M0 568L21.5 565.8C43 563.7 86 559.3 128.8 555.2C171.7 551 214.3 547 257.2 544.8C300 542.7 343 542.3 385.8 541.2C428.7 540 471.3 538 514.2 543C557 548 600 560 642.8 564.2C685.7 568.3 728.3 564.7 771.2 564.7C814 564.7 857 568.3 878.5 570.2L900 572L900 601L878.5 601C857 601 814 601 771.2 601C728.3 601 685.7 601 642.8 601C600 601 557 601 514.2 601C471.3 601 428.7 601 385.8 601C343 601 300 601 257.2 601C214.3 601 171.7 601 128.8 601C86 601 43 601 21.5 601L0 601Z" fill="#fa7268"></path></svg>