<svg id="Illustrations" xmlns="http://www.w3.org/2000/svg" viewBox="0 0 1000 1000"><defs><style>.cls-1{fill:#77c8d6;}.cls-2{fill:#ffb6db;}.cls-3{fill:#bd4632;}.cls-4,.cls-7{fill:#f2eada;}.cls-5{fill:#3b1534;}.cls-6{fill:#f985bf;}.cls-7,.cls-8{stroke:#3b1534;}.cls-7,.cls-8,.cls-9{stroke-linecap:round;stroke-miterlimit:10;stroke-width:5px;}.cls-8,.cls-9{fill:none;}.cls-9{stroke:#77c8d6;}</style></defs><path class="cls-1" d="M602.68,852.1H476.5a22.23,22.23,0,0,1-22.24-22.24h0a37.69,37.69,0,0,1,37.68-37.69H602.68Z"/><ellipse class="cls-2" cx="294.03" cy="833.85" rx="81.54" ry="38.05"/><path class="cls-3" d="M661,698.1H189.41a33.75,33.75,0,0,1-33.74-33.74V457.27a33.75,33.75,0,0,1,33.74-33.74H661Z"/><path class="cls-4" d="M653.23,671.8H205.39a26.34,26.34,0,0,1-26.34-26.34V473.76a26.34,26.34,0,0,1,26.34-26.34H653.23Z"/><path class="cls-5" d="M709,503.1,688.43,505l-10.8-118.06,63-5.77,6.91,75.59A42.64,42.64,0,0,1,709,503.1Z"/><path class="cls-2" d="M63,712H46V413.23l.33-7.69c3.25-77.67,6.94-165.7,57.72-229.83,23.34-29.46,57.2-47.81,90.58-49.08,26.56-1,52.17,9.39,72.13,29.3a120.52,120.52,0,0,1,33.85,69.88l-16.88,2a103.23,103.23,0,0,0-29-59.85c-16.58-16.54-37.74-25.2-59.49-24.35-28.48,1.08-57.6,17-77.89,42.65-47.36,59.8-50.92,144.9-54.07,220L63,413.58Z"/><rect class="cls-2" x="427.48" y="490.91" width="130.5" height="81.51" rx="14.05"/><path class="cls-1" d="M900,579.56a104.92,104.92,0,0,0-137.4-64.9l-13,5,87.9,236.94a57.51,57.51,0,0,0,64.1,36.6h0A57.51,57.51,0,0,0,946,718.53Z"/><path class="cls-1" d="M655.69,555.92a82.85,82.85,0,0,0-52.79,83.27l14.85,205.08L854.2,801.74,749.56,519.68Z"/><path class="cls-6" d="M718.9,521.66,601.74,550a43,43,0,0,1-57.5-35.32l-13.67-116.9,156.43-23Z"/><path class="cls-5" d="M767.39,393,509.78,416.59h0A112.59,112.59,0,0,1,611.65,294.2L645,291.15A112.6,112.6,0,0,1,767.39,393Z"/><ellipse class="cls-7" cx="586.4" cy="449.58" rx="26.18" ry="30.97" transform="translate(-57.16 86.52) rotate(-8.05)"/><line class="cls-8" x1="613.15" y1="443.07" x2="695.48" y2="418.21"/><path class="cls-6" d="M629.38,530.35l14.76,52.28c4.35,1.79,23.68,9.16,46,.81,24.48-9.15,34.09-30.29,35.72-34.06q-5-20.75-10-41.49Z"/><path class="cls-5" d="M632.77,542.46l48.74-13.17a2.26,2.26,0,0,1,2,4l-45.35,28.29Z"/><path class="cls-4" d="M397.45,284.25a122.63,122.63,0,0,0-45.1-45.51c-12,11.27-33.06,18.77-57.11,18.77-26,0-48.54-8.75-59.82-21.57A122.51,122.51,0,0,0,185,284.7a121,121,0,0,0-12.86,34c-5.31,24.79,12.25,49,37.53,50.93,1.17.09,2.35.14,3.53.14,23.39.07,37.45-17,39.22-19.18a49.7,49.7,0,0,0,78.37.1c1.78,2.22,15.8,19.14,39.15,19.08q.89,0,1.74,0c25.87-1,44.35-25.65,38.94-51A121.38,121.38,0,0,0,397.45,284.25Z"/><path class="cls-4" d="M295.24,257.51c24.05,0,45.15-7.5,57.11-18.77a122.15,122.15,0,0,0-116.93-2.8C246.7,248.76,269.25,257.51,295.24,257.51Z"/><rect class="cls-3" x="389.2" y="683.79" width="54.91" height="85.26"/><rect class="cls-3" x="330.07" y="763.27" width="174.14" height="28.9" rx="14.45"/><polygon class="cls-4" points="908.25 690.75 608.66 718.78 605.65 677.21 904.51 649.87 908.25 690.75"/><polygon class="cls-4" points="914.18 755.55 613.32 783.08 610.36 742.13 910.44 714.67 914.18 755.55"/><path class="cls-1" d="M296.94,795.8h-251V755.71H256.85a40.09,40.09,0,0,1,40.09,40.09Z"/><path class="cls-6" d="M519.64,747.9c-3.14.76-8.45,2.65-14.17,8.3-1.9,1.89-3.78,3.8-5.73,5.65l-12.18,11.54a16.93,16.93,0,0,0-4.57,7.06,16.09,16.09,0,0,0-.73,4c-.15,3.25.66,6.84,4.34,8.66a9,9,0,0,0,9.1-.88l15-10.49a22.48,22.48,0,0,1,11.32-4c11,1.28,19.71-7.5,19.34-15.9-.36-8-8.91-15.72-19.34-14.41A23.64,23.64,0,0,0,519.64,747.9Z"/><path class="cls-6" d="M683.3,756.83l-12.38.9a481.73,481.73,0,0,1-96.41-2.54C565.32,754,559.26,753,555.24,752c-3.75-.88-5.63-1.22-9.38-1.91-11.69-2.13-18.28-3.34-23.85-2.63v30.31c.52,0,1-.06,1.55-.06h18.63s-45.74,16.9-59.38,40.14c-.34.58-.7,1.15-1.1,1.7-2.27,3.16-10.3,16.19,6.74,22.67,0,0,1.08,12.17,13.16,11.49a17.51,17.51,0,0,0,11.72-5.65c5.51-5.88,17.66-17.13,30-17.13,0,0-16.1,9.24-5.26,17.55a17.17,17.17,0,0,0,10.6,3.43c11.51-.06,43.66.09,55.88,3.48,1.64.45,3.27.91,4.93,1.28,13.5,3.05,62.83,12.52,81.69-6.93Z"/><path class="cls-1" d="M171.43,755.71H45.92V707.59h77.39a48.11,48.11,0,0,1,48.12,48.12Z"/><rect class="cls-9" x="227.68" y="487.98" width="103.17" height="135.74" rx="13.6"/><rect class="cls-1" x="296.94" y="531.66" width="175.78" height="113.88" rx="12.78"/><path class="cls-4" d="M367,723.81a45.69,45.69,0,0,0-21.72,5.45v-1.67H237.68v92.46a24.53,24.53,0,0,0,24.53,24.53h58.58a24.53,24.53,0,0,0,24.53-24.53v-9.69A46,46,0,1,0,367,723.81Zm0,76.27a30.16,30.16,0,0,1-21.72-9.2V748.74A30.27,30.27,0,1,1,367,800.08Z"/><ellipse class="cls-5" cx="291.5" cy="730.68" rx="53.82" ry="20.03"/><path class="cls-8" d="M488.45,842.23s30.89-44.05,77.78-43.12"/><line class="cls-8" x1="543.36" y1="830.94" x2="585.79" y2="828.3"/><line class="cls-8" x1="171.43" y1="755.71" x2="48.49" y2="755.71"/><circle class="cls-6" cx="711.68" cy="444.53" r="29.77"/><circle class="cls-8" cx="713.32" cy="447.58" r="9.71"/><path class="cls-8" d="M725.44,428.85s-17.85,2.53-20.78,14.38"/><path class="cls-1" d="M912.12,867.1h0a33.22,33.22,0,0,1-42.63-19.69l-73-198.47,119-24.58,48.21,131A87.06,87.06,0,0,1,912.12,867.1Z"/><path class="cls-8" d="M784.75,616.93l50,136"/><path class="cls-1" d="M897,869.47,686.68,855.56l-6.29-100,238.27-4.08a48.17,48.17,0,0,1,48.17,48.17h0A69.84,69.84,0,0,1,897,869.47Z"/><path class="cls-9" d="M350.72,240.21c-6.35,4.73-28.89,20.34-61.09,18.87a95.54,95.54,0,0,1-54-20"/><path class="cls-8" d="M561,514.46s14,10.51,20.47-6.76"/><line class="cls-8" x1="868.88" y1="752.9" x2="750.04" y2="754.35"/><path class="cls-9" d="M249.83,833.85a108.39,108.39,0,0,1,83.34,0"/></svg>