<svg id="Illustrations" xmlns="http://www.w3.org/2000/svg" viewBox="0 0 1000 1000"><defs><style>.cls-1{fill:#f2eada;}.cls-10,.cls-2,.cls-5,.cls-7,.cls-9{fill:none;stroke-linecap:round;stroke-miterlimit:10;stroke-width:5px;}.cls-2{stroke:#77c8d6;}.cls-3{fill:#ffb6db;}.cls-4{fill:#3b1534;}.cls-5{stroke:#3b1534;}.cls-6{fill:#77c8d6;}.cls-7{stroke:#ffacd2;}.cls-8{fill:#bd4632;}.cls-9{stroke:#231f20;}.cls-10{stroke:#f685b0;}.cls-11{fill:#f985bf;}</style></defs><path class="cls-1" d="M577.9,801.67H47.27V216.72A40.69,40.69,0,0,1,88,176H577.9Z"/><path class="cls-2" d="M210.71,255.24l39.83,155.63-83.46,0Z"/><polygon class="cls-3" points="183.52 407.82 54.02 407.82 81.21 245.81 210.71 245.81 183.52 407.82"/><path class="cls-4" d="M240.21,529.53a10.43,10.43,0,0,0-10.43-10.43H57.7a10.43,10.43,0,0,0-10.43,10.43v41.71H240.21Z"/><path class="cls-4" d="M47.27,571.24V613A10.43,10.43,0,0,0,57.7,623.39H229.78A10.43,10.43,0,0,0,240.21,613V571.24Z"/><rect class="cls-4" x="233.81" y="571.24" width="192.93" height="52.14"/><path class="cls-2" d="M429.52,253.24l39.84,155.63-83.46,0Z"/><polygon class="cls-3" points="404.34 408.82 274.84 408.82 302.03 246.81 431.53 246.81 404.34 408.82"/><line class="cls-5" x1="47.27" y1="408.82" x2="419.71" y2="408.82"/><line class="cls-5" x1="304.38" y1="266.08" x2="418.15" y2="266.08"/><ellipse class="cls-1" cx="347.15" cy="330.14" rx="35.39" ry="26.37" transform="translate(-59.19 583.89) rotate(-75.55)"/><line class="cls-5" x1="83.57" y1="266.08" x2="197.34" y2="266.08"/><ellipse class="cls-1" cx="126.33" cy="330.14" rx="35.39" ry="26.37" transform="translate(-224.89 370.06) rotate(-75.55)"/><rect class="cls-6" x="47.5" y="701.22" width="76.63" height="100.46"/><path class="cls-6" d="M274.44,701.22H202.72V801.67h79V708.49A7.27,7.27,0,0,0,274.44,701.22Z"/><rect class="cls-6" x="124.13" y="701.22" width="78.59" height="100.46"/><line class="cls-5" x1="124.13" y1="702.78" x2="124.13" y2="800"/><line class="cls-5" x1="202.72" y1="702.78" x2="202.72" y2="800"/><line class="cls-5" x1="47.27" y1="623.18" x2="344.01" y2="623.18"/><line class="cls-7" x1="238.61" y1="572.29" x2="47.27" y2="572.29"/><line class="cls-5" x1="50.93" y1="728.12" x2="278.9" y2="728.12"/><polygon class="cls-3" points="920.47 571.37 873.18 403.48 857.43 498.51 879.05 571.37 920.47 571.37"/><path class="cls-4" d="M748.17,267.76a58.68,58.68,0,0,0-23.83,5h0c-33,7.87-32.83-27.3-32.83-27.3L632,253.39l22.08,139.7,88.78-7.77h0c1.74.15,3.51.25,5.29.25a58.9,58.9,0,1,0,0-117.8Z"/><path class="cls-4" d="M491.05,326.66v.17a58.88,58.88,0,0,0,0,117.46h0l133.68.16V326.66Z"/><path class="cls-6" d="M408.8,497.06a51.7,51.7,0,0,0-25.06-8.57c-12.2-75.4-58.88-85-58.88-85l-83.3,92.91L375.82,687.15c3.12,5.73,11.63,19.42,28.58,27.06a56.35,56.35,0,0,0,16.92,4.68c22.42,2.45,43.75-10.22,49-14.35h0c4-53.33,10.31-109.11,14.29-162.44C461.4,526.3,432,512.87,408.8,497.06Z"/><path class="cls-6" d="M724.25,739.13l126.85-162,27.25-171.84c6-37.94-27.53-70.3-65.23-62.94L667.26,370.81Q651,374,634.91,378.43l-47.75,13.2a86.7,86.7,0,0,1-42.28,1l-58.25-13.23A63.61,63.61,0,0,0,409,439.71l-.16,57.35,69.65,47.41q-6,80-11.93,160l-2.73,97.2,256.85,1.64,2.05-64.2,1.56,0"/><path class="cls-2" d="M235.56,260.27s3.56-16.56,17.82-20.54"/><path class="cls-4" d="M253.1,327.21,259.71,294a28.68,28.68,0,0,0-22.52-33.74l-3.89-.77A28.67,28.67,0,0,0,199.57,282l-5.89,29.54a62.35,62.35,0,1,0,59.42,15.63Z"/><path class="cls-4" d="M693.59,258.05,497,290.62a62.06,62.06,0,0,1-71.37-51.08l-1.37-8.23A58.53,58.53,0,0,1,472.42,164l129.64-21.48a71.41,71.41,0,0,1,82.13,58.78Z"/><polygon class="cls-8" points="640.38 302.47 550.16 317.41 561.8 387.62 650.37 362.79 640.38 302.47"/><path class="cls-8" d="M636.74,178.24,495.33,213.32,490.24,280c-.85,10.92-1.62,21.85-2.47,32.77-.62,7.82-.86,10.29-1.19,15.75-.41,6.6-1.5,13.2,1.26,19.47a31.63,31.63,0,0,0,8.73,11.23l.27.22c7.12,6,16,7.92,25.06,8.18,6.07.18,14.48.28,24.84,0h93.77Z"/><line class="cls-5" x1="576.06" y1="264.24" x2="621.38" y2="253.26"/><path class="cls-4" d="M561,383l33.18-19a.69.69,0,0,0-.44-1.29l-35.28,4.88Z"/><path class="cls-5" d="M584.16,325.37l56.35-21.72"/><ellipse class="cls-4" cx="698.46" cy="140.79" rx="48" ry="46.92" transform="translate(179.12 628.6) rotate(-54.6)"/><path class="cls-4" d="M669.73,255.2H624.61A31.25,31.25,0,0,1,593.36,224V176h48.71a27.67,27.67,0,0,1,27.66,27.66Z"/><line class="cls-9" x1="572.96" y1="574.66" x2="554.14" y2="688.82"/><path class="cls-7" d="M724.34,274.08s-21.72,4.82-31.76,34.38"/><polygon class="cls-6" points="561.8 387.62 565.87 412.21 656.08 397.26 650.37 362.79 561.8 387.62"/><path class="cls-8" d="M312.33,417.08l.05-.05,0,0q-39.62-27.57-78.27-56.5c-6.35-4.75-12.86-9.62-20.47-11.85-2.72-.8-6.07-1.08-8,1-2.51,2.68-.79,7,1.22,10.12,5.4,8.28,12.22,15.65,16.75,24.43s6.46,19.79,1.6,28.39c-5.13,9.08-16.88,13-27.13,11.1-21.26-4-30.51-24.73-40.81-41.2-2.21-3.54-5.39-10.08-10.38-9.84-2.51.12-4.44,2.17-5.59,3.72-2-.62-5.94-1.49-8.83.56-3.41,2.4-3.43,7.47-3.44,13a55.69,55.69,0,0,0,1.58,12c.55,2.7,1.13,4.93,1.58,6.51a6.23,6.23,0,0,0-3.69,2.05c-.63.79-1.88,2.89-.42,8,4.86,16.94,17.65,29.4,17.65,29.4a116.89,116.89,0,0,0,31.67,22.77c28.44,13.9,56.12,13.52,70.65,13.17,2-.05,3.64-.12,4.76-.18,2.66-2.87,4.74-5.14,5.85-6.35C283.82,449.86,312.25,417.18,312.33,417.08Z"/><path class="cls-5" d="M141.34,376.34s2.86,50.49,44.4,66.15"/><line class="cls-5" x1="481.68" y1="502.2" x2="475.12" y2="588.14"/><path class="cls-5" d="M446.53,551.56A89.69,89.69,0,0,0,407.19,496"/><path class="cls-5" d="M130.83,408.43A82.44,82.44,0,0,0,153,440.61a77,77,0,0,0,9.25,7"/><path class="cls-3" d="M571.46,263.39,490.24,280l-4.44,58.25c0,16.22,16.16,29.37,36.1,29.37h24.84l36-38.94a4.36,4.36,0,0,0,1.12-3.5l-7.27-58A4.35,4.35,0,0,0,571.46,263.39Z"/><line class="cls-5" x1="487.7" y1="313.34" x2="543.11" y2="298.16"/><line class="cls-5" x1="340.87" y1="433.87" x2="266.49" y2="519.18"/><line class="cls-5" x1="485.8" y1="338.22" x2="560.35" y2="315.1"/><line class="cls-5" x1="589.59" y1="379.83" x2="597.32" y2="403.48"/><line class="cls-5" x1="610.41" y1="373.99" x2="617.92" y2="397.44"/><circle class="cls-8" cx="639.21" cy="275.06" r="29.57"/><circle class="cls-5" cx="636.74" cy="278.88" r="8.51"/><path class="cls-5" d="M647.36,262.45s-15.65,2.22-18.22,12.61"/><path class="cls-3" d="M904.51,906.85H646.94a48.22,48.22,0,0,1-48.22-48.22V584.85a13.47,13.47,0,0,1,13.47-13.48H939.25a13.48,13.48,0,0,1,13.48,13.48V858.63A48.22,48.22,0,0,1,904.51,906.85Z"/><rect class="cls-1" x="767.16" y="638.51" width="111.89" height="75.02" rx="11.39"/><circle class="cls-1" cx="829.67" cy="784.65" r="59.37"/><line class="cls-5" x1="943.54" y1="610.16" x2="609.33" y2="610.16"/><path class="cls-1" d="M648.6,775.52s15,63.93,97.72,63.93C746.32,839.45,723,782.25,648.6,775.52Z"/><path class="cls-1" d="M756.18,668.74S695.54,694,708.94,775.52C708.94,775.52,761.59,743.2,756.18,668.74Z"/><path class="cls-5" d="M631.27,886.76a596.52,596.52,0,0,1,289.2,0"/><line class="cls-10" x1="710.06" y1="772.95" x2="753.49" y2="673.33"/><circle class="cls-11" cx="829.67" cy="784.65" r="37.34"/><line class="cls-10" x1="744.77" y1="838.43" x2="650.38" y2="776.69"/><path class="cls-3" d="M451,598.81c-1.39-4.35-4.24-8.44-7-12.2l-25.72-35c-6.89-9.39-14.52-19.32-25.62-22.85-11.48-3.65-25.78.41-33.63,9.52a36.66,36.66,0,0,0-7.81,15.45c-.32,1.35-1.64,17,.09,16.75a32.61,32.61,0,0,0-19.69,53.32c7.78,9.15,19.8,13.25,31.22,17L396,651.53c5.74,1.87,12,3.74,17.69,1.89,5.44-1.76,9.29-6.49,12.82-11L444.91,619c3-3.86,6.17-8,6.84-12.82A16.11,16.11,0,0,0,451,598.81Z"/><path class="cls-5" d="M336.79,538.41s-2.22,21.34,14.53,32.09"/><path class="cls-8" d="M536,617.68l-108.3-54.27c-5.84-2.93-11.72-5.87-18-7.69-4.32-1.26-10-1.46-12.26,2.44-1.39,2.42-.77,5.6.8,7.9s3.93,3.94,6.24,5.52L432,590.45c3.95,2.7,8,5.5,10.69,9.46s3.77,9.4,1.38,13.55c-2.92,5.09-9.56,6.4-15.39,7a300.24,300.24,0,0,1-81.87-2.56c-3-.5-6-1-9-.6s-6,2.12-7.14,4.89c-2.2,5.17,2.57,10.49,7,13.94-3.75,3.76-2.52,10.51,1.21,14.29s9.14,5.29,14.31,6.48c-3.87.7-5.67,5.72-4.31,9.41,2.57,7,11.7,10.67,17.92,13.45,3.87,1.72,7.79,3.34,11.76,4.83a224,224,0,0,0,24.24,7.62,228.31,228.31,0,0,0,50.3,6.87,222.26,222.26,0,0,0,58.47-6.33c2.17-.54,4.45-1.18,6-2.82a11.86,11.86,0,0,0,2.3-5.38Z"/><path class="cls-6" d="M538.33,554.91l-24.05,143,207.52,40.4,8.92.75c56.15-1.68,103.28-43.63,112.13-99.46q4.53-34.12,9-68.25C747.93,565.88,642.3,560.4,538.33,554.91Z"/><path class="cls-5" d="M337.73,636.15a458.13,458.13,0,0,0,55.21,8.18c10.83.93,21.2,1.43,31.05,1.61"/><path class="cls-5" d="M353.27,657.71A216.23,216.23,0,0,0,424,666.53"/><path class="cls-3" d="M788.7,347.09l-48.19,9.41s-2.58,1.84-2.8,2a70.75,70.75,0,0,0-7.32,6.63c-22.39,23-35.07,80.38-35.07,80.38-4.21,18-6.87,31.79-9.91,48-6,31.84-10.57,57.92-13.62,75.56a91.25,91.25,0,0,1,37.2-2c5.41-26.38,9.19-46.65,11.68-60.6,2.62-14.68,5.94-33.74,12.85-59.62.56-2.08,1-3.62,1.34-4.89,0,0,15.29-55.41,40.74-83.76a62.7,62.7,0,0,1,6.11-6S783.45,350.83,788.7,347.09Z"/><path class="cls-5" d="M761.23,592.65c-57.59-50.3-113.72-13.85-113.72-13.85C592.83,527.77,536,568.6,536,568.6L514.28,697l83.62,17"/><line class="cls-5" x1="575.57" y1="571.37" x2="555.19" y2="682.7"/></svg>