<svg id="Illustrations" xmlns="http://www.w3.org/2000/svg" viewBox="0 0 1000 1000"><defs><style>.cls-1{fill:#bd4632;}.cls-2,.cls-8{fill:none;stroke-linecap:round;stroke-miterlimit:10;stroke-width:5px;}.cls-2{stroke:#3b1534;}.cls-3{fill:#f2eada;}.cls-4{fill:#ffb6db;}.cls-5{fill:#3b1534;}.cls-6{fill:#f985bf;}.cls-7{fill:#77c8d6;}.cls-8{stroke:#f2eada;}</style></defs><path class="cls-1" d="M965.1,839.38H40.43v-194a48.88,48.88,0,0,1,48.89-48.89H916.21a48.89,48.89,0,0,1,48.89,48.89Z"/><path class="cls-2" d="M107,599.15a50,50,0,0,1,10.15,7c25.31,22.47,22.92,65.58,22.25,74.68L137,835.32"/><path class="cls-3" d="M965.1,573.31H40.43V324.22a25.14,25.14,0,0,1,25.14-25.14H940a25.15,25.15,0,0,1,25.15,25.14Z"/><rect class="cls-4" x="40.43" y="470.98" width="192.91" height="102.33"/><rect class="cls-5" x="233.34" y="514.7" width="102.98" height="58.62"/><rect class="cls-6" x="745.47" y="499.67" width="219.63" height="73.65"/><rect class="cls-4" x="464.05" y="436.2" width="281.42" height="137.12"/><rect class="cls-7" x="40.43" y="522.15" width="145.51" height="51.17"/><rect class="cls-5" x="40.43" y="522.15" width="145.51" height="21.86"/><rect class="cls-7" x="249.79" y="553.39" width="68.4" height="19.93"/><rect class="cls-7" x="745.47" y="538.82" width="219.63" height="34.49"/><rect class="cls-3" x="488.86" y="477.78" width="231.8" height="95.78"/><line class="cls-2" x1="107.88" y1="530.24" x2="107.88" y2="570.35"/><line class="cls-2" x1="565.31" y1="499.67" x2="565.31" y2="573.31"/><line class="cls-8" x1="233.34" y1="535.67" x2="334.58" y2="535.67"/><rect class="cls-5" x="488.86" y="477.78" width="230.9" height="21.88"/><line class="cls-2" x1="636.74" y1="499.67" x2="636.74" y2="573.31"/><line class="cls-2" x1="794.54" y1="541.07" x2="794.54" y2="570.69"/><line class="cls-2" x1="855.23" y1="541.07" x2="855.23" y2="570.69"/><line class="cls-2" x1="915.92" y1="541.07" x2="915.92" y2="570.69"/><path class="cls-5" d="M567.66,448.89l-22.55-5.58,30.43-123.14,22.51,5.56a24.61,24.61,0,0,1,18,29.79l-18.64,75.42A24.57,24.57,0,0,1,567.66,448.89Z"/><polygon class="cls-6" points="559.63 477.79 461.01 477.79 455.57 516.47 552.46 518.26 559.63 477.79"/><path class="cls-5" d="M393.41,544h-3.88A113.5,113.5,0,0,0,276,657.51V839.38H456.75V612Z"/><path class="cls-7" d="M592.56,544H393.41l63.34,68V839.38h71.81V612Q560.56,578,592.56,544Z"/><path class="cls-5" d="M745.47,657.51A113.5,113.5,0,0,0,632,544h-39.4q-32,34-64,68V839.38H745.47Z"/><path class="cls-3" d="M622.32,581.47l-40.08,48.86a16.87,16.87,0,0,1-22.64,3.17l-31-21.47,64-68,24,11.55A16.88,16.88,0,0,1,622.32,581.47Z"/><path class="cls-3" d="M362.44,582.9l37.74,46a18.38,18.38,0,0,0,24.09,3.84L456.75,612l-63.34-68-24.05,10.37A18.37,18.37,0,0,0,362.44,582.9Z"/><rect class="cls-5" x="764.27" y="192.66" width="19.87" height="82.66"/><rect class="cls-5" x="233.34" y="192.66" width="19.87" height="82.66"/><path class="cls-4" d="M305.31,353.89l-45-77.93a19.69,19.69,0,0,0-34.1,0l-45,77.93a19.69,19.69,0,0,0,17.05,29.53h90A19.69,19.69,0,0,0,305.31,353.89ZM281.7,366.38H204.84a8.57,8.57,0,0,1-7.43-12.86L235.84,287a8.58,8.58,0,0,1,14.86,0l38.43,66.56A8.57,8.57,0,0,1,281.7,366.38Z"/><rect class="cls-5" x="498.8" y="192.66" width="19.87" height="82.66"/><path class="cls-4" d="M570.77,353.89l-45-77.93a19.68,19.68,0,0,0-34.09,0l-45,77.93a19.69,19.69,0,0,0,17.05,29.53h90A19.68,19.68,0,0,0,570.77,353.89Zm-23.6,12.49H470.31a8.57,8.57,0,0,1-7.43-12.86L501.31,287a8.58,8.58,0,0,1,14.86,0l38.42,66.56A8.57,8.57,0,0,1,547.17,366.38Z"/><path class="cls-4" d="M836.24,353.89l-45-77.93a19.68,19.68,0,0,0-34.09,0l-45,77.93a19.68,19.68,0,0,0,17,29.53h90A19.68,19.68,0,0,0,836.24,353.89Zm-23.6,12.49H735.78a8.57,8.57,0,0,1-7.43-12.86L766.78,287a8.57,8.57,0,0,1,14.85,0l38.43,66.56A8.57,8.57,0,0,1,812.64,366.38Z"/><line class="cls-2" x1="40.84" y1="192.66" x2="959.06" y2="192.66"/><path class="cls-6" d="M590.89,316.46l-142.52-6.91A42.26,42.26,0,0,0,405,342.79L393.89,394h0l119.94,18.15-11.36,53-43.72,28.72h0l96.64,5.81Z"/><polygon class="cls-7" points="455.57 516.47 451.7 544.01 547.89 544.01 552.46 518.26 455.57 516.47"/><line class="cls-2" x1="487.55" y1="517.06" x2="484.41" y2="536.49"/><line class="cls-2" x1="510.5" y1="518.44" x2="507.37" y2="537.87"/><path class="cls-5" d="M589.45,411.51l-60-5.9a85.84,85.84,0,0,1-77-93.84l.9-9.15,145.39,14.31Z"/><path class="cls-5" d="M574.53,305.82a43.12,43.12,0,0,0-4.85.28l-96.29-6.75a52.58,52.58,0,1,0-8.94,55.43l68.63,4.81a42.86,42.86,0,1,0,41.45-53.77Z"/><line class="cls-2" x1="513.83" y1="412.16" x2="555.83" y2="399.92"/><circle class="cls-6" cx="568.92" cy="426.34" r="29.48"/><line class="cls-2" x1="502.47" y1="465.14" x2="565.33" y2="455.6"/><circle class="cls-2" cx="567.68" cy="429.92" r="9.98"/><path class="cls-2" d="M580.13,410.66s-18.35,2.6-21.36,14.78"/><path class="cls-7" d="M502.47,465.14l11.36-53L393.89,394h0l-12.44,57.26A32.84,32.84,0,0,0,411.58,491l47.17,2.83h0Z"/><line class="cls-8" x1="389.17" y1="415.74" x2="467.66" y2="429.28"/><line class="cls-8" x1="383.96" y1="439.72" x2="433.1" y2="446.8"/><rect class="cls-7" x="291.33" y="631.16" width="96.57" height="155" rx="10.72"/><path class="cls-6" d="M303.55,735.15c-4.38-2.4-7-7.45-10.37-24.08-1.74-8.61-1.58-7.84-2.63-15.22-1.43-10.06-4.86-22.91-12.63-30.07-4.09-3.77-9.4-4.71-14.37-1.94-6.53,3.64-7.47,12.54-7.51,19.27a72.58,72.58,0,0,0,1.19,12.9q2,15.54,3.06,31.19c1.16,16.95-3,34.2-4.24,51.06-1.57,21.66-.4,38.46,10,49.54,18.45,19.69,57.87,8.36,71.85,4.34,15.93-4.58,48.23-13.87,59.67-43,5.3-13.51,4.19-26.37,2.69-34.32a38.65,38.65,0,0,0,7.56-13c5.21-15.28-1.2-29-2.91-32.38a27.08,27.08,0,0,0-.8-15.53c-4.16-11.38-14.81-15.57-16.52-16.2h0s.77,8.9-1.46,14.7c-1.23,3.19-4.05,7.21-11.1,10.68l-52.6,29.39c-1,.57-2,1.18-3,1.79a16.58,16.58,0,0,1-9.76,2.59A15.13,15.13,0,0,1,303.55,735.15Z"/><path class="cls-2" d="M406.76,711.22l-29.84,21.7"/><path class="cls-2" d="M403.7,755,381.94,770.1"/><rect class="cls-8" x="359.03" y="650.22" width="14.69" height="35.55" rx="6.34"/><path class="cls-5" d="M458.75,493.86l53.72,1.4a2.7,2.7,0,0,1,.53,5.34l-57,13.06Z"/></svg>