<svg id="Illustrations" xmlns="http://www.w3.org/2000/svg" viewBox="0 0 1000 1000"><defs><style>.cls-1{fill:#bd4632;}.cls-2{fill:#f985bf;}.cls-10,.cls-3,.cls-8,.cls-9{fill:none;stroke-linecap:round;stroke-miterlimit:10;stroke-width:5px;}.cls-3{stroke:#3b1534;}.cls-4{fill:#f2eada;}.cls-5{fill:#3b1534;}.cls-6{fill:#ffb6db;}.cls-7{fill:#77c8d6;}.cls-8{stroke:#77c8d6;}.cls-9{stroke:#f2eada;}.cls-10{stroke:#ffacd2;}</style></defs><path class="cls-1" d="M556.36,370.58l-32.9,2.16L511.62,192.61l90.7-6,8,122.33A57.93,57.93,0,0,1,556.36,370.58Z"/><path class="cls-1" d="M913.58,293.4c-38-36.56-86.3-50.86-120-38.58,2-33.63-28.94-71-76.16-88.63-54.09-20.17-109-6.78-122.72,29.91s19.06,82.8,73.15,103c31.89,11.89,64.08,12.11,87.94,2.77-5.21,33,11.26,75.09,45.55,108.1,47.43,45.67,111,56.6,142,24.42S961,339.07,913.58,293.4Z"/><path class="cls-2" d="M546.83,206.32l-174.59,7-5.08,91.86q-1.35,24.52-2.71,49A45.07,45.07,0,0,0,367.32,373,41,41,0,0,0,378,388.65c.41.37.82.73,1.24,1.08a41.29,41.29,0,0,0,33.37,8.75l39.12-6.54,124.53-20.83Z"/><path class="cls-1" d="M604.2,225.86l-1.81-27.57a59,59,0,0,0-62.72-55l-144.5,9.5a33.81,33.81,0,0,0-31.51,35.95l1.25,19a33.79,33.79,0,0,0,35.94,31.51l103-6.76A30.77,30.77,0,0,0,537.4,258.7l58.87-6-2.66-26.16Z"/><line class="cls-3" x1="471.36" y1="282.73" x2="556.62" y2="250.96"/><polygon class="cls-2" points="564.16 314.5 444.38 353.82 468.1 426.08 585.16 378.47 564.16 314.5"/><line class="cls-3" x1="495.43" y1="339.13" x2="570.69" y2="308.33"/><circle class="cls-2" cx="563.05" cy="279.69" r="32.7"/><path class="cls-4" d="M471.31,279.28,367.16,305.16l-2.9,52.46a41.94,41.94,0,0,0,41.94,41.93l45.52-7.61L497,342.76a8.7,8.7,0,0,0,1.81-8.77L481.6,284.84A8.69,8.69,0,0,0,471.31,279.28Z"/><path class="cls-5" d="M714.1,399.74c-30.46,3.9-61.26,6.46-92,6.34-13-.05-28.81-2.79-33.47-17h0l-3.49-10.62L468.1,426.08l9,27.51L433.21,575.51c-12.3,34.15-14.76,71.22-6.12,106.48,5.87,23.92,17.16,48.8,38.28,67.18l329-8.08Z"/><circle class="cls-5" cx="192.58" cy="253.43" r="109.26"/><path class="cls-5" d="M192.57,658.66V561.25h69.35v28.5h45.53V541.94A28.45,28.45,0,0,0,279,513.49H192.57V475.91H267.9a10.09,10.09,0,1,0,0-20.18H140.79V658.66H82.53a42.62,42.62,0,0,0-42.61,42.62v94.88a30.5,30.5,0,0,0,30.49,30.5H506.55v-168Z"/><path class="cls-6" d="M344.16,801.29H96.2a17.74,17.74,0,0,1-17.74-17.74V699.26A17.74,17.74,0,0,1,96.2,681.52h248Z"/><rect class="cls-7" x="261.58" y="589.75" width="45.86" height="110.08"/><circle class="cls-4" cx="377.47" cy="537.37" r="33.68"/><circle class="cls-4" cx="556.46" cy="637.69" r="19.79"/><circle class="cls-4" cx="202.99" cy="749.17" r="24.64"/><circle class="cls-4" cx="115.64" cy="223.09" r="5.49"/><circle class="cls-4" cx="111.04" cy="250.92" r="5.49"/><path class="cls-7" d="M145.94,195.93a4.56,4.56,0,0,0-3.63,5.32l2.6,13.83a4.55,4.55,0,0,0,5.31,3.64l20.77-3.9-4.63-22.72Z"/><circle class="cls-4" cx="138.4" cy="245.43" r="5.49"/><line class="cls-3" x1="276.47" y1="589.75" x2="276.47" y2="652.24"/><line class="cls-3" x1="291.48" y1="565.52" x2="291.48" y2="628"/><circle class="cls-5" cx="155.51" cy="205.45" r="4.18"/><path class="cls-4" d="M221.52,320.72l-20.62,3.39a39.35,39.35,0,0,1-45.21-32.45l-2.33-14.2a42.34,42.34,0,0,1,34.92-48.65L203,226.4a42.34,42.34,0,0,1,48.64,34.92l2.33,14.2A39.35,39.35,0,0,1,221.52,320.72Z"/><path class="cls-8" d="M179.5,309.64a62.49,62.49,0,0,1,60.78-9.73"/><polygon class="cls-6" points="207.68 232 182.36 237.44 168.01 215.37 210.22 207.42 207.68 232"/><path class="cls-6" d="M240.76,198.64l-25-13.84a8.53,8.53,0,0,0-5.69-.92l-43.72,8.22L171,214.82l69.26-13A1.7,1.7,0,0,0,240.76,198.64Z"/><path class="cls-4" d="M541.77,727.1A45.73,45.73,0,0,0,502,681.77a45.72,45.72,0,0,0-76-28.48,45.72,45.72,0,0,0-76.34,34c0,.33,0,.66,0,1a45.71,45.71,0,0,0-18.56,80.83,45.72,45.72,0,0,0,41.4,65.12,45.92,45.92,0,0,0,13.75-2.1,45.73,45.73,0,0,0,81.8-1.08,45.72,45.72,0,0,0,55.24-67.2A45.67,45.67,0,0,0,541.77,727.1Z"/><path class="cls-4" d="M373.06,732.32a26.54,26.54,0,0,0-1.25-35,26.54,26.54,0,0,0-23.73-40.72,26.54,26.54,0,0,0-46.8-12.75l-.35.46a26.54,26.54,0,0,0-38,29.54,26.56,26.56,0,0,0,1.67,48.59A26.55,26.55,0,0,0,301.77,752a26.54,26.54,0,0,0,49.52-10A26.49,26.49,0,0,0,373.06,732.32Z"/><path class="cls-2" d="M915.46,728.63,799.88,448.52l0,0a75.43,75.43,0,0,0-74.28-50.05c-34.63,1.45-62.85,26.81-69.51,60.58-3.79,19.24.45,35.61,7.82,53.27q52.83,126.57,105,253.4l11.39,27.62a70.71,70.71,0,0,0,92.34,38.39A79,79,0,0,0,915.46,728.63Z"/><circle class="cls-5" cx="823" cy="420.15" r="109.26"/><path class="cls-2" d="M851.52,836.87c-1.15,0-3,.13-5.27.21-55.86,2.1-92.57-2.83-162.43-9.15-14.52-1.31-36.83-3.26-64.48-5.37q6.18-55.54,12.37-111.1l123-4.61c62.42,0,109.72,56.33,98.92,117.81Z"/><path class="cls-2" d="M631.71,711.46c.06-.83-3.72-2.7-4.38-3.12-3.81-2.41-8-3.57-12.27-4.77-3.58-1-7.18-1.92-10.8-2.77-9.09-2.16-18.25-4-27.44-5.65-10.14-1.81-20.33-3.36-30.56-4.54a257.77,257.77,0,0,0-28-2c-1.06,0-2.12,0-3.17,0l-1.9,0A108.92,108.92,0,0,0,495,690.37c-16.38,3.25-17.91,19.27-2,24.83,19.83,6.94,39.89,7.68,39.89,7.77a14.55,14.55,0,0,1-2.8-.09c-6.67-.62-91.85-9.53-125.64-6-3.52.37-9.9,1.23-12.71,5.87s-.74,10.51.43,13.33c-6-.81-11.57,1.31-14.57,5.58a13.78,13.78,0,0,0-2.18,9c.84,6.89,7.64,12.92,17,14.91-1.67,2.68-4.77,8.5-2.81,14,2.09,5.81,8.9,8.38,16.48,10.32,30.79,7.86,65.06,6.66,58.23,6.91s-9.91,9.7-6.62,15.62,11.08,9.16,16.72,10.58c27.54,7,55.26,7.45,73.27,7.67,28.34.35,47.54-2.76,62.59-5.18,5.84-.94,10.72-1.85,14.23-2.55,1.54-27.65,5.37-95.61,6-100.82.28-2.46.78-6.9.78-6.9Z"/><line class="cls-3" x1="460.73" y1="796.52" x2="512.73" y2="796.52"/><line class="cls-3" x1="392.42" y1="764.73" x2="494.31" y2="769.71"/><line class="cls-3" x1="392.42" y1="738.6" x2="494.31" y2="743.59"/><circle class="cls-4" cx="740.61" cy="427.4" r="10.79"/><circle class="cls-4" cx="896.41" cy="410.84" r="11.6"/><path class="cls-4" d="M822.67,360.3c0-8.88-6.9-16.08-15.41-16.08a15.06,15.06,0,0,0-4.37.66,15.22,15.22,0,0,0-29.41.51,14.78,14.78,0,0,0-5.76-1.17c-8.51,0-15.41,7.2-15.41,16.08a16.42,16.42,0,0,0,4.51,11.37,16.5,16.5,0,0,0-2.42,8.62c0,8.88,6.9,16.08,15.41,16.08a14.83,14.83,0,0,0,4.13-.6,15.2,15.2,0,0,0,29-1.12,14.84,14.84,0,0,0,4.29.64c8.51,0,15.41-7.2,15.41-16.08a16.4,16.4,0,0,0-3-9.45A16.45,16.45,0,0,0,822.67,360.3Z"/><path class="cls-4" d="M848.71,506.63c8.43-2.77,13.27-11.12,10.8-18.64a12.73,12.73,0,0,0-1.9-3.66c5.52-3.79,8.25-10.35,6.27-16.39s-8.4-9.89-15.29-9.46A12.77,12.77,0,0,0,848,453c-2.47-7.52-11.31-11.37-19.75-8.6a17.08,17.08,0,0,0-9.49,7.53,17.44,17.44,0,0,0-8.9.55c-8.43,2.77-13.27,11.12-10.8,18.64a12.63,12.63,0,0,0,1.77,3.47c-5,3.85-7.4,10.08-5.51,15.83,2,6.11,8.22,9.8,15,9.48a12.87,12.87,0,0,0,.64,4c2.47,7.52,11.31,11.38,19.75,8.61a17.41,17.41,0,0,0,8.12-5.57A17.4,17.4,0,0,0,848.71,506.63Z"/><line class="cls-3" x1="824.05" y1="703.14" x2="743.12" y2="705.61"/><line class="cls-8" x1="367.91" y1="330.25" x2="458.83" y2="304.19"/><line class="cls-8" x1="366.51" y1="360.02" x2="434.5" y2="340.6"/><circle class="cls-3" cx="563.53" cy="282.73" r="9.36"/><path class="cls-3" d="M574.61,266s-17.22,2.44-20.05,13.87"/><path class="cls-7" d="M820.59,483.22l-52.92-14a17.48,17.48,0,0,1-11.58-23.82l33.84-78.33a17.48,17.48,0,0,1,20.51-10l52.92,14a17.49,17.49,0,0,1,11.58,23.83L841.1,473.25A17.48,17.48,0,0,1,820.59,483.22Z"/><path class="cls-3" d="M817.48,461.36l-32-8.48c-6.25-1.66-9.39-9.15-6.63-15.83l22.05-53.35c2.23-5.4,7.63-8.41,12.69-7.07l32,8.47c6.25,1.66,9.4,9.16,6.63,15.84l-22.05,53.34C827.94,459.69,822.54,462.7,817.48,461.36Z"/><line class="cls-3" x1="209.12" y1="207.65" x2="169.64" y2="215.07"/><line class="cls-9" x1="524.17" y1="446.63" x2="507.87" y2="411.79"/><line class="cls-9" x1="557.15" y1="433.26" x2="540.85" y2="398.42"/><path class="cls-5" d="M456.62,391.12,521,375.64a1.61,1.61,0,0,1,1.16,3l-58.9,32.62Z"/><path class="cls-3" d="M792.79,255.21a47.41,47.41,0,0,0-10.54,7,46.79,46.79,0,0,0-9.6,11.79"/><path class="cls-3" d="M598.07,186.93a65,65,0,0,1,5.28,14.83,65.78,65.78,0,0,1,.85,24.1"/><path class="cls-10" d="M263.31,587.71l.36-.43a26.44,26.44,0,0,1,41.48.43h0"/><line class="cls-10" x1="190.77" y1="475.91" x2="142.54" y2="475.91"/><path class="cls-8" d="M359.7,658.66s25.58,11.09,12.11,38.68a27.29,27.29,0,0,1,5.35,26.71c-3.72,10.61-14.1,17.89-25.87,18a23.13,23.13,0,0,1-4.27,12c-6.85,9.72-18.08,11.21-20,11.41"/><line class="cls-3" x1="506.7" y1="720.55" x2="549.06" y2="723.43"/></svg>