<svg id="Illustrations" xmlns="http://www.w3.org/2000/svg" viewBox="0 0 1000 1000"><defs><style>.cls-1{fill:#bd4632;}.cls-10,.cls-2,.cls-4,.cls-7{fill:none;stroke-linecap:round;stroke-miterlimit:10;stroke-width:5px;}.cls-2{stroke:#3b1534;}.cls-3{fill:#f2eada;}.cls-4{stroke:#77c8d6;}.cls-5{fill:#3b1534;}.cls-6{fill:#77c8d6;}.cls-7{stroke:#f2eada;}.cls-8{fill:#ffb6db;}.cls-9{fill:#f985bf;}.cls-10{stroke:#ffacd2;}</style></defs><path class="cls-1" d="M871.65,473.68a84.61,84.61,0,0,0,1.4-15.21c0-44.63-35-80.81-78.07-80.81s-78.07,36.18-78.07,80.81c0,38.82,26.46,71.24,61.72,79a100.76,100.76,0,0,0-5.88,34c0,54.1,42.37,98,94.63,98s94.63-43.86,94.63-98C962,518.91,921.93,476,871.65,473.68Z"/><path class="cls-2" d="M871.52,474.41a92.59,92.59,0,0,0-50.65,11.8"/><rect class="cls-3" x="224.34" y="363.91" width="152.81" height="263.7"/><rect class="cls-4" x="37.93" y="202.19" width="547.94" height="426.74" rx="32.86"/><path class="cls-1" d="M370.62,310.58l-94.94-19.77-11.79,56.6,95.53,16.89Z"/><path class="cls-5" d="M311.21,309.11,262.58,299a31.88,31.88,0,0,1-24.71-37.72l20.58-98.79a53.45,53.45,0,0,1,63.22-41.42l27.52,5.74Z"/><path class="cls-1" d="M388.46,355.73,267.62,334l31.56-175.29,153.64,27.66-25.66,142.5A33.33,33.33,0,0,1,388.46,355.73Z"/><circle class="cls-1" cx="278.48" cy="248.75" r="29.2"/><path class="cls-5" d="M470.42,136.78a42.29,42.29,0,0,0-20.55,4.49,30.66,30.66,0,0,0-57.7-5.49l-54-11.25-16.64-3.36a26.52,26.52,0,0,0-31.15,20.25l-.05.25-16,77L286,221.09A44,44,0,0,0,338,187l.45-2.13,34.55,7.2c2.34,14.06,18.09,27,39,30.79,14.63,2.64,28.48.16,37.9-5.81a42.38,42.38,0,1,0,20.5-80.25Z"/><circle class="cls-2" cx="280.6" cy="251.11" r="9.68"/><path class="cls-2" d="M268.52,232.43s17.8,2.52,20.72,14.34"/><circle class="cls-5" cx="297.14" cy="447.9" r="6.86"/><path class="cls-6" d="M179.82,363.91c-59.06,0-106.93,47.23-106.93,105.49V627.61H224.34V363.91Z"/><path class="cls-6" d="M518.33,469.4c0-58.26-47.87-105.49-106.93-105.49H377.15v263.7H518.33Z"/><path class="cls-3" d="M263.89,347.41l-3.31,15.88,94.94,19.77,3.9-18.76Z"/><path class="cls-2" d="M359.79,362.55l-6.68,32.76-36-8.3q-1-10.89-2.08-21.77L301.1,383.06l-42.39-11.82,4.09-18.57"/><path class="cls-7" d="M162.44,367.17s-5.25,67.53,30.47,111L181.58,495.4A28.68,28.68,0,0,0,181,526l43.38,72.16"/><path class="cls-7" d="M439.71,369.23s5.26,67.53-30.47,111l11.34,17.23a28.7,28.7,0,0,1,.61,30.56l-43.38,72.17"/><circle class="cls-8" cx="384.83" cy="499.64" r="25.41"/><path class="cls-2" d="M260.58,573.64c-15-20.53-32.37-51.2-25.75-77.46,6.9-27.35,34.1-26.65,52.52-11.54,17,13.92,26.84,35.59,34.07,55.77"/><path class="cls-2" d="M248,477.36c-15.47-33.83-20.79-74-12.26-110.44,4.45-19,16-34.93,33.3-44"/><path class="cls-2" d="M389.16,474.61s4.93-69.64-12-117.57"/><circle class="cls-5" cx="377.15" cy="309.11" r="16.94"/><path class="cls-5" d="M362.2,351l-59-10.62a1.08,1.08,0,0,0-.58,2.07l56.82,21.85Z"/><path class="cls-1" d="M787.75,391.63l-10-85.87a74.55,74.55,0,0,0-82.64-65.47L602.54,251a48.42,48.42,0,0,0-40.8,34.16,38,38,0,0,0-33.2,39.56L531.16,379A38,38,0,0,0,571,415.2l1.82-.09.9,7.72a64.43,64.43,0,0,0,71.42,56.58l80.47-9.33A70.76,70.76,0,0,0,787.75,391.63Z"/><path class="cls-9" d="M715.78,483.72l-101.36,8.86a40.82,40.82,0,0,1-44.22-37.11L560,338.85A31.24,31.24,0,0,1,588.41,305l110.91-9.69Z"/><path class="cls-5" d="M795.49,863.07H503.81a51.37,51.37,0,0,1-51.37-51.37V610.24a93.87,93.87,0,0,1,93.87-93.87h227.2a93.87,93.87,0,0,1,93.87,93.87V791.18A71.89,71.89,0,0,1,795.49,863.07Z"/><circle class="cls-9" cx="722.67" cy="392.66" r="28.11"/><rect class="cls-9" x="626.3" y="465.38" width="91.35" height="73.59" transform="translate(-41.16 60.4) rotate(-4.99)"/><ellipse class="cls-5" cx="625.21" cy="447.36" rx="14.15" ry="15.37"/><path class="cls-1" d="M755.85,367.76l-76,8.81A63.23,63.23,0,0,1,609.79,321L606,288.36l138.78-16.09Z"/><path class="cls-5" d="M625.24,492l40.21-7.41a1.79,1.79,0,0,1,1.2,3.33L626.81,510Z"/><circle class="cls-2" cx="721.51" cy="400.05" r="9.31"/><path class="cls-2" d="M733.13,382.08s-17.12,2.43-19.93,13.8"/><rect class="cls-3" x="651.71" y="435.8" width="152.25" height="77.22" rx="7.84" transform="translate(73.32 1045.74) rotate(-74.21)"/><rect class="cls-4" x="740.09" y="433" width="33.55" height="13.87" rx="6.34" transform="translate(127.64 1048.58) rotate(-74.21)"/><path class="cls-3" d="M900.15,266.72a26.73,26.73,0,0,0-12.93-35.52h0a26.74,26.74,0,0,0-35.52,12.94l-15,32.09,48.45,22.58Z"/><path class="cls-8" d="M870.24,330.9l15-32.09-48.45-22.58-15,32.1a26.72,26.72,0,0,0,12.94,35.51h0A26.72,26.72,0,0,0,870.24,330.9Z"/><circle class="cls-3" cx="295.13" cy="779.24" r="31.52"/><line class="cls-4" x1="308.27" y1="754.28" x2="281.99" y2="804.2"/><circle class="cls-5" cx="297.14" cy="536.62" r="6.86"/><circle class="cls-8" cx="321.42" cy="554.47" r="14.06"/><circle class="cls-8" cx="270.24" cy="583.85" r="14.06"/><path class="cls-3" d="M178.15,612.46a26.74,26.74,0,0,0-34.87-14.61h0a26.72,26.72,0,0,0-14.6,34.86l13.41,32.77,49.47-20.26Z"/><path class="cls-6" d="M142.09,665.48l13.42,32.76A26.72,26.72,0,1,0,205,678l-13.41-32.77Z"/><rect class="cls-6" x="470.29" y="479.45" width="111.56" height="145.61" rx="27.43" transform="translate(-216.4 377.67) rotate(-33.16)"/><path class="cls-3" d="M518.68,474.75,455.23,516.2,448.58,506a6.56,6.56,0,0,1,1.91-9.09l52.44-34.27a6.56,6.56,0,0,1,9.09,1.91Z"/><rect class="cls-3" x="469.08" y="513.97" width="111.56" height="72.9" transform="translate(-215.59 376.72) rotate(-33.16)"/><line class="cls-2" x1="455.3" y1="495.7" x2="463.62" y2="508.43"/><line class="cls-2" x1="466.49" y1="488.38" x2="474.81" y2="501.12"/><line class="cls-2" x1="477.68" y1="481.07" x2="486" y2="493.81"/><line class="cls-2" x1="488.87" y1="473.76" x2="497.19" y2="486.5"/><line class="cls-2" x1="500.06" y1="466.45" x2="508.38" y2="479.19"/><path class="cls-9" d="M449,652.84c-2.41-34.25-4.89-101.19-9.34-134l-.22-1.62c-.32-2.35-.22-5.29,1-7.36,4.28-7,11.34,1.92,13.66,5.72a87.28,87.28,0,0,1,9.56,21.84c1.92,6.91,2.42,14.61,6.94,20.49a8.07,8.07,0,0,0,4.53,3.37c7.53,1.63,15.61-9.64,19.41-14.66,7.7-10.15,12.41-21.59,16.9-33.4,0,0,5.47-14.38,14-13.08,0,0,4.09.47,5.15,3.6,1.8-5.39,3.09-13.2,6.83-17.55,6.14-7.12,15.27-.2,16.08,7.08-.14-1.29,2.79-3.36,3.68-3.79,4.05-2,8,.69,10,4.23a27.55,27.55,0,0,1,3,9.55c.26,1.84,1.34,15.77-.3,16.15,0,0,10.5-2.45,8.88,17.66a137.28,137.28,0,0,1-4.61,21.49c-5.19,17.3-15.69,32.19-23.49,48.32-8.44,17.46-10.63,36.85-17.45,54.89Z"/><path class="cls-2" d="M530.7,503.7s1.49,30.83-15.92,55.53"/><path class="cls-2" d="M552.62,493.41s8.45,44-18.56,74.17"/><path class="cls-2" d="M569.48,518.38s-2.64,38-20.23,59.09"/><path class="cls-9" d="M796.84,586.28s-9.7-42.39-11.4-76.21a79.58,79.58,0,0,1,2.95-26.56c2.32-7.75,10.47-17.22,8.45-25.58a7.42,7.42,0,0,0-3.68-4.71c-4.52-2.06-10.7,3-13.26,5.12s-6.78,6.13-12.08,16.5c0,0-2.84,5.55-9.54,24a91.32,91.32,0,0,1-65.37-46.16,14.63,14.63,0,0,0-9,4.52c-5.38,5.89-3.15,13.94-3,14.43,0,0-12.71,6.47-7.37,20.21,0,0-8.9,9.43-1.31,21.28l6.19,9.19h0s.1,5.69.11,6.33c.26,11,10.16,28.57,12.91,33.29.63,1.08.88,1.49,1.34,2.26,5,8.38,11.25,21.32,17.09,41.44Z"/><path class="cls-2" d="M680.92,471.67s13.29,33.43,39.26,34.39"/><path class="cls-2" d="M673.55,491.88s12,33.41,42,34.06"/><path class="cls-2" d="M678.43,522.35a49.76,49.76,0,0,0,35.66,20.74"/><path class="cls-5" d="M455.61,878.05l-12.68-2a68.31,68.31,0,0,1-56.57-78.3l21.5-133.48a23.79,23.79,0,0,1,27.28-19.71l100.55,16.19A23.8,23.8,0,0,1,555.4,688L533.9,821.47A68.3,68.3,0,0,1,455.61,878.05Z"/><line class="cls-10" x1="418.61" y1="682.05" x2="534.77" y2="698.61"/><path class="cls-5" d="M820.32,875.8l-11.72,2.47a63.74,63.74,0,0,1-75.54-49.18L690.28,626.61A19.92,19.92,0,0,1,705.65,603l97.46-20.59a19.93,19.93,0,0,1,23.61,15.37L869.5,800.26A63.74,63.74,0,0,1,820.32,875.8Z"/><line class="cls-10" x1="709.3" y1="645.58" x2="811.23" y2="625.87"/><path class="cls-7" d="M508.64,863.07c26.94-28.57,29.09-65.33,35-102.1l11.4-70.77s3.72-19.94-21.57-29.84"/><path class="cls-7" d="M756.25,863.07c-20.24-16.66-27-44.73-32-69.24-7.86-39.07-15.38-78.23-24.24-117.09-4.64-20.35-20.8-63.43,7.43-74.12"/><path class="cls-2" d="M786.19,378.17a47.39,47.39,0,0,0-23.6,8.43"/></svg>