<svg id="Illustrations" xmlns="http://www.w3.org/2000/svg" viewBox="0 0 1000 1000"><defs><style>.cls-1{fill:#77c8d6;}.cls-2{fill:#3b1534;}.cls-3{fill:#f2eada;}.cls-4{fill:#f985bf;}.cls-5,.cls-6{fill:none;stroke-linecap:round;stroke-miterlimit:10;stroke-width:5px;}.cls-5{stroke:#3b1534;}.cls-6{stroke:#77c8d6;}.cls-7{fill:#ffb6db;}</style></defs><path class="cls-1" d="M210.37,436.94,186,434.86,160.57,730h80L241.63,536A147,147,0,0,0,210.37,436.94Z"/><path class="cls-1" d="M412.52,518.22a69.73,69.73,0,0,0-63.8-69.47l-11.27-1c7.84,17.53,18.31,56.41,17.72,138.55l0,143.69h57.33Z"/><path class="cls-2" d="M337.45,447.79,210.37,436.94a147,147,0,0,1,31.26,99L240.52,730H355.19l0-143.69C355.76,504.2,345.29,465.32,337.45,447.79Z"/><path class="cls-3" d="M371,412,234.72,401.5a38.55,38.55,0,0,1-35.49-41.38l5.67-73.83a55.41,55.41,0,0,1,59.5-51L341,241.15a43,43,0,0,1,39.61,46.2Z"/><ellipse class="cls-3" cx="172.33" cy="371.12" rx="40.77" ry="35.57"/><path class="cls-1" d="M628.09,631.15l-48.23-6.26,18.68-124.76a59,59,0,0,1,55.16-50.19h0Z"/><path class="cls-1" d="M676.59,703.39l-23.72,16.14a89.94,89.94,0,0,1-125-23.76L451.08,582.84a39.37,39.37,0,0,1,10.41-54.7l33-22.43a39.36,39.36,0,0,1,54.7,10.4Z"/><path class="cls-4" d="M513.32,499s1.94-22.42-17.44-53.92c-6.69-12.46-13.22-25-19.91-37.45-5.78-10.79-11-24.51-19.58-33.39-5-5.22-13.38-10.68-19.48,1.78q-3.69-5.52-7.4-11c-2.86-4.29-7.75-9.51-13.41-8.74-11.65,1.56-5.74,18.55-3.2,25.13.47,1.58.93,3.16,1.4,4.73,0,0-14.17-8.37-14.62,4.79a20,20,0,0,0,1.72,8.58L422,447.19s-40.63,6.49-52.9,11.77c-.77.33-1.55.64-2.34.9-2.63.89-8.93,3.65-8.85,9.65a8.76,8.76,0,0,0,8.63,8.43c3.33.09,8.34-.41,15.83-2.27,3.94-1,7.91-1.81,11.89-2.57l7.79-1.5a21.84,21.84,0,0,1,13.37,1.52c16.55,7.74,12.48,30.5,3.46,42.33-3.27,4.29-7,8.21-10.18,12.58-3,4.12-7,8.22-7.73,13.46a9.36,9.36,0,0,0,1.55,6.91,8.43,8.43,0,0,0,4.21,3c3.95,1.11,8-1.8,10.58-3.76,17.62-13.14,19.46-15.26,23.39-16.09a24.94,24.94,0,0,1,17.07,2.72Z"/><path class="cls-5" d="M463,441.86s-16.72,36.52,17.47,54"/><path class="cls-5" d="M436.91,376.05l19.3,42.35"/><path class="cls-5" d="M414.45,386.37q10.33,21.39,20.68,42.77"/><rect class="cls-3" x="306.87" y="481.75" width="91.91" height="81.61" rx="10.02"/><path class="cls-6" d="M320.46,544A5.79,5.79,0,0,0,332,544V522.09H320.46Z"/><path class="cls-6" d="M332,501.08a5.79,5.79,0,0,0-11.58,0v16H332Z"/><path class="cls-6" d="M358.93,501.08a5.79,5.79,0,0,0-11.58,0v16h11.58Z"/><path class="cls-6" d="M347.35,544a5.79,5.79,0,0,0,11.58,0V522.09H347.35Z"/><path class="cls-6" d="M385.83,501.08a5.79,5.79,0,0,0-11.58,0v16h11.58Z"/><path class="cls-6" d="M374.25,544a5.79,5.79,0,0,0,11.58,0V522.09H374.25Z"/><rect class="cls-7" x="317.94" y="514.64" width="16.63" height="10.03"/><rect class="cls-7" x="344.83" y="514.64" width="16.61" height="10.03"/><rect class="cls-7" x="371.73" y="514.64" width="16.59" height="10.03"/><path class="cls-2" d="M770.83,401.26l-10.4,1.21L746.49,282.69l51.79-6,9.13,78.4A41.67,41.67,0,0,1,770.83,401.26Z"/><ellipse class="cls-2" cx="880.02" cy="389.76" rx="48.16" ry="95.16" transform="translate(66.11 903.46) rotate(-56.15)"/><path class="cls-4" d="M772.53,415.73l-110.42,9.8a29,29,0,0,1-31.5-26.36l-8.5-95.68,139.36-12.37Z"/><circle class="cls-4" cx="766.82" cy="338.33" r="25.86"/><circle class="cls-5" cx="765.85" cy="341.95" r="7.77"/><path class="cls-5" d="M775.56,327s-14.3,2-16.64,11.51"/><path class="cls-5" d="M663.65,391.45s8.05,7.84,18.86-1.69"/><path class="cls-3" d="M821,501.75c.44-14.47,2.41-36.05,17.67-54.43,4.78-5.77,17.3-11,20.89-13.46-18.88.93-46.86,2.71-66.3,4q-2.09,8.46-4.18,16.92c-8.17,33-11.53,75.78-50.51,86.62-27.9,7.75-59.84-9.35-58.45-40.85.59-13.3,5-26,8.21-38.75,1.33-5.2,2.56-10.43,3.77-15.67q-19.77,1.92-39.12,4L617.54,559.47s-11,44.56,0,82.54l23.4,100.31,195.73,5.17q5.94-55.44,11.89-110.88l-23.7-98.86A133.49,133.49,0,0,1,821,501.75Z"/><path class="cls-1" d="M680.14,500.55c-1.39,31.5,30.55,48.6,58.45,40.85,39-10.84,42.34-53.62,50.51-86.62q2.08-8.46,4.18-16.92-18.62,1.25-37.57,2.71-32.33,2.52-63.59,5.56c-1.21,5.24-2.44,10.47-3.77,15.67C685.1,474.59,680.73,487.25,680.14,500.55Z"/><path class="cls-7" d="M636.5,664.94h0a3.36,3.36,0,0,1-3.36-3.36V651.07h6.72v10.51A3.35,3.35,0,0,1,636.5,664.94Z"/><path class="cls-2" d="M643.94,592.87a7.45,7.45,0,0,0-7.44-7.44h0a7.45,7.45,0,0,0-7.44,7.44v43.24h14.88Z"/><path class="cls-7" d="M629.06,636.11v11.63a3.33,3.33,0,0,0,3.33,3.33h8.23a3.32,3.32,0,0,0,3.32-3.33V636.11Z"/><line class="cls-5" x1="713.7" y1="740.27" x2="713.7" y2="629.34"/><path class="cls-4" d="M762.82,610.75,732,561.87a22.76,22.76,0,0,0-9.07-8.34c-4.09-2-9.44-3.17-14.49.33,0,0-12.93-12-24.18-5.05,0,0-14-7.19-24.59,1.56-4.79,4-9.62,7.89-14.76,11.39L627,573.93s-7.83,4.61-1.66,10.28c0,0,3,3.27,12.92-.81,1.77-.74,3.54-1.48,5.34-2.16l11.89-4.46a9.75,9.75,0,0,1,11.58,3.76h0a14.72,14.72,0,0,1-6.25,21.55c-1.7.75-3.48,1.51-5.31,2.23a77.78,77.78,0,0,1-21.36,5.08c-3.89.36-9.31,1.29-12.89,3.66a7,7,0,0,0,.58,11.91,32.35,32.35,0,0,0,13.81,4.2,83.19,83.19,0,0,1,37.81,12.29c15.09,9.21,34.74,19,46.37,16Z"/><line class="cls-5" x1="684.25" y1="548.81" x2="707.24" y2="583.48"/><path class="cls-5" d="M708.43,553.86l11.31,16.65"/><path class="cls-1" d="M964.25,700.57c-.85,1.52-20.3,35-59.24,35.9a69.78,69.78,0,0,1-62.35-35.9q-11.05-93.2-22.1-186.41c-8.14-37.29,7.23-74.57,44.52-82.7h0c6.93-1.31,24.53-3.62,42.88,5.44,33.11,16.35,37.9,54.53,38.23,57.55,9.57,63,9.9,141.1,19.47,204.07A1.82,1.82,0,0,1,964.25,700.57Z"/><path class="cls-1" d="M899.72,767.93c-28.79,7.49-59.44,1.5-83.92-15.41l-92-63.56c-9.8-6.77-12.94-19.36-7.23-29l31.51-53.43c5.64-9.55,18.06-13.15,28.82-8.36l170.69,76A31,31,0,0,1,963.28,715h0C951.19,742.19,927.4,760.73,899.72,767.93Z"/><circle class="cls-2" cx="687.16" cy="708.35" r="7.06"/><circle class="cls-2" cx="687.16" cy="659.89" r="7.06"/><path class="cls-4" d="M339.72,431.68,233.37,414l14.24-111.16a23.1,23.1,0,0,1,26.21-19.93L364.2,296a16.87,16.87,0,0,1,14.42,17.88l-6.44,92.18A28,28,0,0,1,339.72,431.68Z"/><polygon class="cls-4" points="317.25 399.44 236.84 388.19 231.59 425.68 311.9 437.67 317.25 399.44"/><polygon class="cls-2" points="231.59 425.68 229.14 443.17 309.55 454.42 311.9 437.67 231.59 425.68"/><line class="cls-6" x1="260.72" y1="457.72" x2="264.59" y2="433.05"/><line class="cls-6" x1="285.57" y1="461.61" x2="289.44" y2="436.94"/><line class="cls-5" x1="290.84" y1="304.18" x2="363.02" y2="313.24"/><line class="cls-5" x1="299.21" y1="319.73" x2="352.38" y2="325.61"/><circle class="cls-4" cx="238.35" cy="340.98" r="23.19"/><path class="cls-5" d="M319.7,389.47s7.06,9.48,18.87,2.58"/><path class="cls-5" d="M311,368.32s-14.63,18.2-5,41.68"/><path class="cls-5" d="M352.13,374.2a40.79,40.79,0,0,1,1.3,27.08,39,39,0,0,1-8,14.13"/><circle class="cls-5" cx="241.63" cy="343.32" r="7.77"/><path class="cls-5" d="M231.93,328.32s14.29,2,16.64,11.51"/><path class="cls-1" d="M168.81,658.84c-10.2,28.36-36.94,47.17-66,46.82-32.11-.39-60.55-24.12-67.1-57l7-90.9A133.48,133.48,0,0,1,186,434.86h0Z"/><path class="cls-1" d="M304.4,752.86a12.26,12.26,0,0,1-11.81,11.89l-166.95,6.14a91.35,91.35,0,0,1-37.75-6.46A86.75,86.75,0,0,1,43.5,724.15a89.16,89.16,0,0,1-9.62-47q1-15,2-30l259.39,22.19a12.27,12.27,0,0,1,11.29,12.59Z"/><line class="cls-5" x1="274.71" y1="678.97" x2="274.71" y2="753.09"/><path class="cls-4" d="M305.83,677.53s69.6-4.12,113.94,4.07c4.41.81,8.81,1.66,13.25,2.32,6.26.94,17.51,4.38,17.72,16.94a27.12,27.12,0,0,1,11.85,3.64l0,0a14.17,14.17,0,0,1,6.72,9.68,11.42,11.42,0,0,1-.58,6.31c-2.48,6.16-10.62,9.84-18.72,7.11,1.68,5.64.23,9-.37,10.17-3.43,6.62-13.32,7.6-18.52,7.81a59,59,0,0,1-8.51-.28l-40.45-4.1s5.67,14.86-16.06,13.57c-2.17-.12-4.34-.26-6.51-.32l-55.23-1.62Z"/><path class="cls-5" d="M388.12,695.13q17.26,1.62,34.54,3.2,14,1.27,28.08,2.53"/><path class="cls-5" d="M388.29,718.76q13.26,1.1,27.44,2.87c12,1.53,23.45,3.34,34.32,5.33"/><path class="cls-5" d="M352,737.92c3.58.36,7.18.74,10.79,1.12q9.76,1.05,19.38,2.19"/><circle class="cls-2" cx="213.98" cy="630.66" r="7.99"/><line class="cls-5" x1="178.26" y1="561.6" x2="168.81" y2="658.84"/><path class="cls-2" d="M801.81,309.2l-151.2,13.43a37.38,37.38,0,0,1-40.53-33.92l-.5-5.58A37.38,37.38,0,0,1,643.5,242.6l100.38-8.91A51,51,0,0,1,799.22,280Z"/><line class="cls-5" x1="901.95" y1="655.23" x2="834.65" y2="625.41"/><rect class="cls-4" x="692.26" y="412.75" width="81.58" height="31.99" transform="translate(-35.05 66.52) rotate(-5.07)"/><path class="cls-2" d="M691.61,423l42.08-4.67a2.11,2.11,0,0,1,1,4.05l-41.62,17.61Z"/><line class="cls-5" x1="587.67" y1="572.71" x2="605.01" y2="598.2"/><line class="cls-5" x1="241.86" y1="665.01" x2="119.35" y2="655.23"/><path class="cls-5" d="M200.37,345.31s11.61,9.24,12.39,21.35"/><path class="cls-2" d="M313.35,427.3l-1.45,10.37-40-15.08a1.08,1.08,0,0,1,.56-2.08Z"/></svg>