<svg id="Illustrations" xmlns="http://www.w3.org/2000/svg" viewBox="0 0 1000 1000"><defs><style>.cls-1{fill:#3b1534;}.cls-10,.cls-2,.cls-7,.cls-9{fill:none;stroke-linecap:round;stroke-miterlimit:10;stroke-width:5px;}.cls-2{stroke:#77c8d6;}.cls-3{fill:#f985bf;}.cls-4{fill:#f2eada;}.cls-5{fill:#bd4632;}.cls-6{fill:#77c8d6;}.cls-7{stroke:#3b1534;}.cls-8{fill:#ffb6db;}.cls-9{stroke:#f2eada;}.cls-10{stroke:#f685b0;}</style></defs><polygon class="cls-1" points="357.68 498.03 101.98 498.03 101.98 307.14 357.68 366.93 357.68 498.03"/><rect class="cls-2" x="101.98" y="242.33" width="255.7" height="255.7"/><path class="cls-3" d="M302.07,330.12,194.91,305.91l29.48-130.46,142.38,32.17-21.52,95.24A36.11,36.11,0,0,1,302.07,330.12Z"/><path class="cls-3" d="M278.59,348.22l8.91-34.59-88.76-22.84-7.91,30.76,40.71,30.36Z"/><circle class="cls-4" cx="218.28" cy="417.37" r="5.31"/><path class="cls-1" d="M284.28,326.1l-43.49-9.83a2.24,2.24,0,0,0-1.91,3.92l38.76,31.72Z"/><circle class="cls-3" cx="205.99" cy="242.33" r="23.83"/><path class="cls-5" d="M200,221.66h0l14.42-56,54.13,13.93-.49,1.89A55.88,55.88,0,0,1,200,221.66Z"/><path class="cls-6" d="M413.64,227.15l-203.3-45.93,4.23-16.37,202.84,45.64a3.69,3.69,0,0,1,2.78,4.41l-2.14,9.47A3.68,3.68,0,0,1,413.64,227.15Z"/><path class="cls-6" d="M373,201,214.57,164.85A54.08,54.08,0,0,1,238,132.57c17.9-11.18,36-7.58,39.5-6.8l56,12.65c3.41.77,21.43,5.19,32.75,23.12S373.77,197.64,373,201Z"/><path class="cls-7" d="M265.63,176.79s13-42.14,37.14-43.3"/><path class="cls-8" d="M373.85,287.19l45.59,10.3a18.8,18.8,0,0,1,12.77,9.72,15.09,15.09,0,0,1,1.74,7.31c-.3,8.5-9.06,16.32-18.09,18.12-11.82,2.36-21-6.19-23.34-8.36a32.22,32.22,0,0,1-6.81-9.38,27.2,27.2,0,0,1-1.39-4l-25.81-9.33C362.05,295.22,368.22,290.46,373.85,287.19Z"/><circle class="cls-4" cx="328.16" cy="166.1" r="14.39"/><ellipse class="cls-1" cx="403.09" cy="317.79" rx="4.49" ry="8.69" transform="translate(4.27 640.93) rotate(-77.27)"/><line class="cls-7" x1="384.32" y1="310.92" x2="404.06" y2="315.99"/><path class="cls-4" d="M315,273.9l58.81,13.29c-5.63,3.27-11.8,8-15.34,14.4l-46.64-16.84a5.66,5.66,0,0,1-3.6-6.58h0A5.66,5.66,0,0,1,315,273.9Z"/><path class="cls-1" d="M233.75,342.34h0l-45-27.09a10.38,10.38,0,0,0-14,3.17l-15.5,23.44,143.85,36.21-5.37-29.37a10.38,10.38,0,0,0-10.63-8.5Z"/><path class="cls-9" d="M299,355.55l4.15,22.52-67.68,7.06-3.91-28.92-16.4,26.71-55.86-41.06L171.51,326"/><circle class="cls-7" cx="209.1" cy="243.47" r="6.66"/><path class="cls-7" d="M200.79,230.61s12.25,1.74,14.26,9.87"/><path class="cls-1" d="M942.46,642.42a42.76,42.76,0,0,0-36.54-64.95c-.83,0-1.65,0-2.47.08V474H822.9V727.31l49.74,9.42c9,.78,22.41,2.14,38.77,4.59,12.05,1.81,12.16,2.18,14.88,2.18a51.83,51.83,0,0,0,16.17-101.08Z"/><path class="cls-6" d="M658.4,455.84H611.66a18.82,18.82,0,0,0-14.6,6.66,15.19,15.19,0,0,0-3.3,6.75c-1.59,8.36,5.23,17.91,13.64,21.66,11,4.91,21.86-1.41,24.61-3a32,32,0,0,0,8.71-7.65,27.2,27.2,0,0,0,2.24-3.57l27.23-3.41C668.14,466.27,663.17,460.27,658.4,455.84Z"/><path class="cls-1" d="M903.45,494.14H694.85V343.68a37.47,37.47,0,0,1,37.47-37.47H820a83.5,83.5,0,0,1,83.5,83.5Z"/><rect class="cls-3" x="746.39" y="487.61" width="86.38" height="36.53"/><rect class="cls-6" x="746.39" y="524.14" width="86.38" height="22.48"/><path class="cls-3" d="M832.77,507.34H703.93a27,27,0,0,1-27-27L694.49,348a18.83,18.83,0,0,1,19.66-16.33l118.62,6.25Z"/><circle class="cls-3" cx="832.77" cy="435.67" r="26.19"/><circle class="cls-7" cx="831.83" cy="438.83" r="7.56"/><path class="cls-7" d="M841.27,424.24s-13.91,2-16.19,11.2"/><path class="cls-1" d="M746.39,507.34v15.11l44.79-12.14a1.51,1.51,0,0,0-.39-3Z"/><path class="cls-6" d="M831.56,738.63H655.66v-86.2A112.43,112.43,0,0,1,768.09,540h63.47Z"/><path class="cls-1" d="M709.73,329c12.8,2.29,18.35,20.12,21.08,30.77,4.25,16.58,8.33,32,21.39,44,22.8,21,60.17,20.37,85.67,4.41a53.07,53.07,0,0,0,10.92-9l2.46-64.85Z"/><ellipse class="cls-1" cx="623.14" cy="479.25" rx="8.69" ry="4.49"/><rect class="cls-4" x="466.28" y="787.81" width="253.52" height="21.23" rx="6.86"/><path class="cls-1" d="M562.52,716.55s34.29,34.75,70.49,0c0,0,32.63,25.66,65.29,11.25V699.9a32,32,0,0,0-32-32H526.38a32,32,0,0,0-32,32v22.18C507.74,730.58,536.55,743.21,562.52,716.55Z"/><path class="cls-8" d="M633,716.55c-36.2,34.75-70.49,0-70.49,0-26,26.66-54.78,14-68.15,5.53v65.73H698.3v-60C665.64,742.21,633,716.55,633,716.55Z"/><circle class="cls-3" cx="543.57" cy="654.27" r="13.62"/><circle class="cls-3" cx="599.15" cy="654.27" r="13.62"/><circle class="cls-3" cx="652.15" cy="654.27" r="13.62"/><line class="cls-7" x1="642.96" y1="476.68" x2="622.59" y2="477.27"/><path class="cls-4" d="M718.69,455.84H658.4c4.77,4.43,9.74,10.43,11.79,17.43l49.21-6.15a5.67,5.67,0,0,0,5-5.62h0A5.65,5.65,0,0,0,718.69,455.84Z"/><path class="cls-3" d="M664,731.16c-.23-1.64-26.09-.74-27.8-.67-20,.75-40.31,3.86-59.15,11-39,14.69-74.27,51.23-77.61,93.94a14.3,14.3,0,0,0,1.08,7c1.4,3.13,4.31,6.12,10.18,2.49,0,0,6.62,15.37,18.8,1.66,0,0,6.12,13.34,16.94,4.61a20.68,20.68,0,0,0,5.35-6.65c4-7.79,17.71-31.77,37.21-42.16,0,0-17,14.93-21,27.38-2.44,7.63,6.49,14,13,9.24a45.67,45.67,0,0,0,9.56-10.05s14.07-20.67,42.21-15.63c0,0,29.12,4.43,40.92-12.92Z"/><path class="cls-7" d="M538.82,787.32s-25.76,22.29-28.16,57.58"/><path class="cls-7" d="M529.46,846.56s2.74-35.68,29.09-52.56"/><polygon class="cls-6" points="835.62 259.78 769.83 306.94 802.22 310.1 843.56 280.46 835.62 259.78"/><polygon class="cls-6" points="847.73 291.32 819.22 311.76 857 315.45 847.73 291.32"/><polygon class="cls-6" points="824.8 231.61 773.65 268.28 750.53 305.06 752.82 305.28 831.45 248.91 824.8 231.61"/><polygon class="cls-6" points="814.15 203.87 789.51 243.06 820.63 220.75 814.15 203.87"/><polygon class="cls-4" points="820.63 220.75 789.51 243.06 773.65 268.28 824.8 231.61 820.63 220.75"/><polygon class="cls-4" points="831.45 248.91 752.82 305.28 769.83 306.94 835.62 259.78 831.45 248.91"/><polygon class="cls-4" points="843.56 280.46 802.22 310.1 819.22 311.76 847.73 291.32 843.56 280.46"/><path class="cls-8" d="M844.92,191.4c.19-7.29-5.15-13.33-11.91-13.5a11.36,11.36,0,0,0-3.41.44,11.91,11.91,0,0,0-22.46,0,11.34,11.34,0,0,0-4.94-1.26c-6.76-.17-12.4,5.59-12.58,12.88a13.78,13.78,0,0,0,2.5,8.33,13.71,13.71,0,0,0-3.8,9.22c-.18,7.28,5.15,13.33,11.92,13.5A11.14,11.14,0,0,0,802,221,11.92,11.92,0,0,0,824.51,222a11.58,11.58,0,0,0,5.12,1.36c6.76.16,12.39-5.6,12.58-12.89a13.82,13.82,0,0,0-2.65-8.54A13.5,13.5,0,0,0,844.92,191.4Z"/><path class="cls-10" d="M807.56,190.7a9.07,9.07,0,0,0,9.92,13.89,9.52,9.52,0,0,0,6.5,5.46,9.07,9.07,0,0,0,9-3.52"/><path class="cls-3" d="M890.12,724.05V594.34a55.44,55.44,0,0,0-55.45-55.45h0a55.44,55.44,0,0,0-55.44,55.45V724.91H890.1C890.1,724.62,890.12,724.34,890.12,724.05Z"/><path class="cls-3" d="M822.9,724.91H779.23L664,731.16l9.69,69.22c15.17,3,47.51,8.66,82.84,9.43,17.26.38,32.91-.47,39.69-.92h9.1a84.83,84.83,0,0,0,84.82-84Z"/><line class="cls-7" x1="777.23" y1="526.14" x2="777.23" y2="542"/><line class="cls-7" x1="799.06" y1="526.14" x2="799.06" y2="542"/><line class="cls-7" x1="779.23" y1="724.91" x2="802.73" y2="724.91"/><polygon class="cls-5" points="283.06 713.78 125.77 722.09 229.83 792.35 283.06 713.78"/><path class="cls-8" d="M306.8,712.53l-23.74,1.25-53.23,78.57L125.77,722.09,102,723.35v123H355.33V761.06A48.53,48.53,0,0,0,306.8,712.53Z"/><line class="cls-7" x1="229.83" y1="792.35" x2="257.7" y2="810.84"/><rect class="cls-2" x="101.98" y="590.7" width="255.7" height="255.7"/><path class="cls-1" d="M213,680.06h0a71.43,71.43,0,0,1-71.42-71.42V564.35a42.29,42.29,0,0,1,42.3-42.29H213Z"/><path class="cls-5" d="M236.7,844.13l36.37-61.58a222.42,222.42,0,0,1,30.35-40.36c8.35-8.74,17.35-17.08,27.75-23.34,14.1-8.49,30.35-17.51,46.61-20.83,3.88-.79,8.56-1.56,12.38-.08a7,7,0,0,1,3.93,3.4c.46.94,1.55,6,.39,6.6l27.69-14.26c1.83-.94,3.64-1.9,5.43-2.92,3.92-2.23,15.52-7.71,20,2.67,4.6-3.72,10.2-4.39,13.82-1.94a8.69,8.69,0,0,1,3.34,4.75c1.17,4.53-1.77,10.08-7.5,13.51a19.41,19.41,0,0,1-5.86,20.72l-11.56,9.32a10.31,10.31,0,0,1,3.81,4.94c1.74,5.09-1.18,11.72-7.52,16.14a147.29,147.29,0,0,1-56.21,25.51,141.19,141.19,0,0,1-15.33,2.39l-28.77,55.36Z"/><line class="cls-7" x1="394.48" y1="707.94" x2="373.6" y2="719.3"/><path class="cls-7" d="M447.57,693.43s-5.69,11.83-43.07,29.38"/><path class="cls-7" d="M457.23,709.75s-34.43,25.14-47.43,29.3"/><line class="cls-7" x1="439.81" y1="739.79" x2="411.94" y2="757.76"/><path class="cls-5" d="M267.7,687.31H176.85V554.67H309.48v90.85A41.78,41.78,0,0,1,267.7,687.31Z"/><rect class="cls-5" x="176.85" y="687.31" width="74.19" height="36.04"/><circle class="cls-5" cx="179.07" cy="626.59" r="24.98"/><ellipse class="cls-1" cx="285.51" cy="541.97" rx="34.82" ry="31.69"/><path class="cls-1" d="M182.84,601.61H166.31V545h52.91v20.24A36.37,36.37,0,0,1,182.84,601.61Z"/><path class="cls-1" d="M281.51,573.31H256.06c-31.11,0-56.32-22.95-56.32-51.25h0l91-10.28v53.16C290.7,569.56,286.58,573.31,281.51,573.31Z"/><circle class="cls-7" cx="179.9" cy="629.69" r="6.66"/><path class="cls-7" d="M171.58,616.83s12.25,1.74,14.26,9.87"/><ellipse class="cls-1" cx="86.74" cy="682.55" rx="81.55" ry="34.87" transform="translate(-407.04 203.41) rotate(-38.62)"/><path class="cls-1" d="M251,687.31H215.51a2.13,2.13,0,0,0-.87,4.08L251,707.6Z"/><path class="cls-1" d="M268.65,656.48h0A17.62,17.62,0,0,1,251,638.86v-.18a4.79,4.79,0,0,1,4.79-4.79h25.65a4.79,4.79,0,0,1,4.79,4.79v.18A17.62,17.62,0,0,1,268.65,656.48Z"/><rect class="cls-6" x="422.35" y="600.98" width="22.33" height="13.18" transform="translate(-311.75 648.28) rotate(-57.62)"/><rect class="cls-3" x="393.33" y="561.04" width="22.33" height="13.18" transform="translate(-291.49 605.23) rotate(-57.62)"/><rect class="cls-8" x="399.88" y="658.98" width="22.33" height="13.18" transform="translate(-371.17 656.24) rotate(-57.62)"/><rect class="cls-1" x="377.44" y="615.67" width="13.18" height="22.33" transform="translate(-319.8 414.64) rotate(-41.73)"/><path class="cls-4" d="M223.29,496.66c9.83-1.25,16,6.22,16.38,6.64,0,0,5.53-8.64,14.87-10.58l-35.32-47-23.89,55.41a20,20,0,0,1,13.89,5.75C209.48,506.35,213.65,497.89,223.29,496.66Z"/><path class="cls-8" d="M239.67,503.3c-.34-.42-6.55-7.89-16.38-6.64-9.64,1.23-13.81,9.69-14.07,10.25a20,20,0,0,0-13.89-5.75l-9.88,25.24,86.45-9.49-17.36-24.19C245.2,494.66,239.67,503.3,239.67,503.3Z"/><circle class="cls-6" cx="219.47" cy="440.82" r="11.89"/></svg>