<svg id="Illustrations" xmlns="http://www.w3.org/2000/svg" viewBox="0 0 1000 1000"><defs><style>.cls-1{fill:#f985bf;}.cls-2,.cls-6,.cls-8{fill:none;stroke-linecap:round;stroke-miterlimit:10;stroke-width:5px;}.cls-2{stroke:#3b1534;}.cls-3{fill:#bd4632;}.cls-4{fill:#3b1534;}.cls-5{fill:#77c8d6;}.cls-6{stroke:#f2eada;}.cls-7{fill:#f2eada;}.cls-8{stroke:#77c8d6;}.cls-9{fill:#ffb6db;}</style></defs><polygon class="cls-1" points="463.39 311.53 448.65 492.61 499.16 492.04 526.84 305.31 463.39 311.53"/><path class="cls-1" d="M448.65,492.61c-2,11.71-4.36,30.77-2.82,51.48,0,0,.93,12.71,8.7,31.58a15.75,15.75,0,0,0,4.66,6.53,16.26,16.26,0,0,0,9.17,3.36s4.88,12.55,15.16,5.81c0,0,9.05,13.71,16.45,7.51,0,0,5-.49-.36-15a121,121,0,0,1-7.63-44v-.48s1.11,5.91,4,9.66a5.52,5.52,0,0,0,9.66-1.85c1-3.28,1.46-8.75,0-17.74L499.16,492Z"/><path class="cls-2" d="M468.36,585.56s-8.82-19-8.15-35.69"/><path class="cls-2" d="M475.23,551.43a96,96,0,0,0,10.3,38.87"/><path class="cls-3" d="M587.49,135l-1.21.31L567.39,61.57l24.17-6.19,13,50.78A23.71,23.71,0,0,1,587.49,135Z"/><polygon class="cls-1" points="583.23 906.3 521.88 895.36 497.44 608.64 584.28 608.64 583.23 906.3"/><path class="cls-1" d="M691.85,901.59c-23,1-38.77,7.22-61.73,8.24-13.26-99.63-34.64-199.54-47.91-299.16l101.48-6.52Z"/><path class="cls-4" d="M583.83,931.37V884l-63.19.43q-18.75,9.74-39.48,19.25c-18.76,8.57-37,16.1-54.4,22.71a11.49,11.49,0,0,0-7.33,9.32H583.29A17.49,17.49,0,0,0,583.83,931.37Z"/><path class="cls-5" d="M419.43,935.68a11.35,11.35,0,0,0-.1,1.44,11.49,11.49,0,0,0,11.5,11.49H566.59a17.25,17.25,0,0,0,16.7-12.93Z"/><line class="cls-2" x1="561.43" y1="946.36" x2="561.43" y2="942.15"/><line class="cls-2" x1="551.39" y1="946.36" x2="551.39" y2="942.15"/><line class="cls-6" x1="497.34" y1="896.05" x2="520.35" y2="909.83"/><line class="cls-6" x1="480.37" y1="905.39" x2="503.37" y2="919.17"/><rect class="cls-5" x="491.16" y="452.9" width="126.62" height="178.45"/><polygon class="cls-5" points="711.02 619.78 559.45 642.67 528.5 437.77 681.6 424.98 711.02 619.78"/><rect class="cls-7" x="643.93" y="428.38" width="21.59" height="198.77" transform="translate(-71.47 103.69) rotate(-8.59)"/><path class="cls-1" d="M598.09,163.72A53.84,53.84,0,0,1,548.28,175l-8.86-39.14,49.81-11.28Z"/><path class="cls-1" d="M574.62,59.5,494.24,77.71l9.26,40.9q1.92,8.43,3.82,16.87c.3,1.32.78,3.22,1.51,5.46,2,6.22,3.05,9.34,5.91,11.86,3.29,2.89,7.32,3.52,9.56,3.87a23,23,0,0,0,6.14.11l21.3-4.82,41.68-9.45Z"/><path class="cls-4" d="M543.49,153.83l25.43-6.06a1.09,1.09,0,0,1,.9,1.93l-23.3,17.5Z"/><path class="cls-4" d="M684.56,452.9H487.12V199.24a35.43,35.43,0,0,1,35.43-35.43l118.33-5c23.53,0,43.68,24,43.68,47.57Z"/><path class="cls-3" d="M583,90.12l-6.33,1.43a23.48,23.48,0,0,1-28.09-17.71l-.5-2.2L577.3,65Z"/><path class="cls-5" d="M473.27,93.33,595,65.83l-2.72-10.64L470.83,82.51a2.32,2.32,0,0,0-1.63,2.83l1.39,6.14A2.3,2.3,0,0,0,473.27,93.33Z"/><path class="cls-5" d="M489.36,78.71,592.26,55.2a34.42,34.42,0,0,0-40.85-25.38L515.05,38a34,34,0,0,0-25.69,40.68Z"/><path class="cls-2" d="M559.1,63S550.66,35.58,535,34.83"/><circle class="cls-7" cx="518.49" cy="56.01" r="9.35"/><path class="cls-2" d="M564.11,129.26,586.37,120"/><path class="cls-2" d="M557.34,105.62l23.67-13"/><path class="cls-1" d="M723.75,347.07l-48.6-21.93q-3.9-22.93-7.81-45.88l72.21-16.64a166.45,166.45,0,0,1,12.74,66.21A20.24,20.24,0,0,1,723.75,347.07Z"/><path class="cls-1" d="M676.89,402.2l-91-15.1V327.44l166.61-4.29-.19,16.5A64.26,64.26,0,0,1,676.89,402.2Z"/><path class="cls-4" d="M740.24,261.48,716.13,199a65,65,0,0,0-69.42-41l-5.83.8L661.14,306.6l23.42-5.11V277Z"/><polygon class="cls-7" points="449.73 290.02 444.21 313.38 487.12 313.38 487.12 291.94 449.73 290.02"/><path class="cls-6" d="M422.09,646.77s72.88-19.9,96.28-269.09"/><path class="cls-4" d="M536.72,164.24H513.83a43.46,43.46,0,0,0-42.29,33.47L449.73,290l37.39,1.92v21.44h49.6Z"/><path class="cls-1" d="M585.84,327.44A62.29,62.29,0,0,1,564,323.49l-8.27-3.09c-2.48-.92-4.9-2-7.31-3.06-4.61-2.09-15.81-5.22-24.15,8.1-.35.55-.66,1.12-1,1.69-1.6,2.9-7.85,13.84-14.3,19.07a10.32,10.32,0,0,0-1.9,1.95c-2,2.74-4.75,8.89,9,9.47,0,0-4.08,1.54-5.17,5.3-.7,2.43.18,4.43,1.5,7.43,1.24,2.8,2.63,6,5.94,7.33a9,9,0,0,0,4.54.56A10,10,0,0,0,521,384c0,5.23,4.56,8.29,5.24,8.74,5.08,3.43,10.84,1.51,11.54,1.27,2.27,2,3.86,4.84,6.69,6.16,4.4,2.05,9.77,1.28,14.15-.42,9.16-3.56,19.47-6.29,27.19-12.65Z"/><path class="cls-2" d="M522.91,378.24s10.35-1.24,16.71-9.09"/><path class="cls-2" d="M537.81,394s7.9-.38,16.15-13"/><path class="cls-6" d="M536.72,340.08c2.48,6.73,22.19,59.58,35.74,60.69l.18,0a11.57,11.57,0,0,0,12.27-12.08v0"/><path class="cls-7" d="M565.42,127.88l-6.23-22.72a2.16,2.16,0,0,0-2.68-1.51l-53,15h0l5.6,24.72a17.84,17.84,0,0,0,21.34,13.45l21.3-4.82h0l13.12-20.39A4.57,4.57,0,0,0,565.42,127.88Z"/><line class="cls-8" x1="505.6" y1="127.87" x2="548.06" y2="118.26"/><path class="cls-8" d="M508.83,140.94l32.95-7.45"/><path class="cls-6" d="M531.27,349.69c-2.9,92-8.4,187.63-17.11,286.61q-5.92,67.34-13.37,132.14"/><polygon class="cls-7" points="740.24 261.48 666.89 281.94 671.61 304.31 750.16 287.19 740.24 261.48"/><path class="cls-2" d="M550.35,338.33l-13.63,1.75s-5.18,14.32-20.62,17.54"/><line class="cls-2" x1="557.74" y1="631.35" x2="539.96" y2="513.65"/><path class="cls-4" d="M695,944.82l-3.46-47.28-63,5c-12,7.37-24.65,14.76-38,22.07-18.08,9.92-35.67,18.75-52.6,26.62a11.51,11.51,0,0,0-6.64,9.82l163.43-11.94A17.3,17.3,0,0,0,695,944.82Z"/><path class="cls-5" d="M531.35,961.09a13.83,13.83,0,0,0,0,1.44,11.49,11.49,0,0,0,12.31,10.63l135.4-9.89a17.25,17.25,0,0,0,15.71-14.12Z"/><line class="cls-2" x1="673.76" y1="961.4" x2="673.45" y2="957.19"/><line class="cls-2" x1="663.74" y1="962.13" x2="663.43" y2="957.93"/><line class="cls-6" x1="606.18" y1="915.89" x2="630.12" y2="927.95"/><line class="cls-6" x1="589.93" y1="926.45" x2="613.88" y2="938.51"/><path class="cls-4" d="M312,647.62l-43.28-4.55L253.79,695.4a31,31,0,0,0-5.22-.45,30.5,30.5,0,1,0,0,61h.26a30.5,30.5,0,1,0,53.41-23.81Z"/><path class="cls-3" d="M597.68,702.74,422.09,686.2,340.54,560H329.23a56.57,56.57,0,0,0-28.8,7.89L218.6,616.31a12.69,12.69,0,0,1,2.9,8.14,12.26,12.26,0,0,1-12,12.5,11.85,11.85,0,0,1-9.83-5.35,16,16,0,0,0-1.08,5.77h0a16.17,16.17,0,0,0,16.17,16.17h87.66L272.83,952.88s6.26,8,14.5,0c0,0,7.21,10.54,18,0,0,0,10.3,15.18,30.9,0,0,0,9.27,13.67,21.63,1.83,0,0,10.89,14.93,23.21-1.55,0,0,10.78,19.57,39.62-2.06l16.06-104.91h87.53l-13,115.09s9.42,12.66,18.85,0c0,0,10.83,15.71,22.74,0,0,0,17.66,16.51,31.76,0,0,0,7.64,14.08,16.95,0,0,0,8.12,16.47,18.14,0,0,0,19.09,18.61,36,0l10-183.47S642.22,704,597.68,702.74Z"/><line class="cls-2" x1="302.42" y1="655.96" x2="322.53" y2="655.96"/><path class="cls-4" d="M209.5,637a12.26,12.26,0,0,0,12-12.5,12.69,12.69,0,0,0-2.9-8.14l-12.08,7.15a16.12,16.12,0,0,0-6.85,8.14A11.85,11.85,0,0,0,209.5,637Z"/><polygon class="cls-5" points="299.15 686.55 340.54 680.68 340.54 701.78 296.99 708.5 299.15 686.55"/><path class="cls-3" d="M602.62,770.72s35.24,142.41,93,145.41c0,0,15.13,2,10.56-11.22a21.34,21.34,0,0,0-2.59-5L699,893.18a67.1,67.1,0,0,0,55.76,7.45,5.94,5.94,0,0,0,2-10.3c-19.56-15.9-33.35-28.27-38.74-33.5a150.6,150.6,0,0,1-15.52-17.71l-.43-.62a408.8,408.8,0,0,1-44.18-79.35l-2.22-5.28Z"/><path class="cls-2" d="M358,814.73s-9,114.51-21.69,138.15"/><line class="cls-2" x1="584.61" y1="961.28" x2="592.28" y2="820.15"/><line class="cls-2" x1="529.81" y1="961.28" x2="531.67" y2="943.44"/><line class="cls-2" x1="553.36" y1="961.28" x2="555.23" y2="943.44"/><line class="cls-2" x1="601.69" y1="961.8" x2="603.56" y2="943.96"/><line class="cls-2" x1="624.15" y1="961.8" x2="626.01" y2="943.96"/><line class="cls-2" x1="287.33" y1="952.88" x2="289.2" y2="935.05"/><line class="cls-2" x1="305.87" y1="952.88" x2="307.74" y2="935.05"/><line class="cls-2" x1="357.02" y1="955.32" x2="358.89" y2="937.48"/><line class="cls-2" x1="381.44" y1="955.32" x2="383.31" y2="937.48"/><path class="cls-4" d="M440.09,721.45,415.71,619.31A77.3,77.3,0,0,0,340.54,560h0V705.83a30.5,30.5,0,1,0,0,61h.26A30.5,30.5,0,0,0,401,768.35a32,32,0,0,0,39.06-46.9Z"/><path class="cls-2" d="M616,813.66A94.44,94.44,0,0,1,602.5,777"/><path class="cls-7" d="M643.87,919.74H448.43v-108h177A60.53,60.53,0,0,1,686,872.25v5.39A42.1,42.1,0,0,1,643.87,919.74Z"/><path class="cls-7" d="M449.19,880.27l-5.05,67.61s-18.88-1.88-19.88,16.77a3.42,3.42,0,0,0,3.4,3.63H469a3.39,3.39,0,0,0,3.38-3c1-8,5-29.59,20.32-35.49,0,0,27.57-10.59,38-44.11Z"/><path class="cls-7" d="M491.07,908.33l15.62,41.58a22.56,22.56,0,0,0-14.22,13,4,4,0,0,0,3.76,5.41h44a4,4,0,0,0,3.87-5.07L526.76,900Z"/><path class="cls-7" d="M608.61,897.55a75.91,75.91,0,0,0,10.09,48.73l3.06,3.94a22.17,22.17,0,0,0-14.36,3c-4.95,3.13-10.74,9.91-8.77,14.72a6.87,6.87,0,0,0,3.44,3.39l56.78-2.52a3.29,3.29,0,0,0,3.14-3.53l-4.79-64Z"/><path class="cls-7" d="M679.34,854.06l-33.8,44.86,41.4,39.22s-14.06,13.33-10.13,28.41A4.44,4.44,0,0,0,684,968.8l42.1-35.24a4.44,4.44,0,0,0,.87-5.82Z"/><path class="cls-7" d="M639.55,821.63s51.07-8.11,87.52-31.16a3.43,3.43,0,0,1,4.5,5.07c-13.92,16.87-45.41,34.51-63.56,44.58Z"/><path class="cls-2" d="M612.23,878.23s-13.39,21.31-4.12,43.72"/><polygon class="cls-9" points="463.12 898.14 513.77 847.14 415.46 846.22 463.12 898.14"/><line class="cls-2" x1="495.35" y1="864.54" x2="456.92" y2="864.54"/><path class="cls-2" d="M659.26,915.33a47.59,47.59,0,0,0,14-10.94c13.3-15.25,12.24-34.33,11.83-39.17"/><path class="cls-2" d="M473.84,950.32s4.15-13.6,15.68-20.1a24.13,24.13,0,0,1,11.35-2.92c8.09-.16,30.1-2.86,33.69-27.29"/><path class="cls-7" d="M500.33,853.52H432.7a23.11,23.11,0,0,1-22.95-25.85l7-59.12H517.28l6,59.52A23.12,23.12,0,0,1,500.33,853.52Z"/><path class="cls-4" d="M488.58,768.55h29.91a13.35,13.35,0,0,1,12.12,7.77l6.79,14.81a16.91,16.91,0,0,1-15.37,24h0a16.92,16.92,0,0,1-15.17-9.43Z"/><path class="cls-3" d="M470.7,810.56a12.26,12.26,0,0,0-10.24,5.51,12.27,12.27,0,1,0-.51,12.69,12.27,12.27,0,1,0,10.75-18.2Z"/><ellipse class="cls-4" cx="460.21" cy="811.71" rx="9.44" ry="6.98"/><path class="cls-4" d="M443.19,768.55H413.28a13.35,13.35,0,0,0-12.12,7.77l-6.79,14.81a16.91,16.91,0,0,0,15.37,24h0a16.92,16.92,0,0,0,15.17-9.43Z"/><line class="cls-2" x1="433.92" y1="967.06" x2="433.92" y2="957.63"/><line class="cls-2" x1="444.87" y1="967.06" x2="444.87" y2="957.63"/><line class="cls-2" x1="504.44" y1="967.06" x2="504.44" y2="957.63"/><line class="cls-2" x1="515.39" y1="967.06" x2="515.39" y2="957.63"/><line class="cls-2" x1="611.18" y1="968.84" x2="611.18" y2="959.42"/><line class="cls-2" x1="622.13" y1="968.84" x2="622.13" y2="959.42"/><line class="cls-2" x1="692.21" y1="961.35" x2="686.27" y2="954.04"/><line class="cls-2" x1="700.71" y1="954.44" x2="694.76" y2="947.13"/><circle class="cls-1" cx="584.97" cy="105.31" r="16.22"/><circle class="cls-2" cx="584.37" cy="107.27" r="4.21"/><path class="cls-2" d="M589.63,99.14s-7.75,1.09-9,6.24"/></svg>