<svg id="Illustrations" xmlns="http://www.w3.org/2000/svg" viewBox="0 0 1000 1000"><defs><style>.cls-1{fill:#ffb6db;}.cls-2{fill:#3b1534;}.cls-3{fill:#77c8d6;}.cls-4,.cls-5,.cls-8{fill:none;stroke-miterlimit:10;stroke-width:5px;}.cls-4{stroke:#77c8d6;}.cls-4,.cls-5{stroke-linecap:round;}.cls-5{stroke:#3b1534;}.cls-6{fill:#f2eada;}.cls-7{fill:#bd4632;}.cls-8{stroke:#bd4632;}</style></defs><path class="cls-1" d="M593.79,493.08c-52.07,19.91-93.47,36-122.33,46.57a70,70,0,0,0-26.77,16.46,66,66,0,0,0-13.23,19.23,70.87,70.87,0,0,0-5.76,36.53l17.76,173.94,157,5.78h0l253.78-4.94Q771.84,621,689.48,455.4Z"/><path class="cls-1" d="M967,748.27,873.92,509.16c-24.64-63.27-95.85-92.74-156.51-64.76l-27.93,11L832,742a80.94,80.94,0,0,0,72.06,44.9l37.28.18C960.52,787.08,973.78,765.61,967,748.27Z"/><path class="cls-2" d="M615.47,412.83l-5.58,1.85L559.73,263.5l49.5-16.43,35.59,107.27A46.27,46.27,0,0,1,615.47,412.83Z"/><rect class="cls-3" x="690.99" y="239.65" width="178.26" height="110.41" rx="20.19"/><rect class="cls-4" x="30.73" y="359.07" width="374.54" height="297.39" rx="24.53"/><rect class="cls-3" x="79.44" y="409.04" width="209.22" height="160.21" rx="15.95"/><path class="cls-2" d="M405.27,455.61H316.56a7.84,7.84,0,0,1-7.84-7.84v-88.7h71.61A24.94,24.94,0,0,1,405.27,384Z"/><line class="cls-5" x1="310.19" y1="488.33" x2="390.95" y2="488.33"/><line class="cls-5" x1="310.19" y1="510.86" x2="390.95" y2="510.86"/><line class="cls-5" x1="310.19" y1="533.38" x2="366" y2="533.38"/><circle class="cls-1" cx="98.95" cy="612.06" r="19.24"/><circle class="cls-1" cx="222.98" cy="612.06" r="19.24"/><circle class="cls-1" cx="347.01" cy="612.06" r="19.24"/><circle class="cls-1" cx="356.99" cy="404.6" r="17.49"/><path class="cls-1" d="M381.86,455.61H332.13V439.52a22.06,22.06,0,0,1,22.05-22.06h5.62a22.06,22.06,0,0,1,22.06,22.06Z"/><path class="cls-6" d="M740.65,304H719.47l-4.17,9.8h-8.11l19.06-42.35H734l19.12,42.35h-8.23Zm-2.6-6.17-8-18.51-7.92,18.51Z"/><path class="cls-6" d="M800.12,295.59a10.71,10.71,0,0,1,2.06,6.69,9.81,9.81,0,0,1-4.24,8.5q-4.23,3-12.34,3H764.54V271.42h19.85q7.5,0,11.55,2.94a9.39,9.39,0,0,1,4.06,8.07,10.68,10.68,0,0,1-1.45,5.57,10,10,0,0,1-4,3.75A11.23,11.23,0,0,1,800.12,295.59Zm-27.71-18v11.68h11.13a11.29,11.29,0,0,0,6.32-1.48,4.87,4.87,0,0,0,2.21-4.33,4.93,4.93,0,0,0-2.21-4.39,11.38,11.38,0,0,0-6.32-1.48Zm21.84,23.9q0-6.11-9.14-6.11h-12.7V307.6h12.7Q794.25,307.6,794.25,301.49Z"/><path class="cls-6" d="M824.65,311.56a20.7,20.7,0,0,1-8.11-7.77,22.75,22.75,0,0,1,0-22.39,21,21,0,0,1,8.14-7.77,23.81,23.81,0,0,1,11.59-2.81,24.14,24.14,0,0,1,9.49,1.81,19.28,19.28,0,0,1,7.26,5.27L848,282.67a14.84,14.84,0,0,0-11.31-5,15.88,15.88,0,0,0-7.81,1.91,13.68,13.68,0,0,0-5.38,5.29,16.19,16.19,0,0,0,0,15.37,13.68,13.68,0,0,0,5.38,5.29,15.88,15.88,0,0,0,7.81,1.91,14.73,14.73,0,0,0,11.31-5l5.08,4.84a19.21,19.21,0,0,1-7.29,5.26,24.36,24.36,0,0,1-9.52,1.82A23.81,23.81,0,0,1,824.65,311.56Z"/><path class="cls-7" d="M620.55,425.44,491,471.8a36.75,36.75,0,0,1-47-22.22L386.82,289.81,551,231.06Z"/><path class="cls-2" d="M567,168.8a59.15,59.15,0,0,0-42.8,18.26,77.94,77.94,0,0,0-52.43-3.9c-26.15,7-45.56,25.8-52.77,47.94A53.47,53.47,0,1,0,456,307a80,80,0,0,0,90.36-23.21A59.36,59.36,0,1,0,567,168.8Z"/><path class="cls-2" d="M612.5,310.3l-39.43,16.35A23.4,23.4,0,0,1,542.5,314l-15.28-36.85,61-25.31Z"/><polygon class="cls-7" points="611.07 401.66 516.2 438.35 534.58 485.87 628.05 445.59 611.07 401.66"/><path class="cls-5" d="M488.91,423.49c.38.21,8.73,4.58,16.76-.22,7-4.21,8-11.93,8.05-12.78"/><path class="cls-2" d="M524.5,459.81,565.87,445a2.48,2.48,0,0,1,2.38,4.28L531.7,478.41Z"/><polygon class="cls-3" points="534.58 485.87 547.84 520.14 642.7 483.45 628.05 445.59 534.58 485.87"/><path class="cls-3" d="M389.29,692.83H180.64a14.7,14.7,0,0,0-14.7,14.7V746H389.29Z"/><path class="cls-1" d="M165.94,746V784.4a14.7,14.7,0,0,0,14.7,14.7H389.29V746Z"/><path class="cls-8" d="M389.29,785.1H196.9A11.15,11.15,0,0,1,185.75,774v-2.84A11.15,11.15,0,0,1,196.9,760H389.29Z"/><rect class="cls-6" x="194.67" y="692.83" width="13.6" height="53.13"/><rect class="cls-6" x="226.8" y="692.83" width="13.6" height="53.13"/><path class="cls-6" d="M560.65,772.53a86.51,86.51,0,0,1-80.08-53.33l-.27-.67a215.47,215.47,0,0,1-15.67-71.27,8.41,8.41,0,0,0-8.4-8H296a8.41,8.41,0,0,0-8.41,8.59c.59,29.51,7,120.39,63,145.47a73.19,73.19,0,0,0,21.17,5.82H699.77a26.57,26.57,0,0,0-26.57-26.57Z"/><path class="cls-1" d="M931.83,741.45A64.36,64.36,0,0,1,969,753.23a30,30,0,0,0-17.62-23.77L726.34,631.14,674.09,750.39l167.12,73A92.88,92.88,0,0,0,872.1,831a64.72,64.72,0,0,1,59.73-89.54Z"/><line class="cls-5" x1="755.95" y1="589.92" x2="791.88" y2="659.78"/><circle class="cls-7" cx="591.7" cy="344.58" r="32.04"/><circle class="cls-5" cx="587.43" cy="346.93" r="8.97"/><path class="cls-5" d="M598,330.88s-16.5,2.34-19.21,13.29"/><line class="cls-5" x1="609.56" y1="493.15" x2="576.52" y2="470.51"/><line class="cls-5" x1="567.95" y1="509.68" x2="576.31" y2="470.51"/><path class="cls-7" d="M678.86,631.64,645.13,601A72.6,72.6,0,0,0,612,583.83l-6.46-1.43a70.24,70.24,0,0,0-24.23-1.1l-39.47,5.07a18.13,18.13,0,0,0-11.43,6c-3.06,3.54-4.76,8.38,1.61,13.12a21,21,0,0,0,11.69,4l78.7,3.46Z"/><path class="cls-6" d="M489.65,693.68l25.92-9.24-12.06-15.09-14.92,23.11C488.18,693.07,489,693.93,489.65,693.68Z"/><path class="cls-6" d="M668.41,562.77a9.53,9.53,0,0,0-11.59-15.13l-15.1,11.56,11.64,15.14Z"/><polygon class="cls-6" points="642.04 559.01 615.81 579.9 511.05 663.34 503.53 669.33 515.29 684.59 520.6 680.36 630.77 592.62 653.36 574.34 642.04 559.01"/><line class="cls-5" x1="652.84" y1="572.47" x2="642.63" y2="560.98"/><path class="cls-5" d="M514.38,682.76a13.94,13.94,0,0,0-10.21-11.49"/><path class="cls-7" d="M678.86,631.64l-37.86,74-50.14,5a31.78,31.78,0,0,1-16.74-2.77c-5.92-2.81-12-8-12.58-17.37-1-.12-10.08-1.37-15-9.8A20.75,20.75,0,0,1,545,663.72c-.29-.17-6.73-4.17-6.69-11.19a12.14,12.14,0,0,1,2.81-7.39L525,651.38a13.69,13.69,0,0,1-9.84.14,9.83,9.83,0,0,1-5.82-5.57,10.9,10.9,0,0,1,4.37-13.12,55.87,55.87,0,0,1,7.19-3.88,91,91,0,0,0,18.61-11.17,51.42,51.42,0,0,0,5.48-4.86,30.23,30.23,0,0,1,6.92-5.58,57.59,57.59,0,0,1,31.34-7.24l33.85-.31Z"/><line class="cls-5" x1="578.36" y1="654.28" x2="544.99" y2="663.72"/><path class="cls-5" d="M575.78,627.46a98.23,98.23,0,0,0-34.67,17.68"/><line class="cls-5" x1="588.65" y1="680.6" x2="561.54" y2="690.47"/><path class="cls-5" d="M549.08,609.22a58.73,58.73,0,0,1,14.54-6.8c11.5-3.54,19-1.84,49.41-2.52l4.08-.11"/><path class="cls-6" d="M965.34,772.66l1.55-3.71A30.39,30.39,0,0,0,969,753.23,64.69,64.69,0,0,0,872.1,831C911,833.65,949.11,811.35,965.34,772.66Z"/><path class="cls-3" d="M702.43,620.7A28.35,28.35,0,0,0,664.92,636l-27.87,66.45a29.39,29.39,0,0,0,15,38.29l22,9.62,52.25-119.25Z"/><line class="cls-5" x1="698.5" y1="691.01" x2="652.47" y2="668.88"/><line class="cls-5" x1="711.59" y1="659.78" x2="665.57" y2="637.65"/><line class="cls-5" x1="639.54" y1="698.78" x2="683.92" y2="720.15"/><path class="cls-5" d="M840.33,680.94l-135-59a28.8,28.8,0,0,0-21.54-2.87,28.35,28.35,0,0,0-15.25,10.65"/><line class="cls-5" x1="758.09" y1="787.08" x2="674.09" y2="750.39"/></svg>