<svg id="Illustrations" xmlns="http://www.w3.org/2000/svg" viewBox="0 0 1000 1000"><defs><style>.cls-1{fill:#f985bf;}.cls-2{fill:#f2eada;}.cls-3{fill:#3b1534;}.cls-4{fill:#77c8d6;}.cls-5{fill:#ffb6db;}.cls-6{fill:#bd4632;}.cls-7{fill:none;stroke:#3b1534;stroke-linecap:round;stroke-miterlimit:10;stroke-width:5px;}</style></defs><path class="cls-1" d="M830.13,814.93H139.7V165.25a30.51,30.51,0,0,1,30.51-30.51H799.62a30.51,30.51,0,0,1,30.51,30.51Z"/><path class="cls-2" d="M799.62,814.39H170.21V195.31a30.51,30.51,0,0,1,30.51-30.51H769.11a30.51,30.51,0,0,1,30.51,30.51Z"/><path class="cls-3" d="M313.92,656.93a39.15,39.15,0,0,0-48.42-20.61,39.19,39.19,0,0,0-70.69,14.51l-.77,0a39.19,39.19,0,0,0-36.45,24.79,39.19,39.19,0,1,0,42.66,62.68,39.16,39.16,0,0,0,60.18,7.05,39.2,39.2,0,0,0,45-10.53,38.41,38.41,0,0,0,5.29.37,39.19,39.19,0,0,0,3.21-78.24Z"/><path class="cls-3" d="M847.8,670a39.19,39.19,0,0,0-49.94-32A39.18,39.18,0,1,0,743,692.49,39.19,39.19,0,0,0,807.25,737,39.19,39.19,0,1,0,847.8,670Z"/><path class="cls-4" d="M261.53,417A12.43,12.43,0,0,0,250,424.76a12.43,12.43,0,0,0-17.25,6.48,12.32,12.32,0,0,0-6.4-1.79,12.45,12.45,0,1,0,11.56,17,12.41,12.41,0,0,0,17.93-6,12.44,12.44,0,1,0,5.68-23.5Z"/><path class="cls-3" d="M683.69,405.58H453.27V276.7a75.53,75.53,0,0,1,75.53-75.53h45.45A109.43,109.43,0,0,1,683.69,310.6Z"/><path class="cls-3" d="M736.21,397.34a41.69,41.69,0,0,0-54.62-62.4l-209.46-7.72a41.7,41.7,0,0,0-70.6,44.39,41.7,41.7,0,0,0,10.53,81.58c1.36.05,2.71,0,4-.05a41.7,41.7,0,0,0,82.95-4.33l190.42,7a41.7,41.7,0,1,0,46.74-58.49Z"/><path class="cls-5" d="M552.76,785.74c-1-8.09-2.47-21.88,2.58-38.48A85.16,85.16,0,0,1,572.83,716c-4.35-10.23-14.53-38-6.84-72,11-48.73,50.07-72.34,57-76.38a117.59,117.59,0,0,1-12-39.31c-1.41-11.76-4.14-37.53,10.69-63.25a90.63,90.63,0,0,1,27.5-29.42c-82,7.92-142.34,13.87-162.48,15.8-4.27.4-15.18,1.44-29.61,3.82-9.92,1.63-28.46,3.34-33.93,4.56a131.42,131.42,0,0,1,6.6,13,134.45,134.45,0,0,1,5.5,14.73,148.32,148.32,0,0,1,5,22.73c1.36,9.63,3.42,24.19.65,42.84-1.69,11.32-5.39,34.23-22.55,53.36-.37.42-.69.76-.89,1,7.61,6,20.9,16.94,28.21,44.34,13,48.62-17.05,93.06-20,96.38,4.28,8,15.13,33.15,10.21,66.19l124.47.18A106.75,106.75,0,0,1,552.76,785.74Z"/><rect class="cls-6" x="652.81" y="720.14" width="210.02" height="96.46"/><circle class="cls-5" cx="794.65" cy="675.73" r="10.92"/><path class="cls-4" d="M425.68,748.13c2.61-3.32,32.46-42.5,21.09-91.12a96.13,96.13,0,0,0-29.28-49.6c6.11-9.84,30.75-51.82,21.61-103.94a132.59,132.59,0,0,0-15.94-43.66,51.42,51.42,0,0,0-18.32,4.92c-40.46,19.48-45.76,87.59-46.19,94.2q-5,127.59-10,255.19l87.24.2A120.32,120.32,0,0,0,425.68,748.13Z"/><path class="cls-4" d="M717.89,428l-68.71,7.67A91.52,91.52,0,0,0,624.3,460.8C593,508.45,621.77,565.25,623,567.61c-8.83,3.95-30.66,15.21-44.39,40-24.36,44-.85,90.3,1.24,94.24a107.48,107.48,0,0,0-27.42,62.23,106,106,0,0,0,7.92,50.4l214.79.43,33.91-294C815.22,467.45,770.71,422.06,717.89,428Z"/><path class="cls-6" d="M594.9,421.19H467.65a27,27,0,0,1-27.06-29.6l13.29-125a37.31,37.31,0,0,1,37.31-33.11h61.9c23.09,0,41.81,18.45,41.81,41.2Z"/><circle class="cls-6" cx="604.51" cy="322.88" r="28.67"/><rect class="cls-6" x="500" y="416.44" width="94.9" height="24.62"/><rect class="cls-6" x="131.53" y="720.14" width="210.02" height="94.24"/><circle class="cls-7" cx="602.01" cy="326.84" r="8.51"/><path class="cls-7" d="M612.64,310.41S597,312.63,594.41,323"/><path class="cls-7" d="M475,375.21s12.39,17.77,26.66,0"/><path class="cls-3" d="M500,421.19h54a1.4,1.4,0,0,1,.39,2.74L500,439.74Z"/><rect class="cls-5" x="500" y="435.63" width="94.9" height="32.69"/><line class="cls-7" x1="528.84" y1="436.94" x2="528.84" y2="462.94"/><path class="cls-5" d="M379.79,558.07,263.33,600.23,213.92,449.32l115.86-44.19A8.58,8.58,0,0,1,341,410.52l44,136.86A8.58,8.58,0,0,1,379.79,558.07Z"/><path class="cls-5" d="M263.33,600.23l-73.88-25.56a6.79,6.79,0,0,1-4.3-4.52L147.86,441.23a6.78,6.78,0,0,1,8.38-8.41l57.68,16.5Z"/><line class="cls-7" x1="213.92" y1="449.32" x2="263.33" y2="600.23"/><line class="cls-7" x1="558.47" y1="436.94" x2="558.47" y2="462.94"/><line class="cls-7" x1="666.01" y1="579.63" x2="666.01" y2="644.21"/><rect class="cls-6" x="105.57" y="814.39" width="767.09" height="39.09" rx="13.4"/><line class="cls-7" x1="133.83" y1="814.93" x2="859.75" y2="814.93"/><path class="cls-4" d="M440.43,887.09c-15.91,8.75-31.34,7.19-41.55,6-39.74-4.57-65.77-33.27-74.36-43.66L254.69,737.38a47.55,47.55,0,0,1,15.21-65.5l40.31-25.12A47.55,47.55,0,0,1,375.72,662c20.35,32.64,43.5,63.49,62.74,96.83,14.38,24.93,39.3,64.62,29.67,94.72C461.16,875.33,441.83,886.32,440.43,887.09Z"/><path class="cls-6" d="M288.79,588.24a274.67,274.67,0,0,1-14.73-24.48A213,213,0,0,1,264,542.27c-5.35-13.32-10.68-26.83-17.23-28.63a8.77,8.77,0,0,0-5.8.19,9.82,9.82,0,0,0-3.55,3.37,10.69,10.69,0,0,0-1.1,2.15,13.67,13.67,0,0,0-4.53-5.5c-.93-.65-5.78-4-10.74-1.87a10.07,10.07,0,0,0-5.32,6.16,12.19,12.19,0,0,0-.31,4.23h0c.11.76.14,3.16.69,3.68-3.32-3.13-7.72-4.11-11-2.48a8.59,8.59,0,0,0-3.88,4.43,11.67,11.67,0,0,0,.12,8.08l12.51,36c-1.31-3.75-8.74-.45-10,1.3-6.24,8.44.22,21.56,4.18,29.57,4.66,9.44,9.44,18.91,14.81,28A161.72,161.72,0,0,0,244.25,660a109.89,109.89,0,0,0,13.51,11.87c5.17,3.93,11.28,8.58,17.3,11.08,9.8,4.07,21.16,3.44,31.15.39s19.61-8.69,25.64-17.26c7.71-11,5.58-25.36,1.71-37.35-.05-.17-.1-.33-.16-.5-6.88-21.23-13.56-38.87-16.69-47Z"/><path class="cls-7" d="M236.33,519.35a270.43,270.43,0,0,0,28.49,71.81"/><path class="cls-7" d="M216.12,526.05c4.73,14.15,10.34,29.09,17,44.59q5.88,13.68,12,26.1"/><line class="cls-7" x1="213.92" y1="572.06" x2="226.48" y2="600.88"/><circle class="cls-5" cx="831.99" cy="705.29" r="10.92"/><circle class="cls-5" cx="226.52" cy="672.73" r="10.92"/><circle class="cls-5" cx="181.13" cy="701.12" r="10.92"/><path class="cls-7" d="M345.73,640.71s19,4.19,30,21.26L420,728.91l24.87,40"/><path class="cls-4" d="M752.41,866.17h0a92.91,92.91,0,0,1-128-29.71L554.59,724.4a47.55,47.55,0,0,1,15.21-65.5l40.31-25.12A47.56,47.56,0,0,1,675.62,649L768.3,797.71A49.7,49.7,0,0,1,752.41,866.17Z"/><path class="cls-6" d="M566.65,676.47a25.85,25.85,0,0,0,11.68,4.41c8,.86,14.39-3.16,27.07-11.22,11.93-7.58,14.83-11.86,16.38-15.52a20.93,20.93,0,0,0,1.88-8.42c-.89-29.7-9.08-48.91-16.87-61.26-15.15-24-21.82-32.23-21.82-32.23s-14.54-18-17.83-34.1l-.06-.26c-1-4.83-2.83-11.34-7.87-13.46-10.76-4.54-16.39,12.23-17.37,19.91a42.08,42.08,0,0,0,1.09,16.3,44.4,44.4,0,0,0,3.62,9.1c1.59,3,5.52,6.39,6.5,9.45l22.42,70.18L545.84,658Z"/><path class="cls-2" d="M560.44,572.41a12.84,12.84,0,0,0-4.64-22.67,12.86,12.86,0,0,0-14.19-19.91c0-.31,0-.61,0-.92a12.86,12.86,0,0,0-21.75-9.29,12.85,12.85,0,0,0-24,3.3,12.85,12.85,0,0,0-13.52,21.7,69.11,69.11,0,0,0-7,30.93c0,14.66,4.2,28,11,37.68a12.86,12.86,0,0,0,17.93,17.83,12.84,12.84,0,0,0,24-2.15,12.82,12.82,0,0,0,19.22-14h0a12.84,12.84,0,0,0,10.32-20.51,12.84,12.84,0,0,0,2.54-22Zm-46.34-34c14.73,0,26.68,16.65,26.68,37.18,0,.76,0,1.52-.06,2.27l-.75,6.86a45.87,45.87,0,0,1-3.05,10.14,12.79,12.79,0,0,0-1.54,3.15,32.63,32.63,0,0,1-7.31,9.26,12.68,12.68,0,0,0-1.68,1.32,20.8,20.8,0,0,1-12.29,4.18,20,20,0,0,1-8.85-2.1,12.89,12.89,0,0,0-3.4-2c-8.57-6.19-14.44-18.65-14.44-33C487.41,555,499.36,538.37,514.1,538.37Z"/><path class="cls-6" d="M548.75,560l-10.41-1.29a14.86,14.86,0,0,0-16.33,18l.11.44s-13.72,2-10,18.4c0,0-10,6.95-4.94,16.54.73,1.39,1.48,2.77,2.13,4.21l.7,1.56a86.11,86.11,0,0,0,24.57,31.8l20.94,16.84,41.59-35.82-31.35-57.86a23.88,23.88,0,0,0-9-9.9A23.1,23.1,0,0,0,548.75,560Z"/><path class="cls-7" d="M512.08,595.6s11.67,1,26.3,14.63"/><path class="cls-7" d="M522.12,577.2s17.06,1.78,25.27,11.19"/><path class="cls-7" d="M507.14,612.14s13.05,13.1,23.45,16.27"/><path class="cls-2" d="M487.84,639.36V521.48H392.71V642.65h1c0,8.87,21.3,16.06,47.57,16.06s47.56-7.19,47.56-16.06A6.25,6.25,0,0,0,487.84,639.36Z"/><path class="cls-7" d="M746,762,675.62,649s-15.45-28.8-53.44-20.57"/><path class="cls-7" d="M555.42,725.72,610.8,814.6"/><ellipse class="cls-3" cx="440.28" cy="521.48" rx="47.57" ry="11.25"/><path class="cls-7" d="M395.07,641.42a124.13,124.13,0,0,1,88.35.79"/></svg>