<svg id="Illustrations" xmlns="http://www.w3.org/2000/svg" viewBox="0 0 1000 1000"><defs><style>.cls-1{fill:#bd4632;}.cls-2{fill:#ffb6db;}.cls-3,.cls-5,.cls-9{fill:none;stroke-linecap:round;stroke-miterlimit:10;stroke-width:5px;}.cls-3{stroke:#3b1534;}.cls-4{fill:#3b1534;}.cls-5{stroke:#77c8d6;}.cls-6{fill:#fff;}.cls-7{fill:#f985bf;}.cls-8{fill:#77c8d6;}.cls-9{stroke:#f2eada;}.cls-10{fill:#f2eada;}</style></defs><path class="cls-1" d="M620.8,323.77l58.07,1.63a56.18,56.18,0,0,0,57.33-49.17l5.91-47.17-134.24,17.6a69.24,69.24,0,0,0-13.12,3.06L591.39,291A30.36,30.36,0,0,0,620.8,323.77Z"/><path class="cls-2" d="M767.42,225.74l-25.31,3.32-5.91,47.17a56.18,56.18,0,0,1-57.33,49.17l-58.07-1.63A30.36,30.36,0,0,1,591.39,291l3.36-41.23a68.51,68.51,0,0,0-46.46,64.85v39.2h33.3V475.11H744.42V353.77h100.4V293.65A68.5,68.5,0,0,0,767.42,225.74Z"/><rect class="cls-1" x="744.42" y="353.77" width="100.4" height="121.34"/><rect class="cls-1" x="548.29" y="353.77" width="33.3" height="121.34"/><path class="cls-1" d="M678.34,364.81s-10-22.53-22.56-17.63c-6,2.32-5,9.94-3.25,14.75,4.55,12.54,7.72,13.92,17.49,35.57a110,110,0,0,0,14.11,22.3,15.74,15.74,0,0,0,3.78,3.21,29.67,29.67,0,0,0,6.29,3.43q8.46,19.8,17.08,39.65,2,4.52,3.92,9h83.27l-32.16-65.73c-.39-.79,1.08-4.79,1.21-5.7a74.18,74.18,0,0,0,.16-17.62c-2.2-22.31-14-47.63-14-47.63a236.43,236.43,0,0,0-12.76-24.67c-4-5.91-10.09-7.95-13.68-6-.54.29-2.45,1.45-3.4,4.88-4.14-10.52-5.9-23.11-14.49-31.25-2.2-2.09-5.37-3.5-8.27-2.63-3.93,1.18-6.2,6-7.11,9.7.39-1.58-2.82-5.06-3.76-6a12.46,12.46,0,0,0-12.06-2.94c-7.19,2.32-6.21,11.19-4.91,17.05.09.44.33,1.44-.06,1.69-.69.44-3.79-2.76-4.43-3.13-2.53-1.44-5.91-1.74-7.86.82a9.92,9.92,0,0,0-1.66,5.41c-.71,10.47,4.71,20.61,8,30.29C670.83,342.57,673.68,354.3,678.34,364.81Z"/><path class="cls-3" d="M721.26,345.71s-14.1,39.36,18.46,62.2"/><line class="cls-3" x1="693.57" y1="286.41" x2="708.69" y2="330.98"/><line class="cls-3" x1="673.41" y1="297.3" x2="688.53" y2="341.88"/><path class="cls-4" d="M844.82,913.63H517.07V856a68.47,68.47,0,0,1,68.47-68.46H776.35A68.47,68.47,0,0,1,844.82,856Z"/><path class="cls-5" d="M878.7,580.55A41.73,41.73,0,0,0,837,538.82H474.58a41.72,41.72,0,0,0-41.72,41.73v5.73H878.7Z"/><path class="cls-5" d="M432.86,586.28V871.91a41.72,41.72,0,0,0,41.72,41.72H837a41.72,41.72,0,0,0,41.73-41.72V586.28Z"/><circle class="cls-2" cx="772.55" cy="564.98" r="10.27"/><circle class="cls-2" cx="805.33" cy="564.98" r="10.27"/><circle class="cls-2" cx="838.12" cy="564.98" r="10.27"/><path class="cls-5" d="M878.7,142A41.72,41.72,0,0,0,837,100.3H474.58A41.72,41.72,0,0,0,432.86,142v5.74H878.7Z"/><path class="cls-5" d="M432.86,147.76V433.39a41.72,41.72,0,0,0,41.72,41.72H837a41.72,41.72,0,0,0,41.73-41.72V147.76Z"/><circle class="cls-2" cx="772.55" cy="126.45" r="10.27"/><circle class="cls-2" cx="805.33" cy="126.45" r="10.27"/><circle class="cls-2" cx="838.12" cy="126.45" r="10.27"/><path class="cls-6" d="M511.17,359.07a41.72,41.72,0,0,0-41.72-41.72H107.06a41.72,41.72,0,0,0-41.73,41.72v5.74H511.17Z"/><path class="cls-5" d="M511.17,359.07a41.72,41.72,0,0,0-41.72-41.72H107.06a41.72,41.72,0,0,0-41.73,41.72v5.74H511.17Z"/><path class="cls-6" d="M65.33,364.81V650.44a41.72,41.72,0,0,0,41.73,41.72H469.45a41.72,41.72,0,0,0,41.72-41.72V364.81Z"/><path class="cls-5" d="M65.33,364.81V650.44a41.72,41.72,0,0,0,41.73,41.72H469.45a41.72,41.72,0,0,0,41.72-41.72V364.81Z"/><circle class="cls-2" cx="405.02" cy="343.5" r="10.27"/><circle class="cls-2" cx="437.81" cy="343.5" r="10.27"/><circle class="cls-2" cx="470.6" cy="343.5" r="10.27"/><path class="cls-1" d="M719.34,744.54l-1.54-.26,17.85-105,35.39,6-12.1,71.13A34.32,34.32,0,0,1,719.34,744.54Z"/><path class="cls-7" d="M731.72,755.28l-103.08-2.06c-16.21-.33-27.82-16.41-23.59-32.68l22.6-87c3.62-13.93,16.75-22.79,30.46-20.55l104.17,17Z"/><path class="cls-7" d="M723.27,790c-4.11,2.78-27.39,15.77-53.43,8.94a59,59,0,0,1-22.65-11.77q8.49-26.94,17-53.88L736.66,735Z"/><path class="cls-1" d="M772.55,639a26.33,26.33,0,0,0-26.33-26.33l-.9,0-84-19.05a34.36,34.36,0,1,0-2.21,38.09L714,644.19a33.07,33.07,0,0,0,27.5,33.74l11.89,2,2.82-16.61A26.32,26.32,0,0,0,772.55,639Z"/><path class="cls-3" d="M647.2,716.9s8,7.84,18.86-1.69"/><path class="cls-4" d="M657.62,753.83l34.23.68a1.44,1.44,0,0,1,.53,2.76L651.3,774.71Z"/><rect class="cls-8" x="209.64" y="739" width="138.03" height="97.63" rx="16.12"/><polygon class="cls-8" points="327.61 869.06 325.61 835.63 283.36 835.63 327.61 869.06"/><line class="cls-9" x1="224.93" y1="774.52" x2="329.86" y2="774.52"/><line class="cls-9" x1="224.93" y1="801.82" x2="296.73" y2="801.82"/><rect class="cls-8" x="159.87" y="90.3" width="138.03" height="97.63" rx="16.12"/><path class="cls-4" d="M768.47,170.71a40.1,40.1,0,0,0-57.26-36.21L610.12,156.06l16.34,76.61,102.67-21.9A40.07,40.07,0,0,0,768.47,170.71Z"/><rect class="cls-4" x="657.32" y="114.68" width="60.4" height="88.87" transform="translate(-18.1 169.12) rotate(-13.84)"/><path class="cls-4" d="M709.74,123.25,558.42,160.54l-7.1-28.82a44.63,44.63,0,0,1,32.65-54l64.67-15.93a44.61,44.61,0,0,1,54,32.65Z"/><polygon class="cls-8" points="179.93 220.36 181.93 186.93 224.18 186.93 179.93 220.36"/><path class="cls-1" d="M695.53,218.79l-86.21,31.38a30.43,30.43,0,0,1-36.82-22.26l-22.87-92.83L664.53,93Z"/><circle class="cls-1" cx="675.86" cy="158.28" r="21.56"/><rect class="cls-1" x="632.02" y="225.04" width="67.38" height="43.06" transform="matrix(0.97, -0.25, 0.25, 0.97, -40.86, 177.78)"/><circle class="cls-3" cx="676.94" cy="161.1" r="6.06"/><path class="cls-3" d="M684.51,149.39s-11.15,1.58-13,9"/><path class="cls-4" d="M600.12,202.18l20.31-7.39a4,4,0,0,1,5.27,2.83c2.43,10.31.51,24-12.55,24.09-8.6.08-14.1-7.31-15.61-15.1A4,4,0,0,1,600.12,202.18Z"/><path class="cls-4" d="M690.36,133.74,653.78,145a49.11,49.11,0,0,1-61.37-32.48l-1.12-3.64L674.8,83.17Z"/><rect class="cls-4" x="189.73" y="399.76" width="42.05" height="79" transform="translate(-86.98 53.61) rotate(-12.04)"/><line class="cls-9" x1="179.87" y1="125.06" x2="284.8" y2="125.06"/><line class="cls-9" x1="179.87" y1="152.35" x2="251.67" y2="152.35"/><circle class="cls-2" cx="367.38" cy="222.57" r="52.23"/><path class="cls-4" d="M357.18,232.88,374,226.43a3.81,3.81,0,0,1,4.9,2.12c3.88,9.51,3.26,18.29-1.12,22.27a9.9,9.9,0,0,1-6.49,2.41c-6.3.05-12.65-6-16.33-15.41A3.81,3.81,0,0,1,357.18,232.88Z"/><path class="cls-7" d="M340.77,205.38a9.81,9.81,0,0,0-6.7,5,9.45,9.45,0,0,0-9-.17c-5.38,3.05-4,8.9-.52,12.68,4,4.32,9.48,6.92,14.72,9.36a2.25,2.25,0,0,0,1.54.31,2.28,2.28,0,0,0,1.18-1.13A81.71,81.71,0,0,0,347.84,220c1.52-3.69,2.71-8.14.53-11.48a7.64,7.64,0,0,0-7.58-3.1Z"/><path class="cls-7" d="M386.93,190a9.85,9.85,0,0,0-6.7,5,9.5,9.5,0,0,0-9-.17c-5.38,3.06-4,8.91-.52,12.68,4,4.32,9.48,6.93,14.72,9.37a2.37,2.37,0,0,0,1.54.31,2.26,2.26,0,0,0,1.18-1.14A80.64,80.64,0,0,0,394,204.61c1.52-3.68,2.71-8.13.53-11.47A7.64,7.64,0,0,0,387,190Z"/><path class="cls-1" d="M339.44,531.07l-97.31,20.76-30.93-145,135.67-28.93,22.75,106.67A39.21,39.21,0,0,1,339.44,531.07Z"/><circle class="cls-1" cx="222.62" cy="481.65" r="24.37"/><circle class="cls-3" cx="224.26" cy="483.46" r="7.4"/><path class="cls-3" d="M215,469.18s13.61,1.93,15.84,11"/><path class="cls-4" d="M349,335.24a38,38,0,0,0-15.46,3.27c-8.51-13.21-26.82-22.35-48-22.35-25.9,0-47.46,13.62-52.17,31.63a44.44,44.44,0,0,0-30.48-2.68c-22.69,6-36.62,27.78-31.11,48.69,4.53,17.2,20.8,28.43,39,28.55a36.88,36.88,0,0,0,20.32,6c15.23,0,28.19-9,33-21.54a38,38,0,0,0,28,12c14.42,0,26.9-7.67,33-18.84A37.77,37.77,0,0,0,349,408.36c20.65,0,37.39-16.36,37.39-36.56S369.62,335.24,349,335.24Z"/><path class="cls-8" d="M475.52,691.72H134.29l-2-17.16a67.69,67.69,0,0,1,57.89-75l199.66-27.77a67.7,67.7,0,0,1,76.27,57Z"/><polygon class="cls-1" points="319.47 524.83 239 538.08 244.3 570.24 324.44 554.99 319.47 524.83"/><polygon class="cls-8" points="244.3 570.24 248.58 596.25 329.05 583 324.44 554.99 244.3 570.24"/><line class="cls-3" x1="274.11" y1="564.57" x2="278.28" y2="591.36"/><line class="cls-3" x1="296.76" y1="560.54" x2="300.93" y2="587.33"/><circle class="cls-2" cx="83.99" cy="514.92" r="55.38"/><path class="cls-10" d="M97.08,515.68a4.46,4.46,0,0,0-5.8-3.06q-6.75,2.39-13.77,5.09c-5.58,2.15-11,4.35-16.12,6.56A4.45,4.45,0,0,0,59,529.94a38.33,38.33,0,0,0,3.38,6.75l35.89-14.85A44.74,44.74,0,0,0,97.08,515.68Z"/><path class="cls-4" d="M62.36,536.69C67,544.07,73.75,548.6,80.7,548.8a17.21,17.21,0,0,0,10.22-3c6.76-4.86,8.43-14.75,7.33-23.93Z"/><path class="cls-4" d="M321.14,535l-37.49,8a1.23,1.23,0,0,0,0,2.41L324.44,555l-3.3-20"/><path class="cls-4" d="M630,239.32l28.3-10.45a1.51,1.51,0,0,1,1.6,2.47l-26,26.81Z"/><path class="cls-3" d="M794.31,470.37l-28-61a236.86,236.86,0,0,0-6.68-55.61s-2.76-11.07-10.4-26.39-12-17.83-15.54-18.26c-4.07-.48-7.67,1.76-9.89,3.52l-4.43-13.23c-1.86-5.72-4.5-12.61-9-16.79a10.17,10.17,0,0,0-14.34.75l-.08.09a17,17,0,0,0-2.38,3.7,5.32,5.32,0,0,0-.26-.61s-.23-.5-.51-1c-2-3.59-4.93-7.26-9.13-8.31-3.95-1-9.1.55-11.2,4.21a10,10,0,0,0-1.12,5.44,40.89,40.89,0,0,0,1.28,7.19c.21.88,1,2.71.73,3.63-.07.2,0,.5-.21.59-.46.25-1.44-1-2.55-2a8.47,8.47,0,0,0-8-1.67c-5.37,1.68-4.18,8-3,12.22,1.62,6.08,3.39,12.07,5.11,18.11"/><path class="cls-3" d="M590,248.43s9.12,4.66,27.24-2.11c4.14-1.55,8.34-2.92,12.56-4.25L630,242"/><path class="cls-4" d="M313.24,483l21-5.11a4,4,0,0,1,4.92,3.39c1.29,10.51-2.13,23.88-15.11,22.57-8.56-.87-13.22-8.82-13.86-16.73A4,4,0,0,1,313.24,483Z"/><circle class="cls-7" cx="745.39" cy="694.47" r="22.11"/><circle class="cls-3" cx="744.42" cy="696.44" r="7.77"/><path class="cls-3" d="M754.12,681.44s-14.29,2-16.64,11.51"/><circle class="cls-2" cx="893.5" cy="696.32" r="55.38"/><path class="cls-4" d="M895.9,705.91H922v11.23a13,13,0,0,1-13,13h0a13,13,0,0,1-13-13Z"/><line class="cls-3" x1="870.36" y1="705.91" x2="919.56" y2="705.91"/></svg>