<svg id="Illustrations" xmlns="http://www.w3.org/2000/svg" viewBox="0 0 1000 1000"><defs><style>.cls-1{fill:#f2eada;}.cls-2{fill:#bd4632;}.cls-3{fill:#f985bf;}.cls-4{fill:#3b1534;}.cls-5,.cls-8,.cls-9{fill:none;stroke-linecap:round;stroke-miterlimit:10;stroke-width:5px;}.cls-5{stroke:#3b1534;}.cls-6{fill:#77c8d6;}.cls-7{fill:#ffb6db;}.cls-8{stroke:#f2eada;}.cls-9{stroke:#77c8d6;}</style></defs><path class="cls-1" d="M757.87,366.07l-256.67,36c-45.75,6.42-80.17,43.53-81.7,88.1L407.49,840H619.17l48.72-174.77Q712.88,515.63,757.87,366.07Z"/><path class="cls-1" d="M801.19,360l-43.32,6.08q-45,149.55-90,299.11c-6.93,48.73,16.48,95.64,56.35,115.91,48.92,24.86,114.88,5.67,146.3-48.23,7.63-26.27,17.73-61.71,29.2-103.85,20.63-75.82,24.59-95.9,25.83-121.32,2.19-45,3.88-83.29-21.77-113C871.19,356.79,814.93,359.07,801.19,360Z"/><path class="cls-2" d="M666,337.11H647.63v-155h72.45V283A54.06,54.06,0,0,1,666,337.11Z"/><path class="cls-1" d="M432.41,835.19,409,843.78a88.6,88.6,0,0,1-113.71-52.63L219.75,585.36a73,73,0,0,1,43.37-93.71l52.64-19.33a73,73,0,0,1,93.71,43.37L485,721.48A88.6,88.6,0,0,1,432.41,835.19Z"/><path class="cls-3" d="M681.49,391.48a132.42,132.42,0,0,1-63.76,23.22,129,129,0,0,1-38.85-2.62q-8.7-43.36-17.41-86.72l102.61-20.59Z"/><path class="cls-4" d="M567.94,357.59,629.11,345a2.43,2.43,0,0,1,1.83,4.4l-57.06,37.8Z"/><path class="cls-3" d="M661.5,192.49l-46.94.89L552,194.56l-31.29.6-15.64.29c-2.16,0-6.2-.68-8.16.15s-1.28,3.4-1.33,5.65c-.6,26.58-1.58,53.2-2.21,79.81l-.45,52.14c0,.13,0,.26,0,.39A31,31,0,0,0,530,365.11l49-9.81,91.77-18.93Q666.16,264.43,661.5,192.49Z"/><path class="cls-5" d="M600.31,243.2l50.6-22"/><path class="cls-5" d="M617.32,305.42l42.32-36.65"/><path class="cls-2" d="M670.79,225.34H636a28,28,0,0,1-28-28V180.21h62.78Z"/><circle class="cls-3" cx="667.46" cy="243.2" r="30.24"/><circle class="cls-5" cx="666.25" cy="246.71" r="9.71"/><path class="cls-6" d="M720.08,196.85H495.94V178.66a61.33,61.33,0,0,1,61.33-61.33H658.75a61.33,61.33,0,0,1,61.33,61.33Z"/><path class="cls-5" d="M678.37,228s-17.85,2.53-20.78,14.38"/><line class="cls-5" x1="710.64" y1="523.34" x2="667.89" y2="665.18"/><path class="cls-5" d="M552.6,414.27C564.15,427.75,576,434,584.1,437.18c36.41,14.1,83.07-2.06,118.78-40"/><circle class="cls-6" cx="848.27" cy="152.19" r="8.69"/><circle class="cls-6" cx="903.53" cy="158.46" r="8.69"/><circle class="cls-6" cx="939.95" cy="204.29" r="8.69"/><circle class="cls-6" cx="936.15" cy="252.82" r="8.69"/><circle class="cls-6" cx="892.2" cy="284.91" r="8.69"/><circle class="cls-6" cx="836.17" cy="278.64" r="8.69"/><circle class="cls-6" cx="801.08" cy="235.94" r="8.69"/><circle class="cls-6" cx="807.5" cy="182.04" r="8.69"/><line class="cls-5" x1="850.95" y1="160.46" x2="888.75" y2="276.93"/><line class="cls-5" x1="900.49" y1="166.59" x2="840.54" y2="271.13"/><line class="cls-5" x1="814.83" y1="187.3" x2="927.85" y2="250.25"/><line class="cls-5" x1="931.41" y1="205.88" x2="809.56" y2="234.06"/><circle class="cls-6" cx="872.17" cy="218.55" r="42.04"/><circle class="cls-6" cx="97.59" cy="627.63" r="8.69"/><circle class="cls-6" cx="152.85" cy="633.9" r="8.69"/><circle class="cls-6" cx="189.27" cy="679.72" r="8.69"/><circle class="cls-6" cx="185.47" cy="728.25" r="8.69"/><circle class="cls-6" cx="141.52" cy="760.35" r="8.69"/><circle class="cls-6" cx="85.49" cy="754.08" r="8.69"/><circle class="cls-6" cx="50.4" cy="711.38" r="8.69"/><circle class="cls-6" cx="56.82" cy="657.48" r="8.69"/><line class="cls-5" x1="100.27" y1="635.89" x2="138.07" y2="752.37"/><line class="cls-5" x1="149.81" y1="642.03" x2="89.86" y2="746.57"/><line class="cls-5" x1="64.15" y1="662.74" x2="177.17" y2="725.69"/><line class="cls-5" x1="180.73" y1="681.31" x2="58.88" y2="709.5"/><circle class="cls-6" cx="121.49" cy="693.99" r="42.04"/><path class="cls-5" d="M266.69,495.42s-12.14,36.73,3.28,59.87"/><path class="cls-5" d="M302.71,488a92.49,92.49,0,0,1,15.06,60.87"/><line class="cls-5" x1="442.52" y1="492.46" x2="431.62" y2="576"/><path class="cls-6" d="M281.31,360.85c-3.5-.18-7-.2-10.5-.2l-175.47-.22c-7.39,0-20.83-.52-25.23,6.87-4.55,7.64.41,18.24,7.2,22.53,7.31,4.61,16.43,4.93,25.07,5.11l34.15.71c-2.24,8.54,6,16.69,14.66,18.57s17.54-.34,26.35-.68c10.78-.4,22.7,2.32,30.44,10.32,9.61,9.92,15.78,22.45,23.18,34,4.46,6.93,9,13.8,13.49,20.69,1.3,2,12.28,21,13.51,20.73l101-24.87c-7.81-32.26-17.36-65.11-37.72-91.32-5.88-7.57-12.85-14.67-21.67-18.45C294,362.11,287.67,361.19,281.31,360.85Z"/><rect class="cls-5" x="340.93" y="411.4" width="21.6" height="38.29"/><path class="cls-7" d="M383,457.76a12.53,12.53,0,0,0-12.53-12.53H333a12.53,12.53,0,0,0-12.53,12.53v18.39H383Z"/><rect class="cls-4" x="320.49" y="476.15" width="62.49" height="142.09"/><line class="cls-8" x1="382.98" y1="492.62" x2="354.81" y2="492.62"/><line class="cls-8" x1="382.98" y1="514.4" x2="354.81" y2="514.4"/><line class="cls-8" x1="382.98" y1="537.63" x2="354.81" y2="537.63"/><line class="cls-5" x1="351.73" y1="411.4" x2="351.73" y2="361.87"/><path class="cls-6" d="M348.4,333.74a1.84,1.84,0,0,0,.36-.35,1.68,1.68,0,0,0,.28-.54c3.41-11.43,2.75-27.64,2.75-27.64-.36-8.94-.67-14.41-3.89-20.15a7.9,7.9,0,0,0-3.94-3.75c-5.36-2.18-8.69,4.87-9.4,9-1.88,11,1.74,21.7,5.67,31.88C340.81,323.73,345.8,335.4,348.4,333.74Z"/><path class="cls-6" d="M357.72,348.61a1.19,1.19,0,0,0,.5,0,2,2,0,0,0,.58-.21c10.31-6,20.93-18.26,20.93-18.26,5.85-6.76,9.37-11,11-17.35a8,8,0,0,0-.31-5.43c-2.42-5.26-9.67-2.39-13,.15-8.93,6.75-13.6,17-17.7,27.11C359,336.12,354.69,348,357.72,348.61Z"/><path class="cls-6" d="M368.89,604.26s-19.65,2.93-31.39-87.42c0,0-3.09-39.18-23.13-26.86,0,0-10.39,5.32-3.63,61.62L316.2,586s-.31.56-.82,1.58a63.8,63.8,0,0,0-.36,56.58l25.54,52.76a87.33,87.33,0,0,0,16.18,23.23,85.08,85.08,0,0,0,16,12.76,86.64,86.64,0,0,0,49.06,12.6l60.6-63.62L459.92,651.5a72,72,0,0,0,2.8-16.36c.43-7.72.7-12.65-2.19-17.55-3.43-5.82-9.37-8.33-12.76-9.4-.22-2.34-1.51-13.92-11.47-22a31.15,31.15,0,0,0-15.9-6.61c-.11-3.63-.3-8.92-.6-15.3-1.62-34.06-3.84-41.39-9.23-46.3-1.26-1.15-5.67-5.16-12.08-5.32-1.17,0-6-.15-9.77,2.91-4.34,3.57-4.81,11.16-5.08,26.22-.36,19.71.09,21.22-.2,26.38C383,576.08,382.46,605.9,368.89,604.26Z"/><path class="cls-5" d="M409.6,631.84a122.9,122.9,0,0,0,10.93-51.75"/><path class="cls-5" d="M436.51,643.32s8-7.08,11.26-35.13"/><path class="cls-5" d="M445.55,674.63a44.18,44.18,0,0,0,14.37-23.13"/><path class="cls-6" d="M237.84,229.47a36,36,0,0,0-39.49.15L198,263.09h40.83Q238.31,246.28,237.84,229.47Z"/><ellipse class="cls-5" cx="218.19" cy="230.25" rx="19.17" ry="6.57"/><line class="cls-5" x1="224.2" y1="263.09" x2="224.2" y2="238.36"/><line class="cls-5" x1="210.55" y1="262.33" x2="210.55" y2="237.6"/><rect class="cls-1" x="179.27" y="263.09" width="77.83" height="112.35" rx="11.77"/><path class="cls-7" d="M229.13,355.27h-48.2V288.09h48.2a4.3,4.3,0,0,1,4.3,4.31V351A4.3,4.3,0,0,1,229.13,355.27Z"/><path class="cls-5" d="M136.53,395.65c.53-12.52,12.11-16.5,22.85-17.36,15.07-1.21,30.63-.37,45.75-.54"/><line class="cls-8" x1="511.03" y1="171.83" x2="703.92" y2="171.83"/><path class="cls-1" d="M597.72,886.29,444,834.51c-43.14-14.53-57.51-68.34-27.37-102.44l41.58-47a63.64,63.64,0,0,1,51.4-21.38l296.25-.21A64.81,64.81,0,0,1,869,742.83h0C836.34,859.5,712.55,925,597.72,886.29Z"/><path class="cls-5" d="M428,721.53a87.42,87.42,0,0,0,63,43.69"/><path class="cls-5" d="M451.33,695.11A99.85,99.85,0,0,1,513.91,728"/><path class="cls-5" d="M782.56,663.54l-139.8,2c-29.39.42-59.86.67-89.67.15q-23.21-.42-46.39-1.51c-11.45-.54-23.7-1.34-32.31,7.71"/><path class="cls-5" d="M509.94,856.72,444,834.51c-23.81-6.85-41.5-26.1-45.2-49.22-4.33-27.06,12.49-46.92,15-49.78"/><path class="cls-1" d="M599.75,241.3l-106.4,39.76c-.35,14.83-.59,29.65-.59,44.46-.17,7.58-.3,15.4,2.55,22.42,2.53,6.22,8,11.35,13.79,14.53,12.58,6.94,26.57,1.77,39.52-.9l12.3-2.54,8.34-1.72,4.7-1c.94-.19,4.49-.35,5.06-1L619,306.77Z"/><line class="cls-9" x1="492.9" y1="304.77" x2="575.45" y2="275.29"/><line class="cls-9" x1="492.9" y1="333.2" x2="561.47" y2="309.07"/></svg>