<svg id="Illustrations" xmlns="http://www.w3.org/2000/svg" viewBox="0 0 1000 1000"><defs><style>.cls-1{fill:#3b1534;}.cls-2{fill:#f2eada;}.cls-3{fill:#77c8d6;}.cls-4,.cls-6,.cls-8{fill:none;stroke-linecap:round;stroke-miterlimit:10;stroke-width:5px;}.cls-4{stroke:#3b1534;}.cls-5{fill:#ffb6db;}.cls-6{stroke:#77c8d6;}.cls-7{fill:#bd4632;}.cls-8{stroke:#ffacd2;}</style></defs><path class="cls-1" d="M581.22,521H455.05a50.81,50.81,0,0,1-50.81-50.82V324.41a47.67,47.67,0,0,1,47.67-47.67H580.33A47.68,47.68,0,0,1,628,324.41V474.2A46.79,46.79,0,0,1,581.22,521Z"/><circle class="cls-1" cx="827.29" cy="467.05" r="113.25"/><circle class="cls-2" cx="741.9" cy="474.55" r="11.18"/><circle class="cls-2" cx="903.38" cy="457.39" r="12.03"/><path class="cls-2" d="M827,405c0-9.21-7.15-16.67-16-16.67a15.48,15.48,0,0,0-4.53.69,15.77,15.77,0,0,0-30.48.53,15.31,15.31,0,0,0-6-1.22c-8.82,0-16,7.46-16,16.67a17,17,0,0,0,4.67,11.78,17.11,17.11,0,0,0-2.5,8.94c0,9.21,7.15,16.67,16,16.67a15.24,15.24,0,0,0,4.29-.63,15.74,15.74,0,0,0,30.08-1.16,15.32,15.32,0,0,0,4.45.67c8.82,0,16-7.46,16-16.67a17.07,17.07,0,0,0-3.07-9.8A17.07,17.07,0,0,0,827,405Z"/><path class="cls-2" d="M853.94,556.67c8.74-2.87,13.76-11.52,11.2-19.32a13.52,13.52,0,0,0-2-3.79c5.72-3.92,8.55-10.72,6.49-17-2.11-6.42-8.7-10.25-15.84-9.81a13.38,13.38,0,0,0-.58-5.66c-2.56-7.79-11.72-11.79-20.47-8.92a17.75,17.75,0,0,0-9.84,7.81,18.14,18.14,0,0,0-9.22.57c-8.75,2.87-13.76,11.52-11.2,19.32a13.16,13.16,0,0,0,1.84,3.6c-5.19,4-7.67,10.44-5.71,16.41,2.08,6.33,8.52,10.15,15.55,9.83a13.2,13.2,0,0,0,.65,4.14c2.56,7.79,11.73,11.79,20.48,8.92a18,18,0,0,0,8.42-5.78A17.82,17.82,0,0,0,853.94,556.67Z"/><path class="cls-3" d="M824.79,532.41,770,517.89a18.11,18.11,0,0,1-12-24.69L793,412a18.11,18.11,0,0,1,21.26-10.33l54.85,14.52a18.11,18.11,0,0,1,12,24.69l-35.07,81.19A18.13,18.13,0,0,1,824.79,532.41Z"/><path class="cls-4" d="M821.57,509.75,788.37,501c-6.49-1.72-9.74-9.49-6.88-16.42l22.85-55.28c2.32-5.61,7.92-8.73,13.16-7.34l33.21,8.79c6.48,1.71,9.74,9.48,6.87,16.41l-22.85,55.29C832.41,508,826.82,511.14,821.57,509.75Z"/><circle class="cls-5" cx="425.46" cy="127.77" r="113.25"/><path class="cls-4" d="M455,97.44c10.59-6.89,28.07-14,40.67-9.34a18.14,18.14,0,0,1,11.45,14.39c.85,7.47-4.72,15.38-9.51,20.5-7.48,8-16.12,15.07-24.13,22.52Q460,158,446.27,170.27q-6.74,6-13.52,12"/><path class="cls-4" d="M399,88.24a142.45,142.45,0,0,1,19.16-19c6-4.89,12.27-9.91,19.66-12.51,6.44-2.27,16.67-3.11,21.41,3,6,7.65-1.33,17.34-5.89,23.66a106.78,106.78,0,0,1-16.9,18"/><path class="cls-2" d="M354.58,113.65l96.79-17.79a3.77,3.77,0,0,1,4.34,4.62l-19.82,79.66a7.46,7.46,0,0,1-5.64,5.49l-56.82,12.49Z"/><path class="cls-3" d="M354.58,113.65,395.1,88.53a4,4,0,0,1,5.8,2l5,13.69Z"/><line class="cls-6" x1="359.81" y1="137.06" x2="415.16" y2="127.77"/><path class="cls-6" d="M365.28,161.6c12.36-2.25,37.25-6.33,37.25-6.33"/><path class="cls-7" d="M579.16,539.66H454.64a50.4,50.4,0,0,1-50.4-50.4V337H579.16Z"/><rect class="cls-7" x="475.14" y="520.99" width="104.02" height="48.38"/><circle class="cls-7" cx="579.16" cy="435.18" r="29.4"/><path class="cls-1" d="M602.75,410.09H468.26a31.63,31.63,0,0,1-31.64-31.64V329.19H602.75Z"/><path class="cls-8" d="M479.05,355.32s-8.34,55.49,22.26,51.85"/><path class="cls-8" d="M521,355.32s-8.35,55.49,22.25,51.85"/><circle class="cls-1" cx="468.75" cy="491.6" r="17.05"/><path class="cls-1" d="M475.14,539.66h44.29a2.1,2.1,0,0,1,.54,4.12l-44.83,12.06Z"/><circle class="cls-4" cx="577.04" cy="439.89" r="10.13"/><path class="cls-4" d="M589.69,420.33s-18.64,2.64-21.69,15"/><circle class="cls-1" cx="657.06" cy="258.33" r="89.07"/><path class="cls-2" d="M585.52,607.81H468.75V571.36a4.67,4.67,0,0,1,4.67-4.67H580.85a4.67,4.67,0,0,1,4.67,4.67Z"/><path class="cls-2" d="M454.39,733.47c26.25,16.37,59.67,16.85,88.26,6.63,31.15-11.13,54-34.93,66.73-65.19,10.57-25.07,16.43-52.73,18.28-80.31h-200C412.49,642.06,408.87,705.1,454.39,733.47Z"/><path class="cls-1" d="M436.62,358.24c-1.06-1.11-6.18-6.28-13.9-6.28-7.89,0-15.3,5.41-18.48,13.65l0-34.25,32.34-2.17Z"/><path class="cls-4" d="M470.5,598.91c2.13.59,17.25,4.48,31.1-5.15A37.6,37.6,0,0,0,516.55,571c.31-.29.65-.55.83-.45s.08.69.07.75c-.2,1.15,5.84,15,16,22.24,11.53,8.14,30.37,9.2,49.33,2.15"/><circle class="cls-1" cx="512.48" cy="638.08" r="6.77"/><circle class="cls-1" cx="512.48" cy="690.85" r="6.77"/><path class="cls-5" d="M678.11,594.6H627.66c-1.85,27.58-7.71,55.24-18.28,80.31C596.62,705.17,573.8,729,542.65,740.1c-28.59,10.22-62,9.74-88.26-6.63-45.52-28.37-41.9-91.41-26.75-138.87H412.81a77.06,77.06,0,0,0-77.07,77.07v276.7H636.38a118.8,118.8,0,0,0,118.8-118.8V671.67A77.07,77.07,0,0,0,678.11,594.6Z"/><path class="cls-5" d="M610.33,982.07l-24.21-6.72a65.87,65.87,0,0,1-45.84-81.08l39.7-143a54.18,54.18,0,0,1,66.68-37.69l46.76,13a54.15,54.15,0,0,1,37.69,66.67l-39.7,143A65.86,65.86,0,0,1,610.33,982.07Z"/><path class="cls-5" d="M640.93,981.92H619.14V731.53h136V867.67A114.25,114.25,0,0,1,640.93,981.92Z"/><path class="cls-5" d="M369.87,962.9l-24.62,5a65.87,65.87,0,0,1-77.63-51.48L238.16,771a54.15,54.15,0,0,1,42.32-63.83l47.57-9.64a54.16,54.16,0,0,1,63.83,42.32l29.46,145.43A65.86,65.86,0,0,1,369.87,962.9Z"/><path class="cls-4" d="M396.87,948.37a68.72,68.72,0,0,0,13.76-15.83c16.33-26,9.61-55.19,7.5-63.14L396.87,764.45a127.37,127.37,0,0,0-2.63-13.63c-3.63-14.53-8.22-32.88-23.22-43.55a44.72,44.72,0,0,0-18-7.44"/><path class="cls-4" d="M551.4,948.37S536,925.27,539.8,898l37.77-138s5-35.5,39.09-44.45"/><path class="cls-4" d="M714.58,740S743.51,756.4,730,797.24L706.3,878.05"/><rect class="cls-2" x="651.71" y="666.13" width="32.77" height="105.3" rx="13.76" transform="translate(-185.67 1202.57) rotate(-76.63)"/><path class="cls-7" d="M629,706.52c-3.42-.77,3-30.29,3.61-32.36,7.08-25.11,20.44-40.74,32.52-55,10.11-11.93,27.86-32.88,39-28.7a7.82,7.82,0,0,1,3.68,2.75c7,10-14.79,34.85-16,36.25,0,0,44.8-20.88,74.72-28.25,1.16-.28,2.31-.6,3.46-1,4.85-1.48,21.53-5.41,28.35,7.92,0,0,12.78-5.66,18.87,2a10.66,10.66,0,0,1,2.21,5.54c.43,3.91-.64,10.44-11.39,13.27,0,0,15,4.7,7.81,17.41a22.77,22.77,0,0,1-10.43,9.35L761,676.06a106,106,0,0,0-40.45,32.11,89.49,89.49,0,0,0-10.12,16.65Z"/><line class="cls-4" x1="798.27" y1="608.18" x2="726.87" y2="640.38"/><path class="cls-4" d="M808,629s-68,29.28-70.19,31.26"/><rect class="cls-2" x="249.29" y="685.65" width="105.3" height="32.77" rx="13.76" transform="translate(-156.65 90.71) rotate(-13.6)"/><path class="cls-7" d="M341.38,686.87c3.41-.79-3.17-30.28-3.76-32.34-7.2-25.08-20.63-40.65-32.77-54.85-10.17-11.88-28-32.75-39.1-28.52a7.8,7.8,0,0,0-3.67,2.76c-7,10,14.95,34.78,16.2,36.18,0,0-44.9-20.67-74.85-27.9-1.16-.28-2.32-.59-3.46-.93-4.86-1.46-21.56-5.31-28.32,8.05,0,0-12.81-5.6-18.86,2.08A10.79,10.79,0,0,0,150.6,597c-.4,3.91.7,10.44,11.46,13.21,0,0-14.95,4.78-7.73,17.45a22.75,22.75,0,0,0,10.47,9.3L209.23,657A105.86,105.86,0,0,1,249.83,689a89.6,89.6,0,0,1,10.2,16.6Z"/><line class="cls-4" x1="171.65" y1="589.32" x2="243.2" y2="621.18"/><path class="cls-4" d="M162.06,610.16s68.11,29,70.33,30.94"/><circle class="cls-2" cx="205.5" cy="423.58" r="113.25"/><circle class="cls-3" cx="127" cy="408.01" r="10.64"/><circle class="cls-3" cx="270.21" cy="412.95" r="10.64"/><path class="cls-3" d="M195.57,359.59a34,34,0,0,0-34.53,14l11.43,29.45,35.76-14.37Z"/><ellipse class="cls-4" cx="178.63" cy="367.19" rx="18.09" ry="6.2" transform="translate(-124.01 93.06) rotate(-21.89)"/><line class="cls-4" x1="183.23" y1="397.97" x2="174.53" y2="376.32"/><line class="cls-4" x1="195.45" y1="393.83" x2="186.76" y2="372.18"/><path class="cls-5" d="M232,472.9l-43.43,17.45-23.63-58.82,43.43-17.45a4.32,4.32,0,0,1,5.6,2.39l20.42,50.84A4.29,4.29,0,0,1,232,472.9Z"/><rect class="cls-4" x="173.23" y="392.13" width="73.44" height="106.03" rx="11.77" transform="translate(-150.81 110.36) rotate(-21.89)"/></svg>