<svg id="Illustrations" xmlns="http://www.w3.org/2000/svg" viewBox="0 0 1000 1000"><defs><style>.cls-1{fill:#3b1534;}.cls-2{fill:#bd4632;}.cls-3{fill:#77c8d6;}.cls-4{fill:#f985bf;}.cls-5,.cls-8{fill:none;stroke-linecap:round;stroke-miterlimit:10;stroke-width:5px;}.cls-5{stroke:#3b1534;}.cls-6{fill:#f2eada;}.cls-7{fill:#ffb6db;}.cls-8{stroke:#77c8d6;}</style></defs><path class="cls-1" d="M783.59,877.86H257V522.35A102.47,102.47,0,0,1,359.42,419.88H681.13A102.46,102.46,0,0,1,783.59,522.35Z"/><rect class="cls-2" x="553.55" y="193.45" width="61.27" height="97.92"/><polygon class="cls-3" points="515.58 616.6 616.85 419.88 414.32 419.88 515.58 616.6"/><ellipse class="cls-2" cx="500" cy="204.71" rx="55.62" ry="41.89"/><polygon class="cls-4" points="573.96 176.43 383.07 176.43 378.11 302.08 501.81 283.36 501.81 346.63 458.01 384.92 571.67 357.79 573.96 176.43"/><path class="cls-2" d="M423.18,139.25a41.41,41.41,0,1,0-42.83,64.44,46.12,46.12,0,0,0,41.7,26c25.44,0,46.06-20.26,46.06-45.25C468.11,159.86,448.1,139.84,423.18,139.25Z"/><rect class="cls-4" x="458.96" y="324.21" width="113.25" height="70.28"/><path class="cls-5" d="M501.81,283.36l69.3-25.17"/><path class="cls-5" d="M501.81,346.62,574.26,314"/><path class="cls-1" d="M459,384.09l47.12-10a1.69,1.69,0,0,1,1.24,3.09L459,407.05Z"/><rect class="cls-3" x="458.96" y="394.48" width="113.25" height="25.39"/><polygon class="cls-3" points="515.58 453.62 572.21 419.88 458.96 419.88 515.58 453.62"/><path class="cls-3" d="M263.06,487.42,148.48,755.21s-46.81,88.71,31.2,131.55L281.55,739.11Z"/><rect class="cls-6" x="346.36" y="497.71" width="152.66" height="91.86" rx="9.76" transform="translate(-173.23 888.75) rotate(-82.21)"/><rect class="cls-2" x="402.07" y="481.29" width="16" height="25.31" rx="8" transform="matrix(0.14, -0.99, 0.99, 0.14, -134.89, 833.3)"/><rect class="cls-2" x="440.18" y="486.51" width="16" height="25.31" rx="8" transform="translate(-107.11 875.56) rotate(-82.21)"/><rect class="cls-2" x="398.26" y="509.16" width="16" height="25.31" rx="8" transform="translate(-165.8 853.61) rotate(-82.21)"/><rect class="cls-2" x="436.37" y="514.37" width="16" height="25.31" rx="8" transform="translate(-138.02 895.87) rotate(-82.21)"/><rect class="cls-2" x="394.45" y="537.02" width="16" height="25.31" rx="8" transform="translate(-196.7 873.92) rotate(-82.21)"/><rect class="cls-2" x="432.56" y="542.24" width="16" height="25.31" rx="8" transform="translate(-168.92 916.18) rotate(-82.21)"/><rect class="cls-6" x="357.52" y="500" width="91.86" height="152.66" rx="9.76"/><rect class="cls-7" x="371.57" y="520.8" width="25.31" height="16" rx="8"/><rect class="cls-7" x="410.03" y="520.8" width="25.31" height="16" rx="8"/><rect class="cls-7" x="371.57" y="548.92" width="25.31" height="16" rx="8"/><rect class="cls-7" x="410.03" y="548.92" width="25.31" height="16" rx="8"/><rect class="cls-7" x="371.57" y="577.05" width="25.31" height="16" rx="8"/><rect class="cls-7" x="410.03" y="577.05" width="25.31" height="16" rx="8"/><path class="cls-3" d="M776.35,487.42,890.93,755.21s46.81,88.71-31.2,131.55L757.86,739.11Z"/><rect class="cls-3" x="541.77" y="567.92" width="145.79" height="111.7" rx="27.69" transform="matrix(0.59, -0.81, 0.81, 0.59, -252.03, 749.2)"/><path class="cls-6" d="M686.48,586.11l-61.12-45,7.22-9.82a6.58,6.58,0,0,1,9.19-1.4l50.53,37.19a6.56,6.56,0,0,1,1.4,9.18Z"/><rect class="cls-6" x="579.47" y="566.14" width="72.99" height="111.7" transform="translate(-250.07 749.53) rotate(-53.66)"/><line class="cls-5" x1="645.57" y1="532.72" x2="634.92" y2="547.19"/><line class="cls-5" x1="656.35" y1="540.65" x2="645.7" y2="555.12"/><line class="cls-5" x1="667.13" y1="548.58" x2="656.48" y2="563.05"/><line class="cls-5" x1="677.91" y1="556.51" x2="667.26" y2="570.99"/><line class="cls-5" x1="688.69" y1="564.45" x2="678.04" y2="578.92"/><path class="cls-5" d="M515.58,442.92q-.11-23.44-.23-46.9"/><line class="cls-5" x1="772.98" y1="670.05" x2="657.17" y2="744.95"/><path class="cls-6" d="M741.84,643.06l-98.36,65.46A9,9,0,0,0,641,721l16.26,24.08,116.17-75.6-19.62-24.56A9,9,0,0,0,741.84,643.06Z"/><path class="cls-4" d="M736.71,646.48c-17.19-29.88-25-61.29-36.56-94l-.57-1.62s-4.18-12-11.71-5c0,0-6.44,4.79-.35,41.3.21,1.2.45,2.4.73,3.59.93,4,3.06,14.55.3,16.07,0,0-7,9.07-37.15-17.13L617,560.92s-12-10.79-19.35-5.48c0,0-3.59,2.4-3.08,5.82-4.26-4.17-9.19-10.83-14.76-13.09-9.14-3.71-14.33,7.11-11.61,14.29-.48-1.28-4.21-1.8-5.25-1.78-4.71.11-7.11,4.47-7.29,8.73a29,29,0,0,0,1.8,10.33c.63,1.84,6.28,15.34,8,14.91,0,0-11,2.74.17,20.72a143.72,143.72,0,0,0,45.72,42.34l6.84,3.77c16.21,8.92,30.61,21.38,44.81,34.06Z"/><path class="cls-5" d="M594.55,561.26s13.36,29.46,41.41,44.16"/><path class="cls-5" d="M568.18,562.46s13.16,45.06,52.79,60.28"/><path class="cls-5" d="M564.14,593.9s20.62,34.12,47.13,45.41"/><path class="cls-6" d="M728.74,258a24.43,24.43,0,0,0-15.24-31h0a24.43,24.43,0,0,0-31,15.25L672.05,272.9l46.25,15.76Z"/><path class="cls-3" d="M672.05,272.9l-10.44,30.64a24.43,24.43,0,0,0,46.25,15.76l10.44-30.64Z"/><path class="cls-6" d="M192.1,171.08a24.44,24.44,0,0,0-32.47,11.82h0a24.45,24.45,0,0,0,11.83,32.47L200.8,229l20.63-44.29Z"/><path class="cls-7" d="M250.77,198.42l-29.34-13.67L200.8,229l29.33,13.67a24.44,24.44,0,0,0,32.47-11.83h0A24.43,24.43,0,0,0,250.77,198.42Z"/><circle class="cls-3" cx="741.37" cy="668.6" r="6.48"/><path class="cls-6" d="M306.31,411.52A24.43,24.43,0,1,0,264,435.9l16.15,28,42.34-24.38Z"/><path class="cls-7" d="M322.46,439.56l-42.34,24.38L296.27,492a24.41,24.41,0,0,0,33.36,9h0a24.41,24.41,0,0,0,9-33.36Z"/><circle class="cls-6" cx="152.47" cy="381.48" r="35.91"/><line class="cls-8" x1="165.32" y1="352.04" x2="135.38" y2="408.91"/><circle class="cls-6" cx="698.99" cy="474.88" r="35.91"/><line class="cls-8" x1="668.92" y1="459.81" x2="729.18" y2="490.01"/><circle class="cls-6" cx="513.45" cy="512.5" r="5.52"/><circle class="cls-6" cx="513.45" cy="554.44" r="5.52"/><path class="cls-2" d="M614.83,199.09a66.23,66.23,0,0,0-66.23-66.23H412.9v66.23H542.39v24a35.6,35.6,0,0,0,35.6,35.6h20.65V199.09Z"/><circle class="cls-4" cx="583.99" cy="285.79" r="33.8"/><circle class="cls-5" cx="584.72" cy="288.87" r="8.51"/><path class="cls-5" d="M595.35,272.44s-15.66,2.22-18.23,12.61"/><polyline class="cls-5" points="458.96 419.33 515.58 442.92 572.21 419.33"/><path class="cls-3" d="M199.5,752.71c-30.23,37.85-54.3,96.61-19.83,134v0c.35.27.85.66,1.46,1.11a75.45,75.45,0,0,0,29.21,13A85.59,85.59,0,0,0,239,902.2c22.76-2.71,41.77-12.32,56.65-29.84,8.8-10.36,15.5-22.16,23.06-33.37l36.9-54.65,26.88-39.81L266.14,669.3Z"/><path class="cls-3" d="M839.91,752.71,773.44,669.5,657.27,745.1l26.49,39.24L720.66,839c7.56,11.21,14.27,23,23.06,33.37,14.88,17.52,33.89,27.13,56.66,29.84a85.52,85.52,0,0,0,28.68-1.38,75.32,75.32,0,0,0,29.21-13c.61-.45,1.11-.84,1.46-1.11v0C894.21,849.32,870.15,790.56,839.91,752.71Z"/><line class="cls-5" x1="773.44" y1="669.5" x2="866.78" y2="786.15"/><path class="cls-4" d="M303.2,647.71c14.14-33.09,24.5-62.52,36.06-95.27l.57-1.62s4.18-12,11.71-5c0,0,6.44,4.79.35,41.3-.2,1.2-.45,2.4-.73,3.59-.93,4-3.06,14.55-.3,16.07,0,0,7,9.07,37.15-17.13l34.42-28.76s12-10.79,19.35-5.48c0,0,3.6,2.4,3.08,5.82,4.26-4.17,9.2-10.83,14.77-13.09,9.13-3.71,14.32,7.11,11.6,14.29.49-1.28,4.21-1.8,5.25-1.78,4.71.11,7.11,4.47,7.29,8.73a29,29,0,0,1-1.8,10.33c-.63,1.84-6.28,15.34-8,14.91,0,0,11,2.74-.17,20.72a143.72,143.72,0,0,1-45.72,42.34l-6.84,3.77c-16.21,8.92-27.74,20.37-43.72,34.83Z"/><path class="cls-5" d="M444.86,561.26s-13.35,29.46-41.41,44.16"/><path class="cls-5" d="M471.23,562.46s-13.15,45.06-52.78,60.28"/><path class="cls-5" d="M475.27,593.9S454.65,628,428.14,639.31"/><path class="cls-6" d="M500.39,280.4,378.11,302.08l-2.09,53A37.92,37.92,0,0,0,420.13,394l37.88-9L506.28,348a4.44,4.44,0,0,0,1.75-3.72l-2.39-59.69A4.48,4.48,0,0,0,500.39,280.4Z"/><line class="cls-8" x1="379.34" y1="326.95" x2="463.21" y2="311.59"/><line class="cls-8" x1="378.11" y1="355.06" x2="430.89" y2="344.16"/><path class="cls-6" d="M284.48,646.34l-18.34,23,116.39,75.23q7.38-10.95,14.77-21.88a10.94,10.94,0,0,0-3-15.22c-21.44-14.27-74.62-49.65-95.22-63.37A10.93,10.93,0,0,0,284.48,646.34Z"/><circle class="cls-3" cx="298.04" cy="668.6" r="6.48"/><line class="cls-5" x1="266.14" y1="669.3" x2="183.73" y2="775.54"/></svg>