<svg id="Illustrations" xmlns="http://www.w3.org/2000/svg" viewBox="0 0 1000 1000"><defs><style>.cls-1{fill:#bd4632;}.cls-2{fill:#3b1534;}.cls-3,.cls-5,.cls-8{fill:none;stroke-miterlimit:10;stroke-width:5px;}.cls-3{stroke:#3b1534;}.cls-3,.cls-8{stroke-linecap:round;}.cls-4{fill:#ffb6db;}.cls-5,.cls-8{stroke:#f2eada;}.cls-6{fill:#f2eada;}.cls-7{fill:#77c8d6;}</style></defs><path class="cls-1" d="M572.46,571.48a37.15,37.15,0,0,1-4.31-8c-1.65-4.18-11.78-22.84-40-71.94l-84.45,68.13,85.68,93.23c18.4,9,40.17,5.71,54.16-7.91,13-12.66,18.95-33.93,11.9-46.49C591,590.51,575.9,576.38,572.46,571.48Z"/><path class="cls-2" d="M362.35,153l-7.16.81L345.6,69.21l41-4.65a2.46,2.46,0,0,1,2.72,2.17l5.21,45.92A36.51,36.51,0,0,1,362.35,153Z"/><path class="cls-1" d="M313.69,333.61s-3.81,31.85-23.92,52.23c-2.38,2.42-4.79,4.82-7.11,7.3l-80.72,86.51c.22,2.19,2.15,18.39,16.78,28,17.08,11.27,35.71,3.2,36.91,2.66l91.28-76.44-9.33-59.55Z"/><polygon class="cls-2" points="304.82 363.43 295.54 379.13 342.93 397.27 337.58 374.36 304.82 363.43"/><path class="cls-1" d="M204.52,476.88s-42,35.61-18,84.49c1,2.15,2,4.33,3,6.55,2.48,6.05,9.33,19.32,21.23,17.62,0,0,0,.1.13.27,5.14,10.19,20.59,4.52,18-6.6-2.81-12.3-6.23-32.39-1.35-42.2,0,0,13.89,40.12,27.79,32.81,0,0,8.58,0-1.53-38.1a29.65,29.65,0,0,1,1.66-20.28,21.08,21.08,0,0,1,8.64-9.72Z"/><path class="cls-3" d="M204,537.21s-2.45,36,6.65,48.33"/><path class="cls-3" d="M187.54,533.67s-.64,27.08,7,43.55"/><rect class="cls-1" x="311.77" y="153.34" width="51.62" height="31.9" transform="translate(-20.01 47.84) rotate(-7.87)"/><path class="cls-1" d="M357.62,68.73l-74.7,12.82a9.7,9.7,0,0,0-8.05,9.72l.63,39.65,41.85-5.8,5.75,30.07-11.69,16.89,50.7-13.31Z"/><polygon class="cls-2" points="537.83 493.47 448.55 343.83 346.91 397.14 437.09 565.01 537.83 493.47"/><path class="cls-4" d="M337.58,374.36l-44,151,121.71,37.38S537.76,461.4,461,340.41Z"/><path class="cls-3" d="M317.35,125.12l41.17-17.53"/><path class="cls-3" d="M323.1,155.19q19-10.33,38-20.66"/><path class="cls-2" d="M311.41,172.08,336,165.63a1,1,0,0,1,.85,1.67l-23,18.55Z"/><path class="cls-1" d="M464.36,306.84,400,412.81c-.1,1.52-.79,16.85,9.75,24.76,11.07,8.31,30.69,5.53,42.88-9.86,1.82-2,4.79-5.3,8.46-9.32,61.86-67.88,81.22-82.25,81.66-106.67.13-7.32-1.38-18.82-11.05-33.21-15.23-16.64-39-19-53.69-7.9C467.5,278.52,462.5,292.58,464.36,306.84Z"/><path class="cls-1" d="M400,412.81s-31.49,51.15-1.31,76.6c.81.69,1.59,1.43,2.37,2.15,2,1.88,6.7,5.23,11.48,1.91,0,0,15,17.86,28.81,7.25l.13,0c10,1.72,16.43-10.33,9.49-17.74l-7.68-8.21a48.18,48.18,0,0,1-9.12-13.69,27.59,27.59,0,0,1-2.59-10.2,1.91,1.91,0,0,1,3.35-1.28c5.25,6.11,17.52,18.83,27.6,17.69a7.33,7.33,0,0,0,6.34-8.92c-.72-3-2.92-6.95-8.26-11.84a25.21,25.21,0,0,1-6.6-9.44,18.19,18.19,0,0,1-1.38-9.39Z"/><path class="cls-3" d="M412.51,493.47S400.74,480.62,397,465.82"/><path class="cls-3" d="M441.32,500.72s-20.94-12-28.81-36.84"/><path class="cls-1" d="M364.35,174.44a165.16,165.16,0,0,0-50.15,14.19l-18.5,52,59.88-9.37q2.07-15,4.46-30.42Q362.13,187.44,364.35,174.44Z"/><path class="cls-4" d="M414.2,173.58a142.34,142.34,0,0,0-49.85.86c-2.76,7.4-5.44,15.33-8,23.77-3.33,11.19-5.92,21.83-7.94,31.75L295.7,240.58l-4.28,12s-11.39,26.61,2.64,48.81c4.58,7.24,9.22,14.44,13.56,21.83l12.79,21.81L450,307.74Z"/><polygon class="cls-1" points="461 340.41 450 307.74 320.41 345.07 337.58 374.36 461 340.41"/><path class="cls-5" d="M308.93,325.5,445,289"/><path class="cls-1" d="M293.55,525.38,275.1,595.26s-12.61,44.9,21.66,78c1.43.8,30.58,16.51,58.12.44,19.39-11.32,25-30.84,26.17-35.1l-10.19-14.45,36.54-63.8Z"/><path class="cls-1" d="M524.62,319.6h0a30.31,30.31,0,0,1-42.76,3.16l-85-73.28a49.1,49.1,0,0,1-5.11-69.24h0A21.67,21.67,0,0,1,422.34,178l98.07,84.59A40.43,40.43,0,0,1,524.62,319.6Z"/><line class="cls-3" x1="860.37" y1="883.75" x2="655.63" y2="883.75"/><path class="cls-2" d="M482.09,91.72a46.13,46.13,0,0,0-38.59,20.82,35.8,35.8,0,1,0-3.2,45.05,46.19,46.19,0,1,0,41.79-65.87Z"/><path class="cls-6" d="M790,427.79a30.67,30.67,0,0,0-20.5-28.93,30.66,30.66,0,0,0-53-26.26,30.66,30.66,0,0,0-47.52,34.32,30.67,30.67,0,0,0,5,55A30.66,30.66,0,0,0,728,486.68a30.65,30.65,0,0,0,49-33.91A30.64,30.64,0,0,0,790,427.79Z"/><path class="cls-6" d="M892,604.27a22.33,22.33,0,0,0-17.44-21.78,23.11,23.11,0,0,0,.28-3.56A22.31,22.31,0,0,0,836.93,563a22.31,22.31,0,0,0-34.18,18.9,22.42,22.42,0,0,0,1.18,7.18,22.32,22.32,0,0,0,4.45,40.33,22,22,0,0,0-.47,4.54A22.32,22.32,0,0,0,847,648.66a22.31,22.31,0,0,0,34.18-25.25A22.32,22.32,0,0,0,892,604.27Z"/><path class="cls-7" d="M689.89,769.09a49.92,49.92,0,0,1,14.41-48.53L669.35,682l-69.08,56.64,6.4,6.65,22.93-18.06a6,6,0,1,1,7.46,9.47l-22.25,17.53a28.16,28.16,0,0,1,4.11,8.61l22.85-18a6,6,0,0,1,7.46,9.48l-30.29,23.86a27.93,27.93,0,0,1-3.68,8.08l29.9,3.54a6,6,0,0,1-1.42,12l-39.39-4.67.08-.63-18.2,13.83a42.06,42.06,0,0,0-6.51,60.8,21.86,21.86,0,0,0,29.35,3.55L713,800.09A49.74,49.74,0,0,1,689.89,769.09Z"/><path class="cls-6" d="M638.07,728.24a6,6,0,0,0-8.47-1L606.67,745.3l5.38,5.59a28.67,28.67,0,0,1,2.76,3.35l22.25-17.53A6,6,0,0,0,638.07,728.24Z"/><path class="cls-6" d="M650.23,745.85a6,6,0,0,0-8.46-1l-22.85,18a28.5,28.5,0,0,1,0,15.33l30.29-23.86A6,6,0,0,0,650.23,745.85Z"/><path class="cls-6" d="M643.74,801.78a6,6,0,0,0,1.42-12l-29.9-3.54a28.21,28.21,0,0,1-6.48,6.91l-4.35,3.31-.08.63Z"/><path class="cls-4" d="M726.58,744,704.3,720.56A49.92,49.92,0,0,0,713,800.09l8.88-6.37A33.12,33.12,0,0,0,726.58,744Z"/><circle class="cls-2" cx="629.29" cy="888.15" r="27.14"/><circle class="cls-8" cx="629.29" cy="888.15" r="12.91"/><circle class="cls-2" cx="742.51" cy="813.19" r="27.14"/><circle class="cls-8" cx="742.51" cy="813.19" r="12.91"/><path class="cls-3" d="M581.87,869.57,695,788.68"/><path class="cls-6" d="M604.35,735.66l-10.76-13a18.37,18.37,0,0,1,23.08-15.84,18.37,18.37,0,0,1,22.89-15.78,18.4,18.4,0,0,1,14.64-15.81,18.15,18.15,0,0,1,5-.3l8,8.84Z"/><path class="cls-1" d="M376.63,743.72a20.39,20.39,0,0,1,9.12,2.16,20.55,20.55,0,0,1,28.55-12.27,20.61,20.61,0,0,1,19.54-14.12,21.57,21.57,0,0,1,2.56.18l-55.35-81.08c-17.79-20.78-46.78-24.65-65.64-11.54-13.94,9.69-21,27.74-18.65,46.2l60.34,84.57A20.6,20.6,0,0,1,376.63,743.72Z"/><path class="cls-7" d="M473.84,781.29l-23.34-41-82,33.48,4.62,8,26.6-12a6,6,0,0,1,8,3h0a6,6,0,0,1-3,8l-25.81,11.66a28.16,28.16,0,0,1,1.92,9.34l26.5-12a6,6,0,1,1,5,11l-35.14,15.88a28.1,28.1,0,0,1-5.51,7l28.16,10.63a6,6,0,0,1-4.26,11.28l-37.1-14,.22-.59-21,9a42,42,0,0,0-20.94,57.44A21.84,21.84,0,0,0,344.34,908l118.84-47.37a49.91,49.91,0,0,1,10.66-79.29Z"/><path class="cls-6" d="M407.71,772.81h0a6,6,0,0,0-8-3l-26.6,12,3.88,6.72a29.12,29.12,0,0,1,1.87,3.91l25.81-11.66A6,6,0,0,0,407.71,772.81Z"/><path class="cls-6" d="M415.28,792.82a6,6,0,0,0-8-3l-26.5,12a28.61,28.61,0,0,1-3.67,14.89l35.14-15.88A6,6,0,0,0,415.28,792.82Z"/><path class="cls-6" d="M395.52,845.55a6,6,0,0,0,4.26-11.28l-28.16-10.63a28.51,28.51,0,0,1-8,5.14l-5,2.17-.22.59Z"/><path class="cls-4" d="M489.84,809.36l-16-28.07a49.91,49.91,0,0,0-10.66,79.29l10.15-4.05A33.12,33.12,0,0,0,489.84,809.36Z"/><circle class="cls-2" cx="360.72" cy="925.91" r="27.14"/><circle class="cls-8" cx="360.72" cy="925.91" r="12.91"/><circle class="cls-2" cx="488.64" cy="880.39" r="27.14"/><circle class="cls-8" cx="488.64" cy="880.39" r="12.91"/><path class="cls-3" d="M321.78,900.41l128.05-52.64"/><path class="cls-6" d="M450.5,740.33l-14.1-20.66a21.57,21.57,0,0,0-2.56-.18,20.61,20.61,0,0,0-19.54,14.12,20.55,20.55,0,0,0-28.55,12.27,20.39,20.39,0,0,0-9.12-2.16,20.6,20.6,0,0,0-19.53,14.1l11.41,16Z"/><path class="cls-7" d="M498.94,304.63l9.43,26.83c2.34,6.65,9.38,9.8,15.32,6.86l16.25-8.05a46.86,46.86,0,0,0,2.1-38.74L539.09,284a20.85,20.85,0,0,0-6.64-8.92l-27.87,14.27C499.3,292,496.85,298.68,498.94,304.63Z"/><path class="cls-2" d="M523.69,338.32c-5.94,2.94-13-.21-15.32-6.86l-9.43-26.83c-2.09-5.95.36-12.59,5.64-15.3l27.87-14.27a21.07,21.07,0,0,0-20.7-3.09l-12.57,4.9A23.23,23.23,0,0,0,486,307l15.3,39.25a10.87,10.87,0,0,0,14.06,6.17h0a46.81,46.81,0,0,0,24.6-22.1Z"/><path class="cls-3" d="M512.74,303.38l26.19-13.55"/><path class="cls-3" d="M520.14,319l23-11.87"/><polygon class="cls-2" points="487.19 303.49 461.82 311.08 451.06 328.66 492.53 318.19 487.19 303.49"/><line class="cls-3" x1="364.78" y1="616.8" x2="381.05" y2="638.59"/><line class="cls-3" x1="313.69" y1="333.61" x2="337.58" y2="374.36"/><circle class="cls-1" cx="364.06" cy="118.37" r="15.16"/><circle class="cls-3" cx="362.5" cy="119.29" r="4.44"/><path class="cls-3" d="M368.05,110.71s-8.17,1.16-9.51,6.58"/><path class="cls-7" d="M316.31,122.4l-40.81,8.52.57,35.31a11.81,11.81,0,0,0,14.81,11.24l20.53-5.39,13.7-14.59a2.93,2.93,0,0,0,.73-2.56l-6.09-30.26A2.9,2.9,0,0,0,316.31,122.4Z"/><line class="cls-3" x1="275.67" y1="141.51" x2="307.16" y2="137.91"/><line class="cls-3" x1="276.75" y1="155.37" x2="301.71" y2="152.51"/><path class="cls-7" d="M389.35,66.9a40.29,40.29,0,0,0-46.2-35.73l-34.36,5.28a40.3,40.3,0,0,0-34,43.91l.73,7.07,22.3-4-1.64-18.87a6.77,6.77,0,0,1,13.49-1.17L311.24,81l14.66-2.64-1.54-17.68a6.77,6.77,0,0,1,13.49-1.17l1.43,16.43,16-2.89-1.37-15.8a6.77,6.77,0,1,1,13.48-1.17l1.27,14.56,20.67-3.73Z"/><path class="cls-6" d="M302.38,57.2a6.77,6.77,0,0,0-6.16,7.33l1.64,18.87L311.24,81l-1.53-17.63A6.76,6.76,0,0,0,302.38,57.2Z"/><path class="cls-6" d="M330.52,53.34a6.78,6.78,0,0,0-6.16,7.33l1.54,17.68,13.38-2.42L337.85,59.5A6.77,6.77,0,0,0,330.52,53.34Z"/><path class="cls-6" d="M360.09,49.91a6.77,6.77,0,0,0-6.16,7.33L355.3,73l13.38-2.41-1.27-14.56A6.77,6.77,0,0,0,360.09,49.91Z"/><path class="cls-1" d="M576.51,576.33l-.39-.41a34.18,34.18,0,0,1-3.49-4.2c-1.79-2.46-31.83-4.51-50.12,16.42-14.54,16.65-13.06,38-12.49,43.62l83.57,90.93a18.37,18.37,0,0,1,23.08-15.84,18.37,18.37,0,0,1,22.89-15.78,18.4,18.4,0,0,1,14.64-15.81,18.15,18.15,0,0,1,5-.3C600.4,604.08,579.63,579.49,576.51,576.33Z"/><path class="cls-3" d="M512.16,621.47s15.91-7.89,8.14-28.73"/><path class="cls-3" d="M298.05,672s17.76.11,20.19-22"/></svg>