<svg width="229.31011352539062px" height="120.8px" xmlns="http://www.w3.org/2000/svg" viewBox="135.34494323730468 14.600000000000001 229.31011352539062 120.8" style="background: rgb(253, 253, 253);" preserveAspectRatio="xMidYMid"><defs><filter id="editing-extrusion" x="-100%" y="-100%" width="300%" height="300%"><feFlood result="color1" flood-color="#bbcedd"></feFlood><feConvolveMatrix order="8,8" divisor="1" kernelMatrix="1 0 0 0 0 0 0 0 0 1 0 0 0 0 0 0 0 0 1 0 0 0 0 0 0 0 0 1 0 0 0 0 0 0 0 0 1 0 0 0 0 0 0 0 0 1 0 0 0 0 0 0 0 0 1 0 0 0 0 0 0 0 0 1" in="SourceAlpha" result="extrude"></feConvolveMatrix><feComposite in="color1" in2="extrude" result="comp-extrude" operator="in"></feComposite><feOffset dx="4" dy="4" in="comp-extrude" result="offset-extrude"></feOffset><feMerge><feMergeNode in="offset-extrude"></feMergeNode><feMergeNode in="SourceGraphic"></feMergeNode></feMerge></filter></defs><g filter="url(#editing-extrusion)"><g transform="translate(173.2937899529934, 97.43000030517578)"><path d="M14.34 0L0.38 0L8.51-42.24L22.59-42.24L14.34 0ZM57.41-13.25L57.41-13.25L57.41-13.25Q59.07-12.03 59.07-9.44L59.07-9.44L59.07-9.44Q59.07-6.85 57.95-5.02L57.95-5.02L57.95-5.02Q56.83-3.20 54.66-1.79L54.66-1.79L54.66-1.79Q49.98 1.22 41.82 1.22L41.82 1.22L41.82 1.22Q33.66 1.22 29.22-3.04L29.22-3.04L29.22-3.04Q24.77-7.30 24.77-14.85L24.77-14.85L24.77-14.85Q24.77-25.54 30.34-33.66L30.34-33.66L30.34-33.66Q34.56-39.68 42.11-42.24L42.11-42.24L42.11-42.24Q46.02-43.52 49.86-43.52L49.86-43.52L49.86-43.52Q53.70-43.52 56.06-43.01L56.06-43.01L56.06-43.01Q58.43-42.50 60.22-41.47L60.22-41.47L60.22-41.47Q64.13-39.23 64.13-35.65L64.13-35.65L64.13-35.65Q64.13-32.38 61.06-29.95L61.06-29.95L61.06-29.95Q58.24-27.78 55.94-27.78L55.94-27.78L55.94-27.78Q53.63-27.78 52.67-28.10L52.67-28.10L52.67-28.10Q52.93-30.40 52.93-31.90L52.93-31.90L52.93-31.90Q52.93-33.41 52.86-34.50L52.86-34.50L52.86-34.50Q52.80-35.58 52.48-36.61L52.48-36.61L52.48-36.61Q51.84-38.98 49.89-38.98L49.89-38.98L49.89-38.98Q47.94-38.98 45.98-37.15L45.98-37.15L45.98-37.15Q44.03-35.33 42.37-32.26L42.37-32.26L42.37-32.26Q38.59-25.28 38.59-17.02L38.59-17.02L38.59-17.02Q38.59-13.06 40.83-10.78L40.83-10.78L40.83-10.78Q43.07-8.51 47.87-8.51L47.87-8.51L47.87-8.51Q51.46-8.51 54.85-10.88L54.85-10.88L54.85-10.88Q56.32-11.90 57.41-13.25ZM65.34-15.62L65.34-15.62L65.34-15.62Q65.34-27.71 71.62-35.33L71.62-35.33L71.62-35.33Q78.27-43.58 89.86-43.58L89.86-43.58L89.86-43.58Q98.24-43.58 102.46-39.52L102.46-39.52L102.46-39.52Q106.69-35.46 106.69-26.88L106.69-26.88L106.69-26.88Q106.69-13.82 100.03-6.21L100.03-6.21L100.03-6.21Q93.44 1.28 82.37 1.28L82.37 1.28L82.37 1.28Q73.73 1.28 69.54-3.04L69.54-3.04L69.54-3.04Q65.34-7.36 65.34-15.62ZM82.18-28.86L82.18-28.86L82.18-28.86Q79.30-17.34 79.30-8.26L79.30-8.26L79.30-8.26Q79.30-6.08 80.03-4.67L80.03-4.67L80.03-4.67Q80.77-3.26 82.72-3.26L82.72-3.26L82.72-3.26Q84.67-3.26 85.89-4.19L85.89-4.19L85.89-4.19Q87.10-5.12 88.06-7.23L88.06-7.23L88.06-7.23Q89.60-10.69 91.04-18.02L91.04-18.02L91.04-18.02Q92.48-25.34 92.61-28.38L92.61-28.38L92.61-28.38Q92.74-31.42 92.74-33.73L92.74-33.73L92.74-33.73Q92.74-36.03 92.03-37.50L92.03-37.50L92.03-37.50Q91.33-38.98 89.44-38.98L89.44-38.98L89.44-38.98Q87.55-38.98 86.27-37.82L86.27-37.82L86.27-37.82Q83.90-35.65 82.18-28.86ZM116.42 0L109.38 0L117.06-42.24L130.82-42.24L140.80-13.18L146.11-42.24L153.22-42.18L145.41 0L130.75 0L121.54-27.97L116.42 0Z" fill="#a00d1e"></path></g></g><style>text {
  font-size: 64px;
  font-family: Arial Black;
  dominant-baseline: central;
  text-anchor: middle;
}</style></svg>